<svg width="500" height="500" viewBox="0 0 500 500" fill="none" xmlns="http://www.w3.org/2000/svg">
<rect y="331" width="194" height="169" fill="#115A2A"/>
<rect width="500" height="500" rx="112" fill="#115A2A"/>
<path d="M345 102.666H155C142.402 102.666 130.32 107.67 121.412 116.578C112.504 125.486 107.5 137.568 107.5 150.166V324.333C107.5 336.93 112.504 349.012 121.412 357.92C130.32 366.828 142.402 371.833 155 371.833H196.008L238.758 414.741C240.238 416.208 241.992 417.369 243.921 418.157C245.851 418.945 247.916 419.345 250 419.333C253.774 419.333 257.424 417.985 260.292 415.533L311.275 371.833H345C357.598 371.833 369.68 366.828 378.588 357.92C387.496 349.012 392.5 336.93 392.5 324.333V150.166C392.5 137.568 387.496 125.486 378.588 116.578C369.68 107.67 357.598 102.666 345 102.666ZM360.833 324.333C360.833 328.532 359.165 332.559 356.196 335.529C353.227 338.498 349.199 340.166 345 340.166H305.417C301.643 340.166 297.993 341.513 295.125 343.966L250.792 381.966L213.742 344.758C212.262 343.29 210.508 342.129 208.579 341.341C206.649 340.553 204.584 340.154 202.5 340.166H155C150.801 340.166 146.773 338.498 143.804 335.529C140.835 332.559 139.167 328.532 139.167 324.333V150.166C139.167 145.967 140.835 141.939 143.804 138.97C146.773 136.001 150.801 134.333 155 134.333H345C349.199 134.333 353.227 136.001 356.196 138.97C359.165 141.939 360.833 145.967 360.833 150.166V324.333Z" fill="#ADDEBE"/>
</svg>
