<svg width="500" height="500" viewBox="0 0 500 500" fill="none" xmlns="http://www.w3.org/2000/svg">
<rect y="331" width="194" height="169" fill="#047857"/>
<rect width="500" height="500" rx="112" fill="#047857"/>
<path d="M345 102.667H155C142.402 102.667 130.32 107.671 121.412 116.579C112.504 125.487 107.5 137.569 107.5 150.167V324.333C107.5 336.931 112.504 349.013 121.412 357.921C130.32 366.829 142.402 371.833 155 371.833H196.008L238.758 414.742C240.238 416.209 241.992 417.37 243.921 418.158C245.851 418.946 247.916 419.345 250 419.333C253.774 419.334 257.424 417.986 260.292 415.533L311.275 371.833H345C357.598 371.833 369.68 366.829 378.588 357.921C387.496 349.013 392.5 336.931 392.5 324.333V150.167C392.5 137.569 387.496 125.487 378.588 116.579C369.68 107.671 357.598 102.667 345 102.667ZM360.833 324.333C360.833 328.533 359.165 332.56 356.196 335.529C353.227 338.499 349.199 340.167 345 340.167H305.417C301.643 340.166 297.993 341.514 295.125 343.967L250.792 381.967L213.742 344.758C212.262 343.291 210.508 342.13 208.579 341.342C206.649 340.554 204.584 340.155 202.5 340.167H155C150.801 340.167 146.773 338.499 143.804 335.529C140.835 332.56 139.167 328.533 139.167 324.333V150.167C139.167 145.967 140.835 141.94 143.804 138.971C146.773 136.002 150.801 134.333 155 134.333H345C349.199 134.333 353.227 136.002 356.196 138.971C359.165 141.94 360.833 145.967 360.833 150.167V324.333Z" fill="#ADDEBE"/>
</svg>
