<svg width="2761" height="2679" viewBox="0 0 2761 2679" fill="none" xmlns="http://www.w3.org/2000/svg">
<path d="M1190.66 2678.55C1771.25 2678.55 2241.91 2649.23 2241.91 2613.06C2241.91 2576.89 1771.25 2547.57 1190.66 2547.57C610.073 2547.57 139.412 2576.89 139.412 2613.06C139.412 2649.23 610.073 2678.55 1190.66 2678.55Z" fill="#047857"/>
<path opacity="0.8" d="M1190.66 2678.55C1771.25 2678.55 2241.91 2649.23 2241.91 2613.06C2241.91 2576.89 1771.25 2547.57 1190.66 2547.57C610.073 2547.57 139.412 2576.89 139.412 2613.06C139.412 2649.23 610.073 2678.55 1190.66 2678.55Z" fill="white"/>
<path d="M1980.63 122.711H923.6C850.623 122.711 791.463 181.871 791.463 254.849V2486.43C791.463 2559.4 850.623 2618.56 923.6 2618.56H1980.63C2053.61 2618.56 2112.77 2559.4 2112.77 2486.43V254.849C2112.77 181.871 2053.61 122.711 1980.63 122.711Z" fill="#263238"/>
<path d="M2054.01 396.779H850.152V2344.5H2054.01V396.779Z" fill="white" stroke="#263238" stroke-width="1.33739" stroke-miterlimit="10"/>
<path d="M1636.63 1185.47C1738.53 1083.56 1738.53 918.343 1636.63 816.438C1534.72 714.534 1369.5 714.534 1267.6 816.438C1165.7 918.343 1165.7 1083.56 1267.6 1185.47C1369.5 1287.37 1534.72 1287.37 1636.63 1185.47Z" fill="#047857"/>
<path d="M1794.7 2222.02H1109.6C1108.06 2222.03 1106.53 2221.73 1105.1 2221.15C1103.68 2220.56 1102.38 2219.7 1101.28 2218.61C1100.19 2217.53 1099.32 2216.23 1098.73 2214.81C1098.14 2213.39 1097.83 2211.86 1097.83 2210.32C1097.83 2208.77 1098.12 2207.24 1098.71 2205.81C1099.3 2204.37 1100.17 2203.07 1101.26 2201.98C1102.35 2200.89 1103.65 2200.02 1105.09 2199.43C1106.52 2198.84 1108.05 2198.54 1109.6 2198.55H1794.7C1796.24 2198.55 1797.77 2198.86 1799.19 2199.45C1800.62 2200.04 1801.91 2200.91 1803 2202C1804.08 2203.1 1804.94 2204.39 1805.53 2205.82C1806.11 2207.25 1806.41 2208.78 1806.4 2210.32C1806.4 2213.42 1805.17 2216.4 1802.97 2218.59C1800.78 2220.78 1797.8 2222.02 1794.7 2222.02Z" fill="#047857"/>
<path d="M1817.01 1408.59H1087.22C1072.16 1408.59 1059.95 1420.8 1059.95 1435.86V1521.89C1059.95 1536.95 1072.16 1549.16 1087.22 1549.16H1817.01C1832.07 1549.16 1844.28 1536.95 1844.28 1521.89V1435.86C1844.28 1420.8 1832.07 1408.59 1817.01 1408.59Z" fill="#047857"/>
<path d="M1817.01 1671.5H1087.22C1072.16 1671.5 1059.95 1683.71 1059.95 1698.77V1784.8C1059.95 1799.86 1072.16 1812.07 1087.22 1812.07H1817.01C1832.07 1812.07 1844.28 1799.86 1844.28 1784.8V1698.77C1844.28 1683.71 1832.07 1671.5 1817.01 1671.5Z" fill="#047857"/>
<path d="M1582.04 1131.12L1505.26 1086.91V1050.39C1516.38 1036.94 1524.43 1021.23 1528.86 1004.35C1531.5 1005.29 1534.29 1005.77 1537.09 1005.78C1546.61 1005.78 1552.66 976.266 1553.68 955.184C1564.77 931.721 1549.67 917.984 1549.67 917.984C1549.67 917.984 1555.93 911.727 1560.08 886.633C1564.23 861.538 1545.46 872.011 1530.83 849.025C1516.21 826.038 1505.74 801.012 1457.73 801.012C1444.5 800.577 1431.44 804.132 1420.26 811.215C1409.08 818.298 1400.28 828.581 1395.02 840.728C1383.07 840.771 1371.16 842.163 1359.52 844.876C1344.84 849.025 1340.69 897.106 1353.2 915.944C1358.8 926.239 1361.79 937.751 1361.9 949.471C1358.57 945.391 1355.1 944.302 1353.2 953.551C1349.05 974.43 1365.78 1003.67 1365.78 1003.67L1374.42 1001.22C1378.77 1019.26 1387.16 1036.08 1398.97 1050.39V1086.91L1322.19 1131.12C1313.22 1136.29 1305.77 1143.74 1300.59 1152.7C1295.41 1161.67 1292.68 1171.84 1292.67 1182.19V1207.49C1338.34 1242.77 1394.41 1261.9 1452.12 1261.9C1509.82 1261.9 1565.89 1242.77 1611.56 1207.49V1182.19C1611.56 1171.83 1608.84 1161.66 1603.66 1152.69C1598.47 1143.73 1591.02 1136.28 1582.04 1131.12Z" fill="#263238"/>
<path d="M1159.31 1777.12C1157.55 1777.09 1155.87 1776.38 1154.62 1775.14C1153.95 1774.54 1153.42 1773.81 1153.05 1772.99C1152.69 1772.17 1152.51 1771.28 1152.51 1770.38C1152.53 1769.16 1152.89 1767.96 1153.53 1766.91L1165.77 1747.33L1141.9 1748.08C1141 1748.13 1140.1 1748 1139.26 1747.68C1138.41 1747.37 1137.65 1746.87 1137.01 1746.24C1135.9 1744.99 1135.29 1743.39 1135.29 1741.72C1135.29 1740.05 1135.9 1738.44 1137.01 1737.2C1137.63 1736.54 1138.4 1736.03 1139.24 1735.7C1140.09 1735.37 1141 1735.23 1141.9 1735.29L1165.43 1736.17L1153.33 1716.66C1152.67 1715.59 1152.32 1714.37 1152.31 1713.12C1152.3 1712.22 1152.49 1711.33 1152.85 1710.51C1153.21 1709.69 1153.75 1708.96 1154.42 1708.36C1155.67 1707.12 1157.35 1706.41 1159.11 1706.39C1160.27 1706.4 1161.4 1706.73 1162.38 1707.36C1163.35 1707.98 1164.13 1708.87 1164.62 1709.92L1176.25 1730.94L1187.74 1710.06C1188.29 1708.95 1189.12 1708 1190.17 1707.33C1191.21 1706.66 1192.42 1706.29 1193.66 1706.25C1194.52 1706.26 1195.37 1706.44 1196.15 1706.79C1196.93 1707.14 1197.64 1707.65 1198.21 1708.29C1199.46 1709.59 1200.15 1711.32 1200.12 1713.12C1200.11 1714.29 1199.81 1715.44 1199.23 1716.45L1186.92 1736.17L1210.79 1735.29C1211.7 1735.23 1212.61 1735.37 1213.45 1735.7C1214.3 1736.03 1215.06 1736.54 1215.69 1737.2C1216.85 1738.4 1217.49 1740.01 1217.46 1741.68C1217.45 1743.37 1216.82 1744.99 1215.69 1746.24C1215.05 1746.87 1214.28 1747.37 1213.44 1747.68C1212.6 1748 1211.69 1748.13 1210.79 1748.08L1186.79 1747.33L1198.76 1766.71C1199.43 1767.79 1199.78 1769.04 1199.78 1770.31C1199.78 1772.12 1199.06 1773.85 1197.79 1775.12C1196.51 1776.4 1194.78 1777.12 1192.98 1777.12C1191.81 1777.1 1190.67 1776.74 1189.71 1776.09C1188.74 1775.44 1187.99 1774.52 1187.54 1773.44L1176.18 1753.04L1164.89 1773.44C1164.39 1774.51 1163.6 1775.42 1162.62 1776.06C1161.63 1776.71 1160.49 1777.08 1159.31 1777.12Z" fill="#263238"/>
<path d="M1269.62 1777.12C1267.86 1777.09 1266.18 1776.38 1264.93 1775.14C1264.26 1774.54 1263.72 1773.81 1263.36 1772.99C1263 1772.17 1262.81 1771.28 1262.82 1770.38C1262.84 1769.16 1263.19 1767.96 1263.84 1766.91L1276.08 1747.33L1252.28 1748.08C1251.37 1748.12 1250.46 1747.98 1249.61 1747.66C1248.76 1747.35 1247.98 1746.86 1247.31 1746.24C1246.41 1745.31 1245.81 1744.13 1245.59 1742.85C1245.37 1741.57 1245.53 1740.26 1246.07 1739.08C1246.6 1737.89 1247.48 1736.9 1248.59 1736.23C1249.7 1735.55 1250.98 1735.23 1252.28 1735.29L1275.74 1736.18L1263.64 1716.66C1262.98 1715.59 1262.62 1714.37 1262.62 1713.12C1262.61 1712.22 1262.79 1711.33 1263.16 1710.51C1263.52 1709.69 1264.05 1708.96 1264.72 1708.36C1265.97 1707.12 1267.66 1706.41 1269.42 1706.39C1270.57 1706.4 1271.71 1706.73 1272.68 1707.36C1273.66 1707.98 1274.44 1708.87 1274.92 1709.92L1286.55 1730.94L1298.05 1710.06C1298.59 1708.95 1299.43 1708 1300.47 1707.33C1301.52 1706.66 1302.72 1706.29 1303.96 1706.25C1304.82 1706.25 1305.68 1706.43 1306.46 1706.78C1307.25 1707.13 1307.95 1707.65 1308.52 1708.29C1309.15 1708.93 1309.65 1709.68 1309.99 1710.51C1310.33 1711.34 1310.5 1712.23 1310.49 1713.12C1310.47 1714.3 1310.14 1715.44 1309.54 1716.45L1297.23 1736.18L1321.17 1735.43C1322.07 1735.37 1322.96 1735.51 1323.8 1735.84C1324.63 1736.16 1325.38 1736.68 1326 1737.33C1327.16 1738.53 1327.79 1740.15 1327.77 1741.82C1327.76 1743.51 1327.13 1745.13 1326 1746.38C1325.37 1747.01 1324.61 1747.5 1323.78 1747.82C1322.95 1748.13 1322.06 1748.27 1321.17 1748.21L1297.09 1747.46L1309.06 1766.85C1309.73 1767.93 1310.09 1769.18 1310.08 1770.45C1310.08 1772.25 1309.37 1773.98 1308.09 1775.26C1306.82 1776.53 1305.09 1777.25 1303.28 1777.25C1302.12 1777.24 1300.98 1776.88 1300.01 1776.23C1299.05 1775.58 1298.29 1774.65 1297.84 1773.58L1286.49 1753.18L1275.2 1773.58C1274.68 1774.62 1273.88 1775.5 1272.9 1776.12C1271.92 1776.75 1270.78 1777.09 1269.62 1777.12Z" fill="#263238"/>
<path d="M1380 1777.12C1378.21 1777.11 1376.5 1776.4 1375.23 1775.14C1374.57 1774.54 1374.03 1773.81 1373.67 1772.99C1373.3 1772.17 1373.12 1771.28 1373.13 1770.38C1373.15 1769.16 1373.5 1767.96 1374.15 1766.91L1386.39 1747.33L1362.59 1748.08C1361.3 1748.13 1360.04 1747.8 1358.94 1747.12C1357.85 1746.45 1356.98 1745.47 1356.45 1744.3C1355.92 1743.14 1355.74 1741.84 1355.95 1740.57C1356.16 1739.3 1356.74 1738.13 1357.62 1737.2C1358.26 1736.54 1359.04 1736.03 1359.9 1735.7C1360.75 1735.37 1361.67 1735.23 1362.59 1735.29L1386.05 1736.18L1373.94 1716.66C1373.28 1715.59 1372.93 1714.37 1372.92 1713.12C1372.94 1712.23 1373.14 1711.35 1373.5 1710.53C1373.86 1709.71 1374.38 1708.98 1375.03 1708.36C1376.3 1707.1 1378.01 1706.4 1379.79 1706.39C1380.94 1706.41 1382.06 1706.75 1383.02 1707.38C1383.98 1708 1384.75 1708.88 1385.23 1709.92L1396.86 1730.94L1408.35 1710.06C1408.9 1708.95 1409.74 1708 1410.78 1707.33C1411.82 1706.66 1413.03 1706.29 1414.27 1706.25C1415.13 1706.25 1415.98 1706.43 1416.77 1706.78C1417.55 1707.13 1418.26 1707.65 1418.83 1708.29C1419.46 1708.93 1419.96 1709.68 1420.29 1710.51C1420.63 1711.34 1420.8 1712.23 1420.8 1713.12C1420.78 1714.3 1420.45 1715.44 1419.85 1716.45L1407.54 1736.18L1431.48 1735.29C1432.36 1735.2 1433.25 1735.3 1434.08 1735.59C1434.92 1735.87 1435.69 1736.33 1436.33 1736.94C1436.98 1737.55 1437.48 1738.28 1437.82 1739.1C1438.15 1739.92 1438.31 1740.8 1438.28 1741.68C1438.29 1743.36 1437.69 1744.98 1436.58 1746.24C1435.94 1746.87 1435.17 1747.37 1434.33 1747.68C1433.48 1748 1432.58 1748.13 1431.68 1748.08L1407.67 1747.33L1419.58 1766.71C1420.25 1767.79 1420.6 1769.04 1420.6 1770.31C1420.57 1771.21 1420.38 1772.09 1420.01 1772.9C1419.65 1773.72 1419.13 1774.46 1418.49 1775.07C1417.9 1775.71 1417.18 1776.22 1416.39 1776.57C1415.59 1776.92 1414.73 1777.11 1413.86 1777.12C1412.71 1777.1 1411.58 1776.74 1410.63 1776.08C1409.67 1775.43 1408.93 1774.51 1408.49 1773.44L1397.07 1753.04L1385.78 1773.44C1385.27 1774.55 1384.45 1775.48 1383.43 1776.13C1382.4 1776.78 1381.21 1777.12 1380 1777.12Z" fill="#263238"/>
<path d="M1490.3 1777.12C1488.52 1777.11 1486.81 1776.4 1485.54 1775.14C1484.26 1773.89 1483.53 1772.18 1483.5 1770.38C1483.48 1769.16 1483.81 1767.96 1484.45 1766.91L1496.69 1747.33L1472.89 1748.08C1471.98 1748.12 1471.08 1747.98 1470.22 1747.66C1469.37 1747.35 1468.59 1746.86 1467.93 1746.24C1466.82 1744.99 1466.21 1743.39 1466.21 1741.72C1466.21 1740.05 1466.82 1738.44 1467.93 1737.2C1468.58 1736.56 1469.36 1736.06 1470.22 1735.74C1471.07 1735.41 1471.98 1735.26 1472.89 1735.29L1496.42 1736.18L1484.38 1716.66C1483.73 1715.59 1483.37 1714.37 1483.36 1713.12C1483.39 1712.23 1483.58 1711.35 1483.94 1710.53C1484.31 1709.71 1484.83 1708.98 1485.47 1708.36C1486.74 1707.1 1488.45 1706.4 1490.23 1706.39C1491.39 1706.4 1492.52 1706.73 1493.5 1707.36C1494.47 1707.98 1495.25 1708.87 1495.74 1709.92L1507.3 1730.94L1518.8 1710.06C1519.34 1708.95 1520.18 1708 1521.22 1707.33C1522.27 1706.66 1523.47 1706.29 1524.71 1706.25C1525.57 1706.25 1526.43 1706.43 1527.21 1706.78C1528 1707.13 1528.7 1707.65 1529.27 1708.29C1529.9 1708.93 1530.4 1709.68 1530.74 1710.51C1531.07 1711.34 1531.25 1712.23 1531.24 1713.12C1531.22 1714.3 1530.89 1715.44 1530.29 1716.45L1517.98 1736.18L1541.92 1735.29C1542.8 1735.2 1543.69 1735.3 1544.52 1735.59C1545.36 1735.87 1546.13 1736.33 1546.77 1736.94C1547.42 1737.55 1547.92 1738.28 1548.26 1739.1C1548.6 1739.92 1548.75 1740.8 1548.72 1741.68C1548.73 1743.36 1548.13 1744.98 1547.02 1746.24C1546.38 1746.87 1545.61 1747.37 1544.77 1747.68C1543.92 1748 1543.02 1748.13 1542.12 1748.08L1518.12 1747.33L1530.02 1766.71C1530.69 1767.79 1531.04 1769.04 1531.04 1770.31C1531.04 1771.21 1530.86 1772.1 1530.5 1772.92C1530.13 1773.74 1529.6 1774.48 1528.93 1775.07C1528.34 1775.71 1527.62 1776.22 1526.83 1776.57C1526.03 1776.92 1525.17 1777.11 1524.3 1777.12C1523.15 1777.1 1522.02 1776.74 1521.07 1776.08C1520.11 1775.43 1519.37 1774.51 1518.93 1773.44L1507.51 1753.04L1496.22 1773.44C1495.7 1774.57 1494.86 1775.51 1493.81 1776.17C1492.76 1776.82 1491.54 1777.15 1490.3 1777.12Z" fill="#263238"/>
<path d="M1600.61 1777.12C1598.83 1777.11 1597.12 1776.4 1595.85 1775.14C1594.8 1774.08 1594.12 1772.69 1593.94 1771.2C1593.76 1769.71 1594.07 1768.21 1594.83 1766.91L1607 1747.33L1583.2 1748.08C1582.29 1748.12 1581.38 1747.98 1580.53 1747.66C1579.68 1747.35 1578.9 1746.86 1578.24 1746.24C1577.13 1744.99 1576.51 1743.39 1576.51 1741.72C1576.51 1740.05 1577.13 1738.44 1578.24 1737.2C1578.89 1736.56 1579.67 1736.06 1580.52 1735.74C1581.38 1735.41 1582.29 1735.26 1583.2 1735.29L1606.73 1736.18L1594.62 1716.66C1593.97 1715.59 1593.61 1714.37 1593.6 1713.12C1593.63 1711.33 1594.36 1709.62 1595.64 1708.36C1596.91 1707.1 1598.62 1706.4 1600.41 1706.39C1601.56 1706.4 1602.7 1706.73 1603.67 1707.36C1604.65 1707.98 1605.42 1708.87 1605.91 1709.92L1617.48 1730.94L1628.97 1710.06C1629.51 1708.95 1630.35 1708 1631.4 1707.33C1632.44 1706.66 1633.65 1706.29 1634.89 1706.25C1635.76 1706.25 1636.62 1706.43 1637.41 1706.78C1638.21 1707.13 1638.93 1707.65 1639.51 1708.29C1640.76 1709.59 1641.44 1711.32 1641.41 1713.12C1641.39 1714.3 1641.06 1715.44 1640.46 1716.45L1628.15 1736.18L1652.09 1735.29C1652.97 1735.2 1653.86 1735.3 1654.7 1735.59C1655.53 1735.87 1656.3 1736.33 1656.95 1736.94C1657.59 1737.55 1658.1 1738.28 1658.43 1739.1C1658.77 1739.92 1658.93 1740.8 1658.89 1741.68C1658.91 1743.36 1658.3 1744.98 1657.19 1746.24C1656.55 1746.87 1655.78 1747.37 1654.94 1747.68C1654.1 1748 1653.19 1748.13 1652.29 1748.08L1628.29 1747.33L1640.19 1766.71C1640.86 1767.79 1641.21 1769.04 1641.21 1770.31C1641.22 1771.21 1641.03 1772.1 1640.67 1772.92C1640.3 1773.74 1639.77 1774.48 1639.1 1775.07C1638.51 1775.71 1637.79 1776.22 1637 1776.57C1636.2 1776.92 1635.35 1777.11 1634.48 1777.12C1633.32 1777.1 1632.2 1776.74 1631.24 1776.08C1630.29 1775.43 1629.54 1774.51 1629.1 1773.44L1617.68 1753.04L1606.39 1773.44C1605.88 1774.55 1605.07 1775.48 1604.04 1776.13C1603.01 1776.78 1601.82 1777.12 1600.61 1777.12Z" fill="#263238"/>
<path d="M1710.92 1777.12C1709.16 1777.09 1707.47 1776.38 1706.22 1775.14C1705.55 1774.54 1705.02 1773.81 1704.66 1772.99C1704.29 1772.17 1704.11 1771.28 1704.12 1770.38C1704.14 1769.16 1704.49 1767.96 1705.14 1766.91L1717.31 1747.33L1693.51 1748.08C1692.63 1748.14 1691.75 1748.03 1690.92 1747.73C1690.1 1747.44 1689.34 1746.98 1688.7 1746.38C1688.06 1745.78 1687.55 1745.05 1687.21 1744.24C1686.86 1743.43 1686.69 1742.56 1686.71 1741.68C1686.7 1740.85 1686.86 1740.03 1687.18 1739.26C1687.49 1738.49 1687.96 1737.79 1688.54 1737.2C1689.17 1736.54 1689.93 1736.03 1690.78 1735.7C1691.62 1735.37 1692.53 1735.23 1693.44 1735.29L1716.97 1736.18L1704.86 1716.66C1704.2 1715.59 1703.85 1714.37 1703.84 1713.12C1703.87 1711.33 1704.6 1709.62 1705.88 1708.36C1707.15 1707.1 1708.86 1706.4 1710.64 1706.39C1711.8 1706.4 1712.94 1706.73 1713.91 1707.36C1714.89 1707.98 1715.66 1708.87 1716.15 1709.92L1727.71 1730.94L1739.28 1710.06C1739.81 1708.96 1740.64 1708.02 1741.67 1707.35C1742.7 1706.68 1743.9 1706.3 1745.12 1706.25C1745.99 1706.25 1746.86 1706.43 1747.65 1706.78C1748.45 1707.13 1749.16 1707.65 1749.75 1708.29C1751 1709.59 1751.68 1711.32 1751.65 1713.12C1751.65 1714.29 1751.34 1715.44 1750.77 1716.45L1738.46 1736.18L1762.33 1735.29C1763.24 1735.23 1764.14 1735.37 1764.99 1735.7C1765.84 1736.03 1766.6 1736.54 1767.23 1737.2C1768.39 1738.4 1769.02 1740.01 1768.99 1741.68C1768.99 1743.37 1768.36 1744.99 1767.23 1746.24C1766.59 1746.87 1765.82 1747.37 1764.97 1747.68C1764.13 1748 1763.23 1748.13 1762.33 1748.08L1738.32 1747.33L1750.22 1766.71C1750.89 1767.79 1751.25 1769.04 1751.24 1770.31C1751.22 1772.11 1750.49 1773.82 1749.2 1775.07C1747.97 1776.34 1746.28 1777.07 1744.51 1777.12C1743.36 1777.1 1742.23 1776.74 1741.27 1776.08C1740.32 1775.43 1739.58 1774.51 1739.14 1773.44L1727.71 1753.04L1716.42 1773.44C1715.94 1774.5 1715.16 1775.41 1714.19 1776.06C1713.22 1776.71 1712.08 1777.07 1710.92 1777.12Z" fill="#263238"/>
<g style="mix-blend-mode:multiply">
<path d="M2054.01 399.363H850.152V474.783H2054.01V399.363Z" fill="#047857"/>
</g>
<path d="M1583 260.425H1321.17C1316.44 260.425 1311.91 258.548 1308.57 255.206C1305.23 251.865 1303.35 247.333 1303.35 242.607C1303.35 237.882 1305.23 233.35 1308.57 230.008C1311.91 226.667 1316.44 224.79 1321.17 224.79H1583C1587.72 224.79 1592.25 226.667 1595.6 230.008C1598.94 233.35 1600.81 237.882 1600.81 242.607C1600.81 247.333 1598.94 251.865 1595.6 255.206C1592.25 258.548 1587.72 260.425 1583 260.425Z" fill="#047857" stroke="#263238" stroke-width="1.33739" stroke-linecap="round" stroke-linejoin="round"/>
<path d="M1523.49 2454.53C1523.5 2440.4 1519.32 2426.59 1511.48 2414.83C1503.64 2403.08 1492.49 2393.92 1479.44 2388.51C1466.39 2383.09 1452.02 2381.67 1438.17 2384.43C1424.31 2387.18 1411.58 2393.98 1401.59 2403.97C1391.6 2413.96 1384.8 2426.69 1382.04 2440.55C1379.29 2454.41 1380.71 2468.77 1386.12 2481.82C1391.54 2494.87 1400.7 2506.02 1412.45 2513.87C1424.2 2521.71 1438.02 2525.88 1452.15 2525.87C1471.06 2525.85 1489.2 2518.33 1502.57 2504.96C1515.95 2491.58 1523.47 2473.45 1523.49 2454.53Z" fill="#047857"/>
<path d="M1488.33 2418.35H1415.97V2490.71H1488.33V2418.35Z" fill="#047857" stroke="#263238" stroke-width="1.33739" stroke-linecap="round" stroke-linejoin="round"/>
<path d="M2314.07 1633.42C2314.07 1633.42 2219.27 1392.54 2303.66 1363.91C2391.53 1334.05 2387.65 1493.12 2384.25 1570.65C2377.11 1736.31 2358.82 1767.12 2345.15 1726.65L2314.07 1633.42ZM2285.57 1821.32C2311.62 1855.32 2318.97 1820.1 2271.97 1661.03C2249.94 1586.22 2202.06 1434.9 2128.61 1491.69C2058.09 1546.1 2225.93 1743.32 2225.93 1743.32L2285.57 1821.32ZM2235.25 1959.37C2260.07 1981.41 2260.55 1953.59 2201.59 1838.73C2173.91 1784.94 2115.35 1676.06 2067.41 1729.92C2021.37 1781.88 2178.26 1908.16 2178.26 1908.16L2235.25 1959.37ZM2180.84 2123.54C2205.67 2145.64 2206.14 2117.76 2147.18 2002.97C2119.5 1949.17 2060.95 1840.23 2013 1894.15C1967.23 1946.25 2123.65 2072.54 2123.65 2072.54L2180.84 2123.54ZM2337.94 1789.36C2298.22 1804.86 2329.78 1821.73 2495.65 1821.25C2573.45 1821.25 2732.31 1817.72 2698.44 1731.28C2666 1648.24 2429.75 1753.99 2429.75 1753.99L2337.94 1789.36ZM2292.71 1899.8C2250.69 1907.08 2278.3 1929.93 2440.97 1962.43C2517.21 1977.74 2673.55 2005.96 2657.57 1914.83C2642.27 1826.96 2389.69 1883.68 2389.69 1883.68L2292.71 1899.8ZM2242.12 2034.66C2206.35 2039.83 2229.2 2059.75 2365.96 2091.04C2430.09 2105.72 2561.68 2133.27 2550.26 2055.54C2539.38 1980.73 2324.47 2023.03 2324.47 2023.03L2242.12 2034.66ZM2203.69 2159.59C2168.67 2168.49 2193.49 2185.9 2332.91 2202.5C2398.19 2210.25 2531.96 2223.72 2512.45 2147.62C2493.61 2074.58 2284.42 2139.25 2284.42 2139.25L2203.69 2159.59ZM2408.67 1653.82C2388.26 1699.52 2430.63 1692.58 2574.67 1566.91C2642.13 1507.94 2777.47 1384.58 2670.29 1323.17C2567.39 1264.14 2456.75 1548.95 2456.75 1548.95L2408.67 1653.82ZM2209 2322.33C2187.44 2334.91 2208.59 2339.8 2307.47 2320.08C2353.85 2310.9 2448.18 2290.5 2416.28 2250.24C2385.41 2211.48 2258.92 2293.08 2258.92 2293.08L2209 2322.33Z" fill="#047857"/>
<path opacity="0.3" d="M2314.07 1633.42C2314.07 1633.42 2219.27 1392.54 2303.66 1363.91C2391.53 1334.05 2387.65 1493.12 2384.25 1570.65C2377.11 1736.31 2358.82 1767.12 2345.15 1726.65L2314.07 1633.42ZM2285.57 1821.32C2311.62 1855.32 2318.97 1820.1 2271.97 1661.03C2249.94 1586.22 2202.06 1434.9 2128.61 1491.69C2058.09 1546.1 2225.93 1743.32 2225.93 1743.32L2285.57 1821.32ZM2235.25 1959.37C2260.07 1981.41 2260.55 1953.59 2201.59 1838.73C2173.91 1784.94 2115.35 1676.06 2067.41 1729.92C2021.37 1781.88 2178.26 1908.16 2178.26 1908.16L2235.25 1959.37ZM2180.84 2123.54C2205.67 2145.64 2206.14 2117.76 2147.18 2002.97C2119.5 1949.17 2060.95 1840.23 2013 1894.15C1967.23 1946.25 2123.65 2072.54 2123.65 2072.54L2180.84 2123.54ZM2337.94 1789.36C2298.22 1804.86 2329.78 1821.73 2495.65 1821.25C2573.45 1821.25 2732.31 1817.72 2698.44 1731.28C2666 1648.24 2429.75 1753.99 2429.75 1753.99L2337.94 1789.36ZM2292.71 1899.8C2250.69 1907.08 2278.3 1929.93 2440.97 1962.43C2517.21 1977.74 2673.55 2005.96 2657.57 1914.83C2642.27 1826.96 2389.69 1883.68 2389.69 1883.68L2292.71 1899.8ZM2242.12 2034.66C2206.35 2039.83 2229.2 2059.75 2365.96 2091.04C2430.09 2105.72 2561.68 2133.27 2550.26 2055.54C2539.38 1980.73 2324.47 2023.03 2324.47 2023.03L2242.12 2034.66ZM2203.69 2159.59C2168.67 2168.49 2193.49 2185.9 2332.91 2202.5C2398.19 2210.25 2531.96 2223.72 2512.45 2147.62C2493.61 2074.58 2284.42 2139.25 2284.42 2139.25L2203.69 2159.59ZM2408.67 1653.82C2388.26 1699.52 2430.63 1692.58 2574.67 1566.91C2642.13 1507.94 2777.47 1384.58 2670.29 1323.17C2567.39 1264.14 2456.75 1548.95 2456.75 1548.95L2408.67 1653.82ZM2209 2322.33C2187.44 2334.91 2208.59 2339.8 2307.47 2320.08C2353.85 2310.9 2448.18 2290.5 2416.28 2250.24C2385.41 2211.48 2258.92 2293.08 2258.92 2293.08L2209 2322.33Z" fill="white"/>
<path d="M2355.89 1745.56L2339.37 1470.61ZM2303.6 1836.28L2199.14 1599.82ZM2573.18 1767.53L2322.84 1803.43ZM2249.46 1963.73L2113.92 1789.83ZM2273.26 1910.41L2460.01 1919.79ZM2229.06 2043.77L2371.87 2057.92ZM2194.58 2128.51L2123.65 2021.8ZM2186.42 2166.18L2354.33 2167.75ZM2152.42 2481.19C2153.54 2481.1 2154.59 2480.58 2155.33 2479.72C2156.06 2478.87 2156.44 2477.76 2156.36 2476.63C2145.68 2316.27 2207.71 2053.63 2307.2 1838.05C2370.79 1700.27 2620.03 1429.46 2622.68 1426.74C2623.49 1425.94 2623.94 1424.85 2623.94 1423.72C2623.94 1422.58 2623.49 1421.49 2622.68 1420.69C2622.29 1420.3 2621.83 1419.98 2621.31 1419.77C2620.8 1419.56 2620.25 1419.45 2619.69 1419.45C2619.14 1419.45 2618.58 1419.56 2618.07 1419.77C2617.56 1419.98 2617.09 1420.3 2616.7 1420.69C2614.18 1423.41 2363.92 1695.23 2299.79 1834.24C2198.46 2055.06 2137.25 2312.94 2148.13 2477.18C2148.22 2478.26 2148.7 2479.27 2149.5 2480.02C2150.29 2480.76 2151.33 2481.18 2152.42 2481.19ZM2355.83 1749.78C2356.95 1749.71 2358 1749.2 2358.75 1748.36C2359.5 1747.52 2359.89 1746.41 2359.84 1745.29L2343.58 1470.2C2343.56 1469.64 2343.42 1469.09 2343.18 1468.58C2342.94 1468.08 2342.6 1467.63 2342.18 1467.25C2341.76 1466.88 2341.28 1466.59 2340.75 1466.41C2340.22 1466.23 2339.65 1466.15 2339.1 1466.19C2337.97 1466.26 2336.92 1466.77 2336.17 1467.61C2335.42 1468.45 2335.03 1469.55 2335.08 1470.68L2351.61 1745.63C2351.66 1746.71 2352.13 1747.73 2352.91 1748.48C2353.7 1749.23 2354.74 1749.64 2355.83 1749.64V1749.78ZM2305.09 1840.16C2306.11 1839.7 2306.91 1838.85 2307.32 1837.81C2307.72 1836.77 2307.71 1835.61 2307.27 1834.58L2202.74 1598.12C2202.29 1597.09 2201.45 1596.29 2200.4 1595.88C2199.36 1595.47 2198.19 1595.49 2197.17 1595.94C2196.14 1596.4 2195.33 1597.24 2194.92 1598.28C2194.51 1599.33 2194.54 1600.49 2194.99 1601.52L2299.45 1837.98C2299.78 1838.74 2300.32 1839.39 2301 1839.85C2301.69 1840.3 2302.5 1840.55 2303.32 1840.57C2304.03 1840.6 2304.73 1840.46 2305.36 1840.16H2305.09ZM2323.18 1807.51L2573.38 1771.74C2573.98 1771.73 2574.58 1771.59 2575.12 1771.33C2575.67 1771.07 2576.16 1770.7 2576.55 1770.24C2576.94 1769.78 2577.23 1769.25 2577.4 1768.67C2577.57 1768.09 2577.62 1767.48 2577.54 1766.88C2577.45 1766.28 2577.25 1765.7 2576.93 1765.19C2576.61 1764.68 2576.18 1764.24 2575.68 1763.9C2575.18 1763.57 2574.61 1763.34 2574.01 1763.24C2573.42 1763.13 2572.81 1763.16 2572.22 1763.31L2322.03 1799.08C2320.91 1799.15 2319.86 1799.67 2319.12 1800.51C2318.38 1801.35 2318.01 1802.45 2318.08 1803.57C2318.15 1804.69 2318.67 1805.73 2319.51 1806.47C2320.35 1807.21 2321.45 1807.59 2322.57 1807.51H2323.18ZM2251.84 1967.13C2252.73 1966.43 2253.31 1965.41 2253.45 1964.29C2253.59 1963.17 2253.28 1962.04 2252.59 1961.14L2116.98 1786.91C2116.29 1786.01 2115.27 1785.42 2114.14 1785.27C2113.01 1785.12 2111.87 1785.43 2110.97 1786.13C2110.06 1786.82 2109.48 1787.84 2109.33 1788.97C2109.18 1790.1 2109.49 1791.24 2110.18 1792.14L2246.06 1966.65C2246.46 1967.16 2246.96 1967.57 2247.54 1967.85C2248.12 1968.14 2248.75 1968.28 2249.39 1968.28C2250.41 1968.23 2251.37 1967.82 2252.11 1967.13H2251.84ZM2463.75 1920C2463.79 1918.87 2463.38 1917.78 2462.62 1916.95C2461.85 1916.12 2460.8 1915.63 2459.67 1915.58L2273.26 1906.12C2272.22 1906.2 2271.23 1906.65 2270.5 1907.4C2269.76 1908.15 2269.33 1909.14 2269.28 1910.19C2269.23 1911.24 2269.57 1912.27 2270.23 1913.09C2270.88 1913.91 2271.82 1914.45 2272.86 1914.63L2459.6 1924.08C2460.73 1924.11 2461.82 1923.71 2462.65 1922.94C2463.48 1922.18 2463.97 1921.12 2464.02 1920H2463.75ZM2375.82 2058.32C2375.89 2057.76 2375.84 2057.2 2375.68 2056.66C2375.52 2056.12 2375.26 2055.61 2374.91 2055.17C2374.55 2054.74 2374.11 2054.37 2373.61 2054.11C2373.12 2053.84 2372.57 2053.68 2372.01 2053.63L2229.2 2039.55C2228.64 2039.5 2228.08 2039.55 2227.55 2039.71C2227.02 2039.87 2226.52 2040.14 2226.09 2040.49C2225.66 2040.85 2225.3 2041.28 2225.04 2041.78C2224.78 2042.27 2224.62 2042.81 2224.57 2043.36C2224.48 2044.48 2224.82 2045.59 2225.53 2046.45C2226.25 2047.31 2227.27 2047.87 2228.38 2047.99L2371.19 2062.13H2371.6C2372.7 2062.21 2373.78 2061.85 2374.62 2061.14C2375.46 2060.43 2375.99 2059.42 2376.09 2058.32H2375.82ZM2196.62 2132.04C2197.57 2131.42 2198.22 2130.45 2198.45 2129.34C2198.68 2128.23 2198.46 2127.07 2197.85 2126.13L2127.25 2019.42C2126.61 2018.5 2125.63 2017.87 2124.53 2017.66C2123.43 2017.44 2122.28 2017.66 2121.34 2018.27C2120.39 2018.89 2119.73 2019.86 2119.5 2020.97C2119.28 2022.08 2119.49 2023.24 2120.11 2024.18L2190.7 2130.89C2191.11 2131.47 2191.65 2131.95 2192.27 2132.28C2192.9 2132.61 2193.6 2132.79 2194.31 2132.79C2195.23 2132.84 2196.14 2132.58 2196.89 2132.04H2196.62ZM2358.61 2167.75C2358.6 2166.63 2358.15 2165.56 2357.36 2164.76C2356.58 2163.96 2355.52 2163.5 2354.4 2163.46L2186.49 2161.9C2185.37 2161.9 2184.3 2162.34 2183.51 2163.13C2182.72 2163.92 2182.27 2165 2182.27 2166.11C2182.25 2166.68 2182.35 2167.24 2182.55 2167.76C2182.76 2168.28 2183.07 2168.76 2183.46 2169.16C2183.86 2169.56 2184.33 2169.88 2184.85 2170.09C2185.37 2170.3 2185.93 2170.41 2186.49 2170.4L2354.4 2171.96C2354.97 2171.99 2355.54 2171.9 2356.08 2171.7C2356.62 2171.5 2357.12 2171.2 2357.54 2170.81C2357.95 2170.41 2358.29 2169.94 2358.52 2169.41C2358.75 2168.89 2358.88 2168.32 2358.89 2167.75H2358.61ZM2133.31 2418.83C2133.65 2418.08 2162.28 2339.19 2248.37 2320.35C2249.48 2320.11 2250.45 2319.44 2251.06 2318.48C2251.67 2317.52 2251.88 2316.36 2251.64 2315.25C2251.36 2314.17 2250.68 2313.23 2249.73 2312.63C2248.78 2312.04 2247.64 2311.83 2246.54 2312.06C2155.75 2331.92 2125.62 2415.22 2125.28 2416.04C2124.93 2417.11 2125.01 2418.28 2125.51 2419.3C2126 2420.31 2126.87 2421.1 2127.93 2421.48H2129.29C2130.2 2421.56 2131.1 2421.34 2131.88 2420.86C2132.65 2420.39 2133.25 2419.67 2133.58 2418.83H2133.31ZM2152.42 2481.19C2153.54 2481.1 2154.59 2480.58 2155.33 2479.72C2156.06 2478.87 2156.44 2477.76 2156.36 2476.63C2145.68 2316.27 2207.71 2053.63 2307.2 1838.05C2370.79 1700.27 2620.03 1429.46 2622.68 1426.74C2623.49 1425.94 2623.94 1424.85 2623.94 1423.72C2623.94 1422.58 2623.49 1421.49 2622.68 1420.69C2622.29 1420.3 2621.83 1419.98 2621.31 1419.77C2620.8 1419.56 2620.25 1419.45 2619.69 1419.45C2619.14 1419.45 2618.58 1419.56 2618.07 1419.77C2617.56 1419.98 2617.09 1420.3 2616.7 1420.69C2614.18 1423.41 2363.92 1695.23 2299.79 1834.24C2198.46 2055.06 2137.25 2312.94 2148.13 2477.18C2148.22 2478.26 2148.7 2479.27 2149.5 2480.02C2150.29 2480.76 2151.33 2481.18 2152.42 2481.19ZM2355.83 1749.78C2356.95 1749.71 2358 1749.2 2358.75 1748.36C2359.5 1747.52 2359.89 1746.41 2359.84 1745.29L2343.58 1470.2C2343.56 1469.64 2343.42 1469.09 2343.18 1468.58C2342.94 1468.08 2342.6 1467.63 2342.18 1467.25C2341.76 1466.88 2341.28 1466.59 2340.75 1466.41C2340.22 1466.23 2339.65 1466.15 2339.1 1466.19C2337.97 1466.26 2336.92 1466.77 2336.17 1467.61C2335.42 1468.45 2335.03 1469.55 2335.08 1470.68L2351.61 1745.63C2351.66 1746.71 2352.13 1747.73 2352.91 1748.48C2353.7 1749.23 2354.74 1749.64 2355.83 1749.64V1749.78ZM2305.09 1840.16C2306.11 1839.7 2306.91 1838.85 2307.32 1837.81C2307.72 1836.77 2307.71 1835.61 2307.27 1834.58L2202.74 1598.12C2202.29 1597.09 2201.45 1596.29 2200.4 1595.88C2199.36 1595.47 2198.19 1595.49 2197.17 1595.94C2196.14 1596.4 2195.33 1597.24 2194.92 1598.28C2194.51 1599.33 2194.54 1600.49 2194.99 1601.52L2299.45 1837.98C2299.78 1838.74 2300.32 1839.39 2301 1839.85C2301.69 1840.3 2302.5 1840.55 2303.32 1840.57C2304.03 1840.6 2304.73 1840.46 2305.36 1840.16H2305.09ZM2323.18 1807.51L2573.38 1771.74C2573.98 1771.73 2574.58 1771.59 2575.12 1771.33C2575.67 1771.07 2576.16 1770.7 2576.55 1770.24C2576.94 1769.78 2577.23 1769.25 2577.4 1768.67C2577.57 1768.09 2577.62 1767.48 2577.54 1766.88C2577.45 1766.28 2577.25 1765.7 2576.93 1765.19C2576.61 1764.68 2576.18 1764.24 2575.68 1763.9C2575.18 1763.57 2574.61 1763.34 2574.01 1763.24C2573.42 1763.13 2572.81 1763.16 2572.22 1763.31L2322.03 1799.08C2320.91 1799.15 2319.86 1799.67 2319.12 1800.51C2318.38 1801.35 2318.01 1802.45 2318.08 1803.57C2318.15 1804.69 2318.67 1805.73 2319.51 1806.47C2320.35 1807.21 2321.45 1807.59 2322.57 1807.51H2323.18ZM2251.84 1967.13C2252.73 1966.43 2253.31 1965.41 2253.45 1964.29C2253.59 1963.17 2253.28 1962.04 2252.59 1961.14L2116.98 1786.91C2116.64 1786.46 2116.21 1786.09 2115.72 1785.81C2115.24 1785.53 2114.7 1785.34 2114.14 1785.27C2113.58 1785.2 2113.01 1785.24 2112.47 1785.38C2111.92 1785.53 2111.41 1785.78 2110.97 1786.13C2110.52 1786.47 2110.15 1786.9 2109.86 1787.39C2109.58 1787.88 2109.4 1788.41 2109.33 1788.97C2109.26 1789.53 2109.29 1790.1 2109.44 1790.64C2109.59 1791.19 2109.84 1791.7 2110.18 1792.14L2246.06 1966.65C2246.46 1967.16 2246.96 1967.57 2247.54 1967.85C2248.12 1968.14 2248.75 1968.28 2249.39 1968.28C2250.41 1968.23 2251.37 1967.82 2252.11 1967.13H2251.84ZM2463.75 1920C2463.79 1918.87 2463.38 1917.78 2462.62 1916.95C2461.85 1916.12 2460.8 1915.63 2459.67 1915.58L2273.26 1906.12C2272.22 1906.2 2271.23 1906.65 2270.5 1907.4C2269.76 1908.15 2269.33 1909.14 2269.28 1910.19C2269.23 1911.24 2269.57 1912.27 2270.23 1913.09C2270.88 1913.91 2271.82 1914.45 2272.86 1914.63L2459.6 1924.08C2460.73 1924.11 2461.82 1923.71 2462.65 1922.94C2463.48 1922.18 2463.97 1921.12 2464.02 1920H2463.75ZM2375.82 2058.32C2375.89 2057.76 2375.84 2057.2 2375.68 2056.66C2375.52 2056.12 2375.26 2055.61 2374.91 2055.17C2374.55 2054.74 2374.11 2054.37 2373.61 2054.11C2373.12 2053.84 2372.57 2053.68 2372.01 2053.63L2229.2 2039.55C2228.64 2039.5 2228.08 2039.55 2227.55 2039.71C2227.02 2039.87 2226.52 2040.14 2226.09 2040.49C2225.66 2040.85 2225.3 2041.28 2225.04 2041.78C2224.78 2042.27 2224.62 2042.81 2224.57 2043.36C2224.48 2044.48 2224.82 2045.59 2225.53 2046.45C2226.25 2047.31 2227.27 2047.87 2228.38 2047.99L2371.19 2062.13H2371.6C2372.7 2062.21 2373.78 2061.85 2374.62 2061.14C2375.46 2060.43 2375.99 2059.42 2376.09 2058.32H2375.82ZM2196.62 2132.04C2197.57 2131.42 2198.22 2130.45 2198.45 2129.34C2198.68 2128.23 2198.46 2127.07 2197.85 2126.13L2127.25 2019.42C2126.61 2018.5 2125.63 2017.87 2124.53 2017.66C2123.43 2017.44 2122.28 2017.66 2121.34 2018.27C2120.39 2018.89 2119.73 2019.86 2119.5 2020.97C2119.28 2022.08 2119.49 2023.24 2120.11 2024.18L2190.7 2130.89C2191.11 2131.47 2191.65 2131.95 2192.27 2132.28C2192.9 2132.61 2193.6 2132.79 2194.31 2132.79C2195.23 2132.84 2196.14 2132.58 2196.89 2132.04H2196.62ZM2358.61 2167.75C2358.6 2166.63 2358.15 2165.56 2357.36 2164.76C2356.58 2163.96 2355.52 2163.5 2354.4 2163.46L2186.49 2161.9C2185.37 2161.9 2184.3 2162.34 2183.51 2163.13C2182.72 2163.92 2182.27 2165 2182.27 2166.11C2182.25 2166.68 2182.35 2167.24 2182.55 2167.76C2182.76 2168.28 2183.07 2168.76 2183.46 2169.16C2183.86 2169.56 2184.33 2169.88 2184.85 2170.09C2185.37 2170.3 2185.93 2170.41 2186.49 2170.4L2354.4 2171.96C2354.97 2171.99 2355.54 2171.9 2356.08 2171.7C2356.62 2171.5 2357.12 2171.2 2357.54 2170.81C2357.95 2170.41 2358.29 2169.94 2358.52 2169.41C2358.75 2168.89 2358.88 2168.32 2358.89 2167.75H2358.61ZM2133.31 2418.83C2133.65 2418.08 2162.28 2339.19 2248.37 2320.35C2249.48 2320.11 2250.45 2319.44 2251.06 2318.48C2251.67 2317.52 2251.88 2316.36 2251.64 2315.25C2251.36 2314.17 2250.68 2313.23 2249.73 2312.63C2248.78 2312.04 2247.64 2311.83 2246.54 2312.06C2155.75 2331.92 2125.62 2415.22 2125.28 2416.04C2124.93 2417.11 2125.01 2418.28 2125.51 2419.3C2126 2420.31 2126.87 2421.1 2127.93 2421.48H2129.29C2130.2 2421.56 2131.1 2421.34 2131.88 2420.86C2132.65 2420.39 2133.25 2419.67 2133.58 2418.83H2133.31Z" fill="#047857"/>
<path opacity="0.2" d="M2355.89 1745.56L2339.37 1470.61ZM2303.6 1836.28L2199.14 1599.82ZM2573.18 1767.53L2322.84 1803.43ZM2249.46 1963.73L2113.92 1789.83ZM2273.26 1910.41L2460.01 1919.79ZM2229.06 2043.77L2371.87 2057.92ZM2194.58 2128.51L2123.65 2021.8ZM2186.42 2166.18L2354.33 2167.75ZM2152.42 2481.19C2153.54 2481.1 2154.59 2480.58 2155.33 2479.72C2156.06 2478.87 2156.44 2477.76 2156.36 2476.63C2145.68 2316.27 2207.71 2053.63 2307.2 1838.05C2370.79 1700.27 2620.03 1429.46 2622.68 1426.74C2623.49 1425.94 2623.94 1424.85 2623.94 1423.72C2623.94 1422.58 2623.49 1421.49 2622.68 1420.69C2622.29 1420.3 2621.83 1419.98 2621.31 1419.77C2620.8 1419.56 2620.25 1419.45 2619.69 1419.45C2619.14 1419.45 2618.58 1419.56 2618.07 1419.77C2617.56 1419.98 2617.09 1420.3 2616.7 1420.69C2614.18 1423.41 2363.92 1695.23 2299.79 1834.24C2198.46 2055.06 2137.25 2312.94 2148.13 2477.18C2148.22 2478.26 2148.7 2479.27 2149.5 2480.02C2150.29 2480.76 2151.33 2481.18 2152.42 2481.19ZM2355.83 1749.78C2356.95 1749.71 2358 1749.2 2358.75 1748.36C2359.5 1747.52 2359.89 1746.41 2359.84 1745.29L2343.58 1470.2C2343.56 1469.64 2343.42 1469.09 2343.18 1468.58C2342.94 1468.08 2342.6 1467.63 2342.18 1467.25C2341.76 1466.88 2341.28 1466.59 2340.75 1466.41C2340.22 1466.23 2339.65 1466.15 2339.1 1466.19C2337.97 1466.26 2336.92 1466.77 2336.17 1467.61C2335.42 1468.45 2335.03 1469.55 2335.08 1470.68L2351.61 1745.63C2351.66 1746.71 2352.13 1747.73 2352.91 1748.48C2353.7 1749.23 2354.74 1749.64 2355.83 1749.64V1749.78ZM2305.09 1840.16C2306.11 1839.7 2306.91 1838.85 2307.32 1837.81C2307.72 1836.77 2307.71 1835.61 2307.27 1834.58L2202.74 1598.12C2202.29 1597.09 2201.45 1596.29 2200.4 1595.88C2199.36 1595.47 2198.19 1595.49 2197.17 1595.94C2196.14 1596.4 2195.33 1597.24 2194.92 1598.28C2194.51 1599.33 2194.54 1600.49 2194.99 1601.52L2299.45 1837.98C2299.78 1838.74 2300.32 1839.39 2301 1839.85C2301.69 1840.3 2302.5 1840.55 2303.32 1840.57C2304.03 1840.6 2304.73 1840.46 2305.36 1840.16H2305.09ZM2323.18 1807.51L2573.38 1771.74C2573.98 1771.73 2574.58 1771.59 2575.12 1771.33C2575.67 1771.07 2576.16 1770.7 2576.55 1770.24C2576.94 1769.78 2577.23 1769.25 2577.4 1768.67C2577.57 1768.09 2577.62 1767.48 2577.54 1766.88C2577.45 1766.28 2577.25 1765.7 2576.93 1765.19C2576.61 1764.68 2576.18 1764.24 2575.68 1763.9C2575.18 1763.57 2574.61 1763.34 2574.01 1763.24C2573.42 1763.13 2572.81 1763.16 2572.22 1763.31L2322.03 1799.08C2320.91 1799.15 2319.86 1799.67 2319.12 1800.51C2318.38 1801.35 2318.01 1802.45 2318.08 1803.57C2318.15 1804.69 2318.67 1805.73 2319.51 1806.47C2320.35 1807.21 2321.45 1807.59 2322.57 1807.51H2323.18ZM2251.84 1967.13C2252.73 1966.43 2253.31 1965.41 2253.45 1964.29C2253.59 1963.17 2253.28 1962.04 2252.59 1961.14L2116.98 1786.91C2116.29 1786.01 2115.27 1785.42 2114.14 1785.27C2113.01 1785.12 2111.87 1785.43 2110.97 1786.13C2110.06 1786.82 2109.48 1787.84 2109.33 1788.97C2109.18 1790.1 2109.49 1791.24 2110.18 1792.14L2246.06 1966.65C2246.46 1967.16 2246.96 1967.57 2247.54 1967.85C2248.12 1968.14 2248.75 1968.28 2249.39 1968.28C2250.41 1968.23 2251.37 1967.82 2252.11 1967.13H2251.84ZM2463.75 1920C2463.79 1918.87 2463.38 1917.78 2462.62 1916.95C2461.85 1916.12 2460.8 1915.63 2459.67 1915.58L2273.26 1906.12C2272.22 1906.2 2271.23 1906.65 2270.5 1907.4C2269.76 1908.15 2269.33 1909.14 2269.28 1910.19C2269.23 1911.24 2269.57 1912.27 2270.23 1913.09C2270.88 1913.91 2271.82 1914.45 2272.86 1914.63L2459.6 1924.08C2460.73 1924.11 2461.82 1923.71 2462.65 1922.94C2463.48 1922.18 2463.97 1921.12 2464.02 1920H2463.75ZM2375.82 2058.32C2375.89 2057.76 2375.84 2057.2 2375.68 2056.66C2375.52 2056.12 2375.26 2055.61 2374.91 2055.17C2374.55 2054.74 2374.11 2054.37 2373.61 2054.11C2373.12 2053.84 2372.57 2053.68 2372.01 2053.63L2229.2 2039.55C2228.64 2039.5 2228.08 2039.55 2227.55 2039.71C2227.02 2039.87 2226.52 2040.14 2226.09 2040.49C2225.66 2040.85 2225.3 2041.28 2225.04 2041.78C2224.78 2042.27 2224.62 2042.81 2224.57 2043.36C2224.48 2044.48 2224.82 2045.59 2225.53 2046.45C2226.25 2047.31 2227.27 2047.87 2228.38 2047.99L2371.19 2062.13H2371.6C2372.7 2062.21 2373.78 2061.85 2374.62 2061.14C2375.46 2060.43 2375.99 2059.42 2376.09 2058.32H2375.82ZM2196.62 2132.04C2197.57 2131.42 2198.22 2130.45 2198.45 2129.34C2198.68 2128.23 2198.46 2127.07 2197.85 2126.13L2127.25 2019.42C2126.61 2018.5 2125.63 2017.87 2124.53 2017.66C2123.43 2017.44 2122.28 2017.66 2121.34 2018.27C2120.39 2018.89 2119.73 2019.86 2119.5 2020.97C2119.28 2022.08 2119.49 2023.24 2120.11 2024.18L2190.7 2130.89C2191.11 2131.47 2191.65 2131.95 2192.27 2132.28C2192.9 2132.61 2193.6 2132.79 2194.31 2132.79C2195.23 2132.84 2196.14 2132.58 2196.89 2132.04H2196.62ZM2358.61 2167.75C2358.6 2166.63 2358.15 2165.56 2357.36 2164.76C2356.58 2163.96 2355.52 2163.5 2354.4 2163.46L2186.49 2161.9C2185.37 2161.9 2184.3 2162.34 2183.51 2163.13C2182.72 2163.92 2182.27 2165 2182.27 2166.11C2182.25 2166.68 2182.35 2167.24 2182.55 2167.76C2182.76 2168.28 2183.07 2168.76 2183.46 2169.16C2183.86 2169.56 2184.33 2169.88 2184.85 2170.09C2185.37 2170.3 2185.93 2170.41 2186.49 2170.4L2354.4 2171.96C2354.97 2171.99 2355.54 2171.9 2356.08 2171.7C2356.62 2171.5 2357.12 2171.2 2357.54 2170.81C2357.95 2170.41 2358.29 2169.94 2358.52 2169.41C2358.75 2168.89 2358.88 2168.32 2358.89 2167.75H2358.61ZM2133.31 2418.83C2133.65 2418.08 2162.28 2339.19 2248.37 2320.35C2249.48 2320.11 2250.45 2319.44 2251.06 2318.48C2251.67 2317.52 2251.88 2316.36 2251.64 2315.25C2251.36 2314.17 2250.68 2313.23 2249.73 2312.63C2248.78 2312.04 2247.64 2311.83 2246.54 2312.06C2155.75 2331.92 2125.62 2415.22 2125.28 2416.04C2124.93 2417.11 2125.01 2418.28 2125.51 2419.3C2126 2420.31 2126.87 2421.1 2127.93 2421.48H2129.29C2130.2 2421.56 2131.1 2421.34 2131.88 2420.86C2132.65 2420.39 2133.25 2419.67 2133.58 2418.83H2133.31ZM2152.42 2481.19C2153.54 2481.1 2154.59 2480.58 2155.33 2479.72C2156.06 2478.87 2156.44 2477.76 2156.36 2476.63C2145.68 2316.27 2207.71 2053.63 2307.2 1838.05C2370.79 1700.27 2620.03 1429.46 2622.68 1426.74C2623.49 1425.94 2623.94 1424.85 2623.94 1423.72C2623.94 1422.58 2623.49 1421.49 2622.68 1420.69C2622.29 1420.3 2621.83 1419.98 2621.31 1419.77C2620.8 1419.56 2620.25 1419.45 2619.69 1419.45C2619.14 1419.45 2618.58 1419.56 2618.07 1419.77C2617.56 1419.98 2617.09 1420.3 2616.7 1420.69C2614.18 1423.41 2363.92 1695.23 2299.79 1834.24C2198.46 2055.06 2137.25 2312.94 2148.13 2477.18C2148.22 2478.26 2148.7 2479.27 2149.5 2480.02C2150.29 2480.76 2151.33 2481.18 2152.42 2481.19ZM2355.83 1749.78C2356.95 1749.71 2358 1749.2 2358.75 1748.36C2359.5 1747.52 2359.89 1746.41 2359.84 1745.29L2343.58 1470.2C2343.56 1469.64 2343.42 1469.09 2343.18 1468.58C2342.94 1468.08 2342.6 1467.63 2342.18 1467.25C2341.76 1466.88 2341.28 1466.59 2340.75 1466.41C2340.22 1466.23 2339.65 1466.15 2339.1 1466.19C2337.97 1466.26 2336.92 1466.77 2336.17 1467.61C2335.42 1468.45 2335.03 1469.55 2335.08 1470.68L2351.61 1745.63C2351.66 1746.71 2352.13 1747.73 2352.91 1748.48C2353.7 1749.23 2354.74 1749.64 2355.83 1749.64V1749.78ZM2305.09 1840.16C2306.11 1839.7 2306.91 1838.85 2307.32 1837.81C2307.72 1836.77 2307.71 1835.61 2307.27 1834.58L2202.74 1598.12C2202.29 1597.09 2201.45 1596.29 2200.4 1595.88C2199.36 1595.47 2198.19 1595.49 2197.17 1595.94C2196.14 1596.4 2195.33 1597.24 2194.92 1598.28C2194.51 1599.33 2194.54 1600.49 2194.99 1601.52L2299.45 1837.98C2299.78 1838.74 2300.32 1839.39 2301 1839.85C2301.69 1840.3 2302.5 1840.55 2303.32 1840.57C2304.03 1840.6 2304.73 1840.46 2305.36 1840.16H2305.09ZM2323.18 1807.51L2573.38 1771.74C2573.98 1771.73 2574.58 1771.59 2575.12 1771.33C2575.67 1771.07 2576.16 1770.7 2576.55 1770.24C2576.94 1769.78 2577.23 1769.25 2577.4 1768.67C2577.57 1768.09 2577.62 1767.48 2577.54 1766.88C2577.45 1766.28 2577.25 1765.7 2576.93 1765.19C2576.61 1764.68 2576.18 1764.24 2575.68 1763.9C2575.18 1763.57 2574.61 1763.34 2574.01 1763.24C2573.42 1763.13 2572.81 1763.16 2572.22 1763.31L2322.03 1799.08C2320.91 1799.15 2319.86 1799.67 2319.12 1800.51C2318.38 1801.35 2318.01 1802.45 2318.08 1803.57C2318.15 1804.69 2318.67 1805.73 2319.51 1806.47C2320.35 1807.21 2321.45 1807.59 2322.57 1807.51H2323.18ZM2251.84 1967.13C2252.73 1966.43 2253.31 1965.41 2253.45 1964.29C2253.59 1963.17 2253.28 1962.04 2252.59 1961.14L2116.98 1786.91C2116.64 1786.46 2116.21 1786.09 2115.72 1785.81C2115.24 1785.53 2114.7 1785.34 2114.14 1785.27C2113.58 1785.2 2113.01 1785.24 2112.47 1785.38C2111.92 1785.53 2111.41 1785.78 2110.97 1786.13C2110.52 1786.47 2110.15 1786.9 2109.86 1787.39C2109.58 1787.88 2109.4 1788.41 2109.33 1788.97C2109.26 1789.53 2109.29 1790.1 2109.44 1790.64C2109.59 1791.19 2109.84 1791.7 2110.18 1792.14L2246.06 1966.65C2246.46 1967.16 2246.96 1967.57 2247.54 1967.85C2248.12 1968.14 2248.75 1968.28 2249.39 1968.28C2250.41 1968.23 2251.37 1967.82 2252.11 1967.13H2251.84ZM2463.75 1920C2463.79 1918.87 2463.38 1917.78 2462.62 1916.95C2461.85 1916.12 2460.8 1915.63 2459.67 1915.58L2273.26 1906.12C2272.22 1906.2 2271.23 1906.65 2270.5 1907.4C2269.76 1908.15 2269.33 1909.14 2269.28 1910.19C2269.23 1911.24 2269.57 1912.27 2270.23 1913.09C2270.88 1913.91 2271.82 1914.45 2272.86 1914.63L2459.6 1924.08C2460.73 1924.11 2461.82 1923.71 2462.65 1922.94C2463.48 1922.18 2463.97 1921.12 2464.02 1920H2463.75ZM2375.82 2058.32C2375.89 2057.76 2375.84 2057.2 2375.68 2056.66C2375.52 2056.12 2375.26 2055.61 2374.91 2055.17C2374.55 2054.74 2374.11 2054.37 2373.61 2054.11C2373.12 2053.84 2372.57 2053.68 2372.01 2053.63L2229.2 2039.55C2228.64 2039.5 2228.08 2039.55 2227.55 2039.71C2227.02 2039.87 2226.52 2040.14 2226.09 2040.49C2225.66 2040.85 2225.3 2041.28 2225.04 2041.78C2224.78 2042.27 2224.62 2042.81 2224.57 2043.36C2224.48 2044.48 2224.82 2045.59 2225.53 2046.45C2226.25 2047.31 2227.27 2047.87 2228.38 2047.99L2371.19 2062.13H2371.6C2372.7 2062.21 2373.78 2061.85 2374.62 2061.14C2375.46 2060.43 2375.99 2059.42 2376.09 2058.32H2375.82ZM2196.62 2132.04C2197.57 2131.42 2198.22 2130.45 2198.45 2129.34C2198.68 2128.23 2198.46 2127.07 2197.85 2126.13L2127.25 2019.42C2126.61 2018.5 2125.63 2017.87 2124.53 2017.66C2123.43 2017.44 2122.28 2017.66 2121.34 2018.27C2120.39 2018.89 2119.73 2019.86 2119.5 2020.97C2119.28 2022.08 2119.49 2023.24 2120.11 2024.18L2190.7 2130.89C2191.11 2131.47 2191.65 2131.95 2192.27 2132.28C2192.9 2132.61 2193.6 2132.79 2194.31 2132.79C2195.23 2132.84 2196.14 2132.58 2196.89 2132.04H2196.62ZM2358.61 2167.75C2358.6 2166.63 2358.15 2165.56 2357.36 2164.76C2356.58 2163.96 2355.52 2163.5 2354.4 2163.46L2186.49 2161.9C2185.37 2161.9 2184.3 2162.34 2183.51 2163.13C2182.72 2163.92 2182.27 2165 2182.27 2166.11C2182.25 2166.68 2182.35 2167.24 2182.55 2167.76C2182.76 2168.28 2183.07 2168.76 2183.46 2169.16C2183.86 2169.56 2184.33 2169.88 2184.85 2170.09C2185.37 2170.3 2185.93 2170.41 2186.49 2170.4L2354.4 2171.96C2354.97 2171.99 2355.54 2171.9 2356.08 2171.7C2356.62 2171.5 2357.12 2171.2 2357.54 2170.81C2357.95 2170.41 2358.29 2169.94 2358.52 2169.41C2358.75 2168.89 2358.88 2168.32 2358.89 2167.75H2358.61ZM2133.31 2418.83C2133.65 2418.08 2162.28 2339.19 2248.37 2320.35C2249.48 2320.11 2250.45 2319.44 2251.06 2318.48C2251.67 2317.52 2251.88 2316.36 2251.64 2315.25C2251.36 2314.17 2250.68 2313.23 2249.73 2312.63C2248.78 2312.04 2247.64 2311.83 2246.54 2312.06C2155.75 2331.92 2125.62 2415.22 2125.28 2416.04C2124.93 2417.11 2125.01 2418.28 2125.51 2419.3C2126 2420.31 2126.87 2421.1 2127.93 2421.48H2129.29C2130.2 2421.56 2131.1 2421.34 2131.88 2420.86C2132.65 2420.39 2133.25 2419.67 2133.58 2418.83H2133.31Z" fill="black"/>
<path d="M2263.47 2361.29H2070.95V2401.15H2087.74L2122.49 2618.56H2211.92L2246.68 2401.15H2263.47V2361.29Z" fill="#047857"/>
<path opacity="0.3" d="M2263.47 2361.29H2070.95V2401.15H2087.74L2122.49 2618.56H2211.92L2246.68 2401.15H2263.47V2361.29Z" fill="white"/>
<path d="M530.113 1156.21L306.167 1083.1L286.241 1030.47L240.744 1029.04L158.184 1013.4L168.113 1030.47L272.027 1105.89L297.666 1118.67L531.881 1241.02L530.113 1156.21Z" fill="white" stroke="#263238" stroke-width="1.00396" stroke-miterlimit="10"/>
<path d="M286.241 1030.47L264.886 1017.68L222.246 1033.32L229.319 1041.82L286.241 1030.47Z" fill="white" stroke="#263238" stroke-width="1.00396" stroke-linejoin="round"/>
<path d="M530.113 1156.21L306.167 1083.1L286.241 1030.47L240.744 1029.04L158.184 1013.4L168.113 1030.47L272.027 1105.89L297.666 1118.67L531.881 1241.02L530.113 1156.21Z" fill="white"/>
<mask id="mask0_153_391" style="mask-type:luminance" maskUnits="userSpaceOnUse" x="158" y="1013" width="374" height="229">
<path d="M530.113 1156.21L306.167 1083.1L286.241 1030.47L240.744 1029.04L158.184 1013.4L168.113 1030.47L272.027 1105.89L297.666 1118.67L531.881 1241.02L530.113 1156.21Z" fill="white"/>
</mask>
<g mask="url(#mask0_153_391)">
<path opacity="0.5" d="M530.113 1156.21L306.167 1083.1L286.241 1030.47L240.744 1029.04L158.184 1013.4L168.113 1030.47L272.027 1105.89L297.666 1118.67L531.881 1241.02L530.113 1156.21Z" fill="#047857" stroke="#263238" stroke-width="1.00396" stroke-miterlimit="10"/>
</g>
<path d="M530.113 1156.21L306.167 1083.1L286.241 1030.47L240.744 1029.04L158.184 1013.4L168.113 1030.47L272.027 1105.89L297.666 1118.67L531.881 1241.02L530.113 1156.21Z" stroke="#263238" stroke-width="1.00396" stroke-miterlimit="10"/>
<path d="M286.241 1030.47L264.886 1017.68L222.246 1033.32L229.319 1041.82L286.241 1030.47Z" fill="white"/>
<mask id="mask1_153_391" style="mask-type:luminance" maskUnits="userSpaceOnUse" x="222" y="1017" width="65" height="25">
<path d="M286.241 1030.47L264.886 1017.68L222.246 1033.32L229.319 1041.82L286.241 1030.47Z" fill="white"/>
</mask>
<g mask="url(#mask1_153_391)">
<path opacity="0.5" d="M286.241 1030.47L264.886 1017.68L222.246 1033.32L229.319 1041.82L286.241 1030.47Z" fill="#047857" stroke="#263238" stroke-width="1.00396" stroke-linejoin="round"/>
</g>
<path d="M286.241 1030.47L264.886 1017.68L222.246 1033.32L229.319 1041.82L286.241 1030.47Z" stroke="#263238" stroke-width="1.00396" stroke-linejoin="round"/>
<path d="M577.65 681.728C577.65 681.728 574.182 712.331 582.819 731.985C591.456 751.639 639.401 818.218 639.401 818.218L549.904 889.965C549.904 889.965 512.772 815.158 505.699 803.052C498.626 790.947 490.126 738.854 513.18 701.518C536.234 664.182 569.422 654.117 577.65 681.728Z" fill="white"/>
<mask id="mask2_153_391" style="mask-type:luminance" maskUnits="userSpaceOnUse" x="498" y="665" width="142" height="225">
<path d="M577.65 681.728C577.65 681.728 574.182 712.331 582.819 731.985C591.456 751.639 639.401 818.218 639.401 818.218L549.904 889.965C549.904 889.965 512.772 815.158 505.699 803.052C498.626 790.947 490.126 738.854 513.18 701.518C536.234 664.182 569.422 654.117 577.65 681.728Z" fill="white"/>
</mask>
<g mask="url(#mask2_153_391)">
<g style="mix-blend-mode:multiply" opacity="0.5">
<path d="M531.677 780.066L570.509 860.586L549.835 890.033L510.799 820.326L531.677 780.066Z" fill="#047857"/>
</g>
</g>
<path d="M577.65 681.728C577.65 681.728 574.182 712.331 582.819 731.985C591.456 751.639 639.401 818.218 639.401 818.218L549.904 889.965C549.904 889.965 512.772 815.158 505.699 803.052C498.626 790.947 490.126 738.854 513.18 701.518C536.234 664.182 569.422 654.117 577.65 681.728Z" stroke="#263238" stroke-width="1.00396" stroke-miterlimit="10"/>
<path d="M605.397 625.69C599.889 591.687 560.921 522.524 499.102 525.176C458.978 526.944 440.208 535.037 422.799 544.898C408.607 553.259 395.38 563.157 383.355 574.413C353.16 610.661 342.551 620.59 348.399 648.336C347.919 659.404 349.653 670.455 353.5 680.844C362.749 705.53 369.073 721.648 377.098 733.413C374.65 744.906 368.257 775.237 367.917 782.174C367.577 789.111 388.319 784.282 398.792 781.63C418.242 825.154 453.878 855.35 464.963 858.818C484.277 864.87 514.812 833.111 530.998 808.493C547.183 783.874 534.942 756.195 535.01 745.178C535.078 734.161 571.394 709.951 584.859 702.266C598.324 694.581 610.838 659.626 605.397 625.69Z" fill="white"/>
<mask id="mask3_153_391" style="mask-type:luminance" maskUnits="userSpaceOnUse" x="346" y="525" width="261" height="335">
<path d="M605.397 625.69C599.889 591.687 560.921 522.524 499.102 525.176C458.978 526.944 440.208 535.037 422.799 544.898C408.607 553.259 395.38 563.157 383.355 574.413C353.16 610.661 342.551 620.59 348.399 648.336C347.919 659.404 349.653 670.455 353.5 680.844C362.749 705.53 369.073 721.648 377.098 733.413C374.65 744.906 368.257 775.237 367.917 782.174C367.577 789.111 388.319 784.282 398.792 781.63C418.242 825.154 453.878 855.35 464.963 858.818C484.277 864.87 514.812 833.111 530.998 808.493C547.183 783.874 534.942 756.195 535.01 745.178C535.078 734.161 571.394 709.951 584.859 702.266C598.324 694.581 610.838 659.626 605.397 625.69Z" fill="white"/>
</mask>
<g mask="url(#mask3_153_391)">
<g style="mix-blend-mode:multiply" opacity="0.5">
<path d="M348.671 648.336C348.191 659.404 349.925 670.455 353.771 680.844C363.02 705.53 369.345 721.648 377.37 733.413C374.922 744.906 368.529 775.237 368.189 782.174C367.849 789.111 388.591 784.282 399.064 781.63C418.514 825.154 454.15 855.349 465.235 858.818C484.549 864.87 515.084 833.111 531.269 808.493C535.313 802.346 537.938 795.377 538.954 788.091C538.07 784.894 537.458 782.922 537.458 782.922C537.458 782.922 528.345 817.946 510.255 813.389C492.166 808.833 464.487 772.585 449.049 760.072C433.612 747.559 439.936 731.101 436.876 712.467C433.816 693.833 388.115 677.443 385.055 666.766C381.994 656.089 392.671 611.885 392.671 611.885C392.671 611.885 410.013 588.762 406.273 598.283C403.629 606.539 402.67 615.241 403.453 623.874C404.236 632.507 406.744 640.895 410.829 648.54C413.696 654.573 418.244 659.65 423.926 663.16C429.608 666.671 436.183 668.466 442.86 668.33L459.454 586.11L424.431 557.139L383.626 574.141C353.159 610.661 342.754 620.59 348.671 648.336Z" fill="#047857"/>
</g>
</g>
<path d="M605.397 625.69C599.889 591.687 560.921 522.524 499.102 525.176C458.978 526.944 440.208 535.037 422.799 544.898C408.607 553.259 395.38 563.157 383.355 574.413C353.16 610.661 342.551 620.59 348.399 648.336C347.919 659.404 349.653 670.455 353.5 680.844C362.749 705.53 369.073 721.648 377.098 733.413C374.65 744.906 368.257 775.237 367.917 782.174C367.577 789.111 388.319 784.282 398.792 781.63C418.242 825.154 453.878 855.35 464.963 858.818C484.277 864.87 514.812 833.111 530.998 808.493C547.183 783.874 534.942 756.195 535.01 745.178C535.078 734.161 571.394 709.951 584.859 702.266C598.324 694.581 610.838 659.626 605.397 625.69Z" stroke="#263238" stroke-miterlimit="10"/>
<path d="M385.531 712.875L392.332 732.325C392.332 732.325 406.953 737.154 424.771 717.704" stroke="#263238" stroke-miterlimit="10" stroke-linecap="round"/>
<path d="M435.787 803.732C435.787 803.732 451.973 802.1 458.501 779.386" stroke="#263238" stroke-miterlimit="10" stroke-linecap="round"/>
<path d="M374.174 696.621C374.174 696.621 379.002 682 408.177 682" stroke="#263238" stroke-miterlimit="10" stroke-linecap="round"/>
<path d="M523.72 498.109C502.52 495.061 481.142 493.425 459.725 493.213C459.725 493.213 395.663 456.285 334.117 495.661C272.57 535.037 302.153 603.996 302.153 621.202C302.153 638.408 282.431 638.476 294.741 660.646C307.05 682.816 348.67 670.575 348.67 670.575C349.11 662.213 351.32 654.04 355.153 646.595C358.987 639.151 364.357 632.605 370.908 627.39C393.079 610.185 410.76 606.444 418.105 611.409C418.105 611.409 413.209 648.337 420.553 663.094C420.553 663.094 445.172 675.403 452.585 675.403C459.997 675.403 447.756 685.808 472.307 695.057C476.779 696.664 481.564 697.211 486.284 696.656C491.004 696.102 495.531 694.46 499.509 691.861C503.114 676.899 511.003 654.389 525.692 659.626C547.25 667.31 566.904 720.356 537.729 738.446C572.821 744.838 615.325 682.748 617.841 626.166C620.358 569.584 560.171 504.502 523.72 498.109Z" fill="#263238"/>
<path d="M419.193 587.13C419.193 587.13 437.283 577.405 459.453 598.215C481.624 619.026 524.74 646.84 581.866 631.539" stroke="white" stroke-width="0.5" stroke-linecap="round" stroke-linejoin="round"/>
<path d="M416.678 570.469C416.678 570.469 429.123 551.019 449.933 551.019C470.743 551.019 519.368 580.194 558.2 580.194" stroke="white" stroke-width="0.5" stroke-linecap="round" stroke-linejoin="round"/>
<path d="M402.533 607.94C402.533 607.94 378.935 578.833 356.765 602.432C334.594 626.03 348.672 648.336 348.672 648.336" stroke="white" stroke-width="0.5" stroke-linecap="round" stroke-linejoin="round"/>
<path d="M308.207 627.39C321.73 615.195 330.137 598.333 331.737 580.194C334.526 549.658 376.214 523.272 402.533 548.298" stroke="white" stroke-width="0.5" stroke-linecap="round" stroke-linejoin="round"/>
<path d="M351.188 516.335C351.188 516.335 392.876 476.075 427.559 527.42" stroke="white" stroke-width="0.5" stroke-linecap="round" stroke-linejoin="round"/>
<path d="M690.474 2495.81C690.474 2495.81 716.112 2535.66 713.256 2561.3L710.468 2586.94C710.468 2586.94 616.414 2612.72 596.488 2612.72C576.562 2612.72 471.083 2602.72 471.083 2602.72L466.527 2584.63C466.208 2583.29 466.358 2581.89 466.953 2580.65C467.547 2579.41 468.549 2578.42 469.791 2577.83L563.845 2533.96L593.496 2501.52L690.474 2495.81Z" fill="white" stroke="#263238" stroke-width="1.00396" stroke-miterlimit="10"/>
<path d="M610.769 2592.65C636.271 2594.63 684.692 2579.05 712.779 2569.12L710.807 2586.94C710.807 2586.94 616.413 2612.72 596.487 2612.72C576.561 2612.72 471.083 2602.72 471.083 2602.72L467.818 2589.8C484.684 2589.87 577.037 2590.07 610.769 2592.65Z" fill="#047857" stroke="#263238" stroke-width="1.00396" stroke-miterlimit="10"/>
<path d="M563.981 2533.96L427.084 2593.54C427.084 2593.54 415.386 2622.85 427.084 2628.7C438.781 2634.55 693.807 2628.7 693.807 2628.7C693.807 2628.7 711.42 2582.38 683.606 2551.31C655.791 2520.23 563.981 2533.96 563.981 2533.96Z" fill="white" stroke="#263238" stroke-width="1.00396" stroke-miterlimit="10"/>
<path d="M693.805 2628.7C693.805 2628.7 438.78 2634.55 427.082 2628.7C421.438 2625.84 421.234 2617.61 422.526 2609.79H698.294C697.393 2616.22 695.89 2622.55 693.805 2628.7Z" fill="#047857" stroke="#263238" stroke-width="1.00396" stroke-miterlimit="10"/>
<path d="M499.238 1498.83C499.238 1498.83 463.467 1657.36 449.933 1756.51C436.4 1855.66 428.443 2054.31 431.299 2077.09C434.156 2099.88 576.562 2481.6 576.562 2481.6L590.775 2515.6L690.473 2495.68C690.473 2495.68 644.909 2350.41 627.839 2270.64C610.769 2190.87 573.434 2059.82 573.434 2037.04C573.434 2014.26 661.843 1579.15 668.167 1550.58C674.492 1522.02 703.191 1478.16 703.191 1478.16L512.295 1474.28L499.238 1498.83Z" fill="#047857" stroke="#263238" stroke-width="1.00396" stroke-miterlimit="10"/>
<path d="M499.237 1498.83C499.237 1498.83 478.291 1643.62 486.928 1744.27C495.565 1844.92 514.131 2059.21 514.131 2091.1C514.131 2123 565.612 2313.49 568.536 2373.33C573.093 2459.77 566.7 2502.54 566.7 2502.54L563.64 2533.9C563.64 2533.9 623.69 2542.46 636.815 2546.21C651.975 2550.11 667.619 2551.81 683.264 2551.24C683.264 2551.24 705.094 2455.14 705.094 2373.26C705.094 2291.38 686.936 2122.86 677.891 2054.58C668.847 1986.3 697.341 1722.91 713.527 1673.74C729.713 1624.58 765.076 1520.46 741.274 1467.28C717.471 1414.09 499.237 1498.83 499.237 1498.83Z" fill="#047857" stroke="#263238" stroke-width="1.00396" stroke-miterlimit="10"/>
<path d="M767.729 1440.62L765.553 1505.36C765.553 1505.36 726.789 1513.04 674.559 1522.09C631.443 1529.57 523.176 1520.12 486.724 1516.58C483.403 1516.29 480.331 1514.69 478.179 1512.14C476.027 1509.6 474.967 1506.3 475.231 1502.98L478.767 1444.49L767.729 1440.62Z" fill="#263238"/>
<path d="M616.21 795.231C616.21 795.231 555.004 861.402 531.95 902.546C508.895 943.691 499.783 1006.73 491.146 1056.38C482.509 1106.02 505.903 1222.59 499.307 1276.11L478.428 1444.7C478.428 1444.7 473.94 1456.12 488.969 1468.64C503.999 1481.15 577.378 1485.71 643.685 1489.04C667.896 1490.26 740.187 1474.69 752.02 1473.94C766.302 1473.06 766.778 1454.9 767.39 1440.62C770.246 1373.49 782.351 1194.57 790.308 1116.63C806.698 957.7 716.997 804.276 616.21 795.231Z" fill="white" stroke="#263238" stroke-width="1.00396" stroke-miterlimit="10"/>
<g style="mix-blend-mode:multiply">
<path d="M782.827 1207.01C785.547 1171.72 788.267 1139.69 790.648 1116.63C791.328 1109.83 791.736 1103.03 792.076 1096.23L629.471 1123.43L489.785 1075.83C489.8 1104.73 491.435 1133.61 494.682 1162.33L631.716 1200.69L782.827 1207.01Z" fill="#047857"/>
</g>
<g style="mix-blend-mode:multiply">
<path d="M610.157 801.896C600.908 812.165 582.546 833.043 565.068 855.213L668.303 960.148L702.306 946.547L610.157 801.896Z" fill="#047857"/>
</g>
<path d="M616.21 795.231C616.21 795.231 555.004 861.402 531.95 902.546C525.113 915.05 519.576 928.222 515.424 941.854L638.516 799.652C631.244 797.449 623.773 795.968 616.21 795.231Z" fill="#263238"/>
<g style="mix-blend-mode:multiply">
<path d="M495.906 1029.58L629.472 1073.52L791.668 1054.88C789.126 1014.48 780.149 974.737 765.077 937.162L634.3 989.595L517.396 936.618C507.837 967.003 500.652 998.085 495.906 1029.58Z" fill="#047857"/>
</g>
<g style="mix-blend-mode:multiply">
<path d="M725.838 1373.49C658.094 1384.87 588.584 1379.19 523.585 1356.97L491.01 1345.82L480.877 1427.42L518.009 1437.83C588.598 1457.56 662.375 1463.25 735.155 1454.56L765.146 1450.95C766.707 1447.65 767.585 1444.06 767.73 1440.41C768.546 1422.26 769.974 1395.87 771.81 1365.61L725.838 1373.49Z" fill="#047857"/>
</g>
<g style="mix-blend-mode:multiply">
<path d="M743.996 1262.37C676.249 1273.79 606.722 1268.09 541.743 1245.78L500.259 1231.56C501.288 1246.38 501.083 1261.26 499.647 1276.04L494.818 1315.28L536.167 1326.84C606.728 1346.6 680.483 1352.31 753.245 1343.64L773.647 1341.19C775.347 1313.99 777.319 1285.02 779.427 1256.39L743.996 1262.37Z" fill="#047857"/>
</g>
<path d="M105.963 974.783L237.457 1080.51L243.125 1073.46L111.631 967.734L105.963 974.783Z" fill="#263238"/>
<path d="M679.524 868.611C679.524 868.611 727.741 901.458 728.829 979.054C729.305 1013.06 725.769 1044.82 717.948 1100.51C710.127 1156.21 661.57 1337.59 623.758 1359.62C585.947 1381.65 527.257 1340.03 527.257 1340.03L243.396 1151.59L174.777 1096.16L140.773 1031.96L151.451 1011.56L235.167 1075.76L190.078 1034.07L198.919 1022.85L215.241 1034.21L262.846 1052.03L273.251 1120.03L287.94 1130.1L559.492 1229.32C559.492 1229.32 556.092 1083.17 558.608 1055.22C561.124 1027.27 564.592 957.02 594.515 906.083" fill="white"/>
<mask id="mask4_153_391" style="mask-type:luminance" maskUnits="userSpaceOnUse" x="140" y="868" width="589" height="499">
<path d="M679.524 868.611C679.524 868.611 727.741 901.458 728.829 979.054C729.305 1013.06 725.769 1044.82 717.948 1100.51C710.127 1156.21 661.57 1337.59 623.758 1359.62C585.947 1381.65 527.257 1340.03 527.257 1340.03L243.396 1151.59L174.777 1096.16L140.773 1031.96L151.451 1011.56L235.167 1075.76L190.078 1034.07L198.919 1022.85L215.241 1034.21L262.846 1052.03L273.251 1120.03L287.94 1130.1L559.492 1229.32C559.492 1229.32 556.092 1083.17 558.608 1055.22C561.124 1027.27 564.592 957.02 594.515 906.083" fill="white"/>
</mask>
<g mask="url(#mask4_153_391)">
<g style="mix-blend-mode:multiply" opacity="0.5">
<path d="M557.589 1118.88C557.589 1169.34 559.289 1229.32 559.289 1229.32L288.009 1130.51L273.32 1120.44L262.915 1052.43L215.31 1034.62L199.056 1023.05L190.215 1034.28L235.168 1075.76L151.451 1011.56L141.318 1031.62L175.322 1095.82L243.941 1151.59L261.214 1163.08L636.272 1283.93L557.589 1118.88Z" fill="#047857"/>
</g>
</g>
<path d="M679.524 868.611C679.524 868.611 727.741 901.458 728.829 979.054C729.305 1013.06 725.769 1044.82 717.948 1100.51C710.127 1156.21 661.57 1337.59 623.758 1359.62C585.947 1381.65 527.257 1340.03 527.257 1340.03L243.396 1151.59L174.777 1096.16L140.773 1031.96L151.451 1011.56L235.167 1075.76L190.078 1034.07L198.919 1022.85L215.241 1034.21L262.846 1052.03L273.251 1120.03L287.94 1130.1L559.492 1229.32C559.492 1229.32 556.092 1083.17 558.608 1055.22C561.124 1027.27 564.592 957.02 594.515 906.083" stroke="#263238" stroke-width="1.00396" stroke-miterlimit="10"/>
<path d="M559.492 1229.32L663.135 1304.13L689.998 1256.52C689.998 1256.52 708.563 1241.9 711.284 1230.88C714.004 1219.87 710.536 1201.98 713.324 1190.96C716.112 1179.95 729.986 1169.61 731.278 1142.95C732.57 1116.29 731.278 1094.05 731.278 1094.05C731.278 1094.05 753.72 1001.77 751.272 961.644C748.824 921.52 710.128 850.589 679.116 849.025C648.105 847.461 607.777 852.153 576.494 899.486C545.211 946.819 551.604 1085.01 546.707 1093.65C541.811 1102.28 548.611 1144.92 548.611 1144.92C545.893 1146.95 543.638 1149.53 541.997 1152.5C540.355 1155.47 539.364 1158.75 539.09 1162.13C538.546 1173.21 550.515 1200.48 550.515 1200.48L559.492 1229.32Z" fill="white" stroke="#263238" stroke-width="1.00396" stroke-miterlimit="10"/>
<g style="mix-blend-mode:multiply">
<path d="M549.428 1058.15C549.641 1070.01 548.754 1081.87 546.776 1093.58C542.423 1101.33 547.388 1136.35 548.476 1143.49C606.77 1161.6 668.411 1166.25 728.762 1157.1C730.059 1152.37 730.834 1147.51 731.074 1142.61C732.435 1116.02 731.074 1093.71 731.074 1093.71C731.074 1093.71 733.047 1085.48 735.767 1072.97C673.265 1076.94 610.516 1071.95 549.428 1058.15Z" fill="#047857"/>
</g>
<g style="mix-blend-mode:multiply">
<path d="M572.278 907.035C562.553 926.553 557.113 955.864 553.984 985.583C615.722 1009.14 682.285 1017.25 747.872 1009.18C750.489 993.453 751.65 977.518 751.34 961.576C750.163 948.976 747.185 936.609 742.499 924.853C685.232 926.189 628.028 920.202 572.278 907.035Z" fill="#047857"/>
</g>
<path d="M550.516 1201.23L559.289 1229.32L662.931 1304.13L689.794 1256.52C689.794 1256.52 708.36 1241.9 711.08 1230.88C711.565 1228.97 711.861 1227.01 711.964 1225.04C657.347 1224.09 603.081 1216.09 550.516 1201.23Z" fill="#263238"/>
<path d="M625.527 2545.32C625.527 2545.32 627.839 2486.43 639.128 2400.33C650.417 2314.23 623.283 2191.96 618.726 2171.56C614.17 2151.15 621.039 2105.86 616.482 2089.95C611.926 2074.03 589.891 2006.16 602.881 1927.41C615.87 1848.66 626.411 1640.49 626.411 1640.49C626.411 1640.49 593.7 1613.9 584.111 1579.28C574.522 1544.67 581.866 1533.79 581.866 1533.79" stroke="#263238" stroke-width="1.00396" stroke-miterlimit="10"/>
<path d="M640.693 1536.98L628.111 1606.62" stroke="#263238" stroke-width="1.00396" stroke-miterlimit="10"/>
</svg>
