<svg width="2761" height="1766" viewBox="0 0 2761 1766" fill="none" xmlns="http://www.w3.org/2000/svg">
<path d="M823.61 503.345H284.66V134.669H823.61V503.345ZM288.916 499.089H819.354V138.924H288.916V499.089Z" fill="#EBEBEB"/>
<path d="M326.793 158.416C326.793 160.537 326.164 162.61 324.985 164.374C323.807 166.138 322.132 167.512 320.172 168.324C318.213 169.136 316.056 169.348 313.976 168.934C311.896 168.52 309.985 167.499 308.485 165.999C306.985 164.499 305.964 162.588 305.55 160.508C305.136 158.428 305.348 156.271 306.16 154.312C306.972 152.352 308.346 150.677 310.11 149.499C311.874 148.32 313.947 147.691 316.068 147.691C318.913 147.691 321.64 148.821 323.652 150.832C325.663 152.844 326.793 155.572 326.793 158.416Z" fill="#A6A6A6"/>
<path d="M370.584 158.416C370.584 160.537 369.955 162.61 368.776 164.374C367.598 166.138 365.923 167.512 363.963 168.324C362.004 169.136 359.847 169.348 357.767 168.934C355.687 168.52 353.776 167.499 352.276 165.999C350.776 164.499 349.755 162.588 349.341 160.508C348.927 158.428 349.139 156.271 349.951 154.312C350.763 152.352 352.137 150.677 353.901 149.499C355.665 148.32 357.738 147.691 359.859 147.691C362.704 147.691 365.431 148.821 367.443 150.832C369.454 152.844 370.584 155.572 370.584 158.416Z" fill="#EBEBEB"/>
<path d="M414.419 158.416C414.427 160.549 413.802 162.636 412.622 164.414C411.442 166.191 409.761 167.577 407.792 168.398C405.823 169.218 403.654 169.435 401.562 169.021C399.469 168.606 397.547 167.58 396.038 166.072C394.53 164.563 393.504 162.641 393.09 160.548C392.675 158.456 392.892 156.287 393.713 154.318C394.533 152.349 395.919 150.668 397.696 149.488C399.474 148.308 401.561 147.683 403.694 147.691C406.539 147.691 409.266 148.821 411.278 150.832C413.289 152.844 414.419 155.571 414.419 158.416Z" fill="#047857"/>
<path d="M821.481 177.269H286.787V181.525H821.481V177.269Z" fill="#EBEBEB"/>
<path d="M2586.81 1469.02H2582.56V933.56L2696.31 778.31V488.152H2700.57V779.671L2586.81 934.964V1469.02Z" fill="#EBEBEB"/>
<path d="M2698.44 490.45C2696.02 490.45 2693.64 489.73 2691.63 488.382C2689.61 487.033 2688.04 485.116 2687.11 482.874C2686.19 480.632 2685.95 478.165 2686.42 475.787C2686.9 473.408 2688.07 471.224 2689.79 469.512C2691.51 467.799 2693.7 466.635 2696.08 466.167C2698.46 465.699 2700.92 465.948 2703.16 466.882C2705.4 467.816 2707.31 469.394 2708.65 471.415C2710 473.436 2710.71 475.81 2710.7 478.236C2710.7 479.844 2710.38 481.435 2709.76 482.92C2709.15 484.405 2708.24 485.753 2707.11 486.888C2705.97 488.022 2704.62 488.921 2703.13 489.533C2701.64 490.144 2700.05 490.456 2698.44 490.45ZM2698.44 470.235C2696.86 470.235 2695.31 470.704 2694 471.584C2692.68 472.463 2691.66 473.712 2691.05 475.174C2690.44 476.636 2690.29 478.245 2690.59 479.797C2690.9 481.349 2691.67 482.775 2692.78 483.893C2693.9 485.012 2695.33 485.774 2696.88 486.083C2698.43 486.392 2700.04 486.233 2701.5 485.628C2702.97 485.022 2704.22 483.997 2705.09 482.681C2705.97 481.365 2706.44 479.818 2706.44 478.236C2706.44 476.114 2705.6 474.079 2704.1 472.579C2702.6 471.078 2700.56 470.235 2698.44 470.235Z" fill="#EBEBEB"/>
<path d="M2616.13 1469.02H2611.88V952.327L2612.26 951.732L2725.64 797.035V594.546H2729.89V798.439L2616.13 953.689V1469.02Z" fill="#EBEBEB"/>
<path d="M2727.76 596.844C2725.34 596.852 2722.96 596.14 2720.94 594.796C2718.92 593.453 2717.34 591.539 2716.41 589.297C2715.47 587.056 2715.23 584.588 2715.7 582.207C2716.17 579.825 2717.34 577.637 2719.05 575.921C2720.77 574.204 2722.96 573.036 2725.34 572.564C2727.72 572.093 2730.19 572.339 2732.43 573.272C2734.67 574.205 2736.59 575.783 2737.93 577.805C2739.27 579.827 2739.99 582.202 2739.98 584.63C2739.97 587.866 2738.68 590.966 2736.39 593.254C2734.1 595.542 2731 596.833 2727.76 596.844ZM2727.76 576.629C2726.18 576.621 2724.63 577.083 2723.31 577.957C2721.99 578.831 2720.95 580.077 2720.34 581.539C2719.73 583 2719.57 584.61 2719.87 586.165C2720.17 587.719 2720.93 589.149 2722.05 590.272C2723.17 591.395 2724.59 592.162 2726.14 592.474C2727.7 592.786 2729.31 592.63 2730.77 592.026C2732.24 591.421 2733.49 590.396 2734.37 589.079C2735.25 587.763 2735.72 586.214 2735.72 584.63C2735.72 582.515 2734.89 580.487 2733.39 578.987C2731.9 577.488 2729.88 576.64 2727.76 576.629Z" fill="#EBEBEB"/>
<path d="M2558.6 760.818H2554.34V1469.02H2558.6V760.818Z" fill="#EBEBEB"/>
<path d="M2556.47 762.946C2554.04 762.955 2551.67 762.242 2549.64 760.898C2547.62 759.555 2546.04 757.641 2545.11 755.4C2544.18 753.158 2543.93 750.691 2544.4 748.309C2544.87 745.928 2546.04 743.74 2547.76 742.023C2549.48 740.306 2551.66 739.138 2554.05 738.667C2556.43 738.195 2558.9 738.441 2561.14 739.374C2563.38 740.307 2565.29 741.885 2566.64 743.907C2567.98 745.929 2568.69 748.304 2568.68 750.732C2568.67 753.968 2567.38 757.068 2565.09 759.356C2562.81 761.645 2559.7 762.935 2556.47 762.946ZM2556.47 742.731C2554.88 742.723 2553.33 743.185 2552.01 744.059C2550.69 744.933 2549.66 746.18 2549.05 747.641C2548.43 749.102 2548.27 750.712 2548.57 752.267C2548.88 753.822 2549.64 755.251 2550.75 756.374C2551.87 757.498 2553.3 758.264 2554.85 758.576C2556.4 758.888 2558.01 758.732 2559.48 758.128C2560.94 757.524 2562.19 756.498 2563.08 755.182C2563.96 753.865 2564.43 752.316 2564.43 750.732C2564.43 748.618 2563.59 746.589 2562.1 745.09C2560.61 743.591 2558.58 742.743 2556.47 742.731Z" fill="#EBEBEB"/>
<path d="M2531.4 1469.02H2527.15V1109.62L2449.95 963.946V702.302H2454.2V962.924L2531.4 1108.6V1469.02Z" fill="#EBEBEB"/>
<path d="M2452.03 704.43C2449.61 704.43 2447.24 703.711 2445.22 702.364C2443.21 701.017 2441.64 699.103 2440.71 696.863C2439.78 694.624 2439.54 692.159 2440.01 689.782C2440.49 687.404 2441.65 685.22 2443.37 683.506C2445.08 681.792 2447.27 680.625 2449.64 680.152C2452.02 679.679 2454.48 679.922 2456.72 680.849C2458.96 681.777 2460.88 683.348 2462.22 685.364C2463.57 687.379 2464.29 689.749 2464.29 692.173C2464.29 695.424 2463 698.541 2460.7 700.84C2458.4 703.138 2455.28 704.43 2452.03 704.43ZM2452.03 684.215C2450.45 684.215 2448.9 684.685 2447.58 685.566C2446.27 686.447 2445.24 687.699 2444.64 689.164C2444.03 690.628 2443.88 692.239 2444.19 693.792C2444.5 695.345 2445.27 696.771 2446.39 697.888C2447.52 699.005 2448.94 699.764 2450.5 700.068C2452.05 700.372 2453.66 700.207 2455.13 699.595C2456.59 698.983 2457.83 697.951 2458.71 696.63C2459.58 695.308 2460.04 693.757 2460.03 692.173C2460.03 691.124 2459.83 690.086 2459.43 689.118C2459.02 688.149 2458.43 687.27 2457.69 686.531C2456.95 685.791 2456.06 685.206 2455.09 684.808C2454.12 684.411 2453.08 684.209 2452.03 684.215Z" fill="#EBEBEB"/>
<path d="M2504.38 1469.02H2500.12V1125.24L2409.09 964.201V791.63H2413.35V963.052L2504.38 1124.13V1469.02Z" fill="#EBEBEB"/>
<path d="M2411.22 793.758C2408.79 793.766 2406.42 793.054 2404.4 791.71C2402.37 790.367 2400.8 788.453 2399.86 786.211C2398.93 783.97 2398.68 781.502 2399.16 779.121C2399.63 776.739 2400.8 774.551 2402.51 772.835C2404.23 771.118 2406.42 769.95 2408.8 769.478C2411.18 769.007 2413.65 769.253 2415.89 770.186C2418.13 771.119 2420.04 772.696 2421.39 774.719C2422.73 776.741 2423.44 779.116 2423.43 781.544C2423.42 784.78 2422.13 787.88 2419.85 790.168C2417.56 792.456 2414.46 793.747 2411.22 793.758ZM2411.22 773.543C2409.64 773.535 2408.09 773.997 2406.76 774.871C2405.44 775.745 2404.41 776.991 2403.8 778.453C2403.19 779.914 2403.02 781.524 2403.33 783.078C2403.63 784.633 2404.39 786.063 2405.51 787.186C2406.62 788.309 2408.05 789.076 2409.6 789.388C2411.15 789.7 2412.77 789.544 2414.23 788.94C2415.69 788.335 2416.95 787.31 2417.83 785.993C2418.71 784.677 2419.18 783.128 2419.18 781.544C2419.18 779.429 2418.34 777.401 2416.85 775.901C2415.36 774.402 2413.34 773.554 2411.22 773.543Z" fill="#EBEBEB"/>
<path d="M193.331 1469.02H189.075V1190.27L75.3184 1035.02V871.17H79.5741V1033.61L193.331 1188.91V1469.02Z" fill="#EBEBEB"/>
<path d="M77.4475 873.468C75.0198 873.477 72.6443 872.764 70.6222 871.42C68.6001 870.077 67.0225 868.163 66.0896 865.922C65.1566 863.68 64.9103 861.213 65.3819 858.831C65.8534 856.45 67.0216 854.262 68.7383 852.545C70.455 850.828 72.6428 849.66 75.0243 849.189C77.4058 848.717 79.8737 848.963 82.1151 849.896C84.3564 850.829 86.2702 852.407 87.6137 854.429C88.9572 856.451 89.67 858.826 89.6615 861.254C89.6615 864.494 88.3747 867.6 86.0842 869.891C83.7936 872.181 80.6869 873.468 77.4475 873.468ZM77.4475 853.253C75.8633 853.245 74.3123 853.707 72.991 854.581C71.6696 855.455 70.6375 856.702 70.0254 858.163C69.4134 859.624 69.2488 861.234 69.5527 862.789C69.8566 864.344 70.6152 865.773 71.7325 866.896C72.8497 868.02 74.2752 868.786 75.8284 869.098C77.3815 869.41 78.9924 869.254 80.4569 868.65C81.9213 868.046 83.1734 867.02 84.0544 865.704C84.9354 864.387 85.4058 862.838 85.4058 861.254C85.4058 859.14 84.5687 857.111 83.0775 855.612C81.5862 854.113 79.5621 853.265 77.4475 853.253Z" fill="#EBEBEB"/>
<path d="M164.008 1469.02H159.753V1209.03L45.9961 1053.78V977.564H50.2519V1052.38L164.008 1207.67V1469.02Z" fill="#EBEBEB"/>
<path d="M48.2096 979.862C45.7837 979.862 43.4123 979.142 41.3958 977.794C39.3793 976.445 37.8084 974.528 36.882 972.286C35.9556 970.044 35.7154 967.578 36.1918 965.199C36.6682 962.82 37.8397 960.636 39.5581 958.924C41.2765 957.211 43.4644 956.047 45.8447 955.579C48.225 955.111 50.6908 955.36 52.9296 956.294C55.1684 957.228 57.0797 958.806 58.4213 960.827C59.763 962.848 60.4747 965.222 60.4662 967.648C60.455 970.891 59.1587 973.998 56.8614 976.287C54.564 978.577 51.4529 979.862 48.2096 979.862ZM48.2096 959.647C46.6272 959.647 45.0804 960.117 43.7646 960.996C42.4489 961.875 41.4234 963.124 40.8179 964.586C40.2123 966.048 40.0538 967.657 40.3626 969.209C40.6713 970.761 41.4333 972.187 42.5522 973.306C43.6711 974.425 45.0967 975.187 46.6488 975.495C48.2008 975.804 49.8095 975.646 51.2714 975.04C52.7334 974.434 53.983 973.409 54.8621 972.093C55.7412 970.777 56.2105 969.231 56.2105 967.648C56.2105 965.526 55.3675 963.491 53.8671 961.991C52.3666 960.49 50.3316 959.647 48.2096 959.647Z" fill="#EBEBEB"/>
<path d="M221.547 1016.16H217.291V1469.02H221.547V1016.16Z" fill="#EBEBEB"/>
<path d="M219.419 1018.29C216.993 1018.29 214.621 1017.57 212.605 1016.22C210.588 1014.87 209.017 1012.96 208.091 1010.72C207.165 1008.47 206.924 1006.01 207.401 1003.63C207.877 1001.25 209.049 999.066 210.767 997.353C212.485 995.641 214.673 994.477 217.054 994.009C219.434 993.541 221.9 993.79 224.139 994.724C226.377 995.658 228.289 997.236 229.63 999.257C230.972 1001.28 231.684 1003.65 231.675 1006.08C231.664 1009.32 230.368 1012.43 228.07 1014.72C225.773 1017.01 222.662 1018.29 219.419 1018.29ZM219.419 998.077C217.836 998.077 216.289 998.546 214.974 999.425C213.658 1000.3 212.632 1001.55 212.027 1003.02C211.421 1004.48 211.263 1006.09 211.572 1007.64C211.88 1009.19 212.642 1010.62 213.761 1011.74C214.88 1012.85 216.306 1013.62 217.858 1013.92C219.41 1014.23 221.018 1014.08 222.48 1013.47C223.942 1012.86 225.192 1011.84 226.071 1010.52C226.95 1009.21 227.419 1007.66 227.419 1006.08C227.419 1003.96 226.577 1001.92 225.076 1000.42C223.576 998.92 221.541 998.077 219.419 998.077Z" fill="#EBEBEB"/>
<path d="M248.742 1469.02H244.486V1236.27L244.699 1235.76L321.686 1090.6V829.974H325.942V1091.62L325.729 1092.09L248.742 1237.29V1469.02Z" fill="#EBEBEB"/>
<path d="M323.813 832.102C321.389 832.102 319.019 831.383 317.004 830.037C314.988 828.69 313.417 826.776 312.49 824.536C311.562 822.296 311.319 819.832 311.792 817.455C312.265 815.077 313.432 812.893 315.147 811.179C316.861 809.465 319.045 808.298 321.422 807.825C323.8 807.352 326.264 807.594 328.504 808.522C330.743 809.45 332.657 811.021 334.004 813.036C335.351 815.052 336.07 817.422 336.07 819.846C336.07 823.096 334.778 826.214 332.48 828.512C330.181 830.811 327.064 832.102 323.813 832.102ZM323.813 811.887C322.229 811.887 320.68 812.358 319.364 813.239C318.047 814.12 317.022 815.372 316.417 816.836C315.813 818.301 315.657 819.912 315.969 821.465C316.282 823.018 317.048 824.444 318.171 825.561C319.294 826.678 320.724 827.437 322.279 827.74C323.833 828.044 325.443 827.88 326.905 827.268C328.366 826.656 329.612 825.624 330.486 824.302C331.36 822.981 331.822 821.43 331.814 819.846C331.814 818.797 331.607 817.759 331.204 816.79C330.802 815.822 330.212 814.943 329.468 814.203C328.725 813.464 327.842 812.878 326.872 812.481C325.901 812.084 324.862 811.882 323.813 811.887Z" fill="#EBEBEB"/>
<path d="M275.766 1469.02H271.51V1251.81L271.765 1251.29L362.54 1090.72V919.303H366.796V1091.87L366.498 1092.34L275.766 1252.91V1469.02Z" fill="#EBEBEB"/>
<path d="M364.668 921.431C362.24 921.439 359.865 920.726 357.843 919.383C355.821 918.039 354.243 916.125 353.31 913.884C352.377 911.643 352.131 909.175 352.603 906.793C353.074 904.412 354.242 902.224 355.959 900.507C357.676 898.791 359.863 897.623 362.245 897.151C364.626 896.679 367.094 896.926 369.336 897.859C371.577 898.792 373.491 900.369 374.834 902.391C376.178 904.413 376.891 906.789 376.882 909.217C376.871 912.453 375.581 915.553 373.292 917.841C371.004 920.129 367.904 921.419 364.668 921.431ZM364.668 901.216C363.084 901.207 361.533 901.669 360.212 902.543C358.89 903.417 357.858 904.664 357.246 906.125C356.634 907.586 356.47 909.196 356.773 910.751C357.077 912.306 357.836 913.736 358.953 914.859C360.07 915.982 361.496 916.748 363.049 917.06C364.602 917.373 366.213 917.217 367.678 916.612C369.142 916.008 370.394 914.983 371.275 913.666C372.156 912.349 372.626 910.801 372.626 909.217C372.626 907.102 371.789 905.073 370.298 903.574C368.807 902.075 366.783 901.227 364.668 901.216Z" fill="#EBEBEB"/>
<path d="M2703.8 415.889L2733.59 368.012L2718.95 358.947C2716.82 357.622 2715.1 355.72 2714.01 353.46C2712.91 351.201 2712.47 348.677 2712.74 346.18C2712.97 343.343 2713.05 340.506 2713 337.668C2712.92 335.198 2713.53 332.756 2714.77 330.614C2716 328.472 2717.8 326.715 2719.98 325.539L2735.17 317.368L2708.06 268.002L2692.87 276.173C2690.67 277.325 2688.21 277.848 2685.73 277.683C2683.26 277.518 2680.88 276.671 2678.87 275.236C2676.57 273.662 2674.18 272.172 2671.72 270.981C2669.53 269.817 2667.7 268.065 2666.46 265.922C2665.21 263.779 2664.58 261.331 2664.65 258.852L2665.2 241.573L2608.9 239.828L2608.35 257.149C2608.25 259.628 2607.47 262.032 2606.09 264.092C2604.7 266.151 2602.78 267.785 2600.52 268.81C2599.24 269.406 2598.01 270.002 2596.81 270.683C2595.62 271.364 2594.39 272.002 2593.2 272.726C2591.09 274.02 2588.67 274.706 2586.2 274.706C2583.72 274.706 2581.3 274.02 2579.2 272.726L2564.43 263.576L2534.64 311.453L2549.32 320.603C2551.46 321.925 2553.18 323.826 2554.28 326.086C2555.38 328.346 2555.81 330.872 2555.53 333.37C2555.29 336.201 2555.21 339.042 2555.28 341.882C2555.34 344.361 2554.72 346.809 2553.48 348.957C2552.24 351.105 2550.43 352.869 2548.26 354.053L2533.32 361.628L2559.96 411.293L2575.15 403.164C2577.34 402.006 2579.81 401.476 2582.28 401.633C2584.75 401.791 2587.13 402.63 2589.15 404.058C2591.46 405.605 2593.85 407.025 2596.3 408.314C2598.49 409.478 2600.31 411.23 2601.56 413.372C2602.81 415.515 2603.44 417.964 2603.37 420.443L2602.86 437.721L2659.16 439.466L2659.71 422.188C2659.81 419.714 2660.59 417.315 2661.97 415.262C2663.36 413.209 2665.29 411.583 2667.54 410.57L2671.25 408.697L2674.86 406.612C2676.98 405.318 2679.41 404.633 2681.89 404.633C2684.37 404.633 2686.8 405.318 2688.91 406.612L2703.8 415.889ZM2656.14 380.354C2648.09 384.665 2638.94 386.493 2629.85 385.607C2620.76 384.72 2612.14 381.158 2605.08 375.371C2598.01 369.584 2592.82 361.833 2590.16 353.097C2587.5 344.361 2587.5 335.032 2590.14 326.291C2592.78 317.549 2597.95 309.787 2605.01 303.987C2612.06 298.186 2620.68 294.607 2629.76 293.702C2638.85 292.797 2648 294.607 2656.06 298.903C2664.12 303.199 2670.72 309.788 2675.04 317.837C2677.89 323.195 2679.66 329.064 2680.25 335.108C2680.84 341.152 2680.22 347.252 2678.45 353.059C2676.67 358.866 2673.77 364.266 2669.91 368.949C2666.04 373.633 2661.29 377.508 2655.93 380.354H2656.14Z" fill="#EBEBEB"/>
<path d="M112.812 841.507L146.858 821.761L140.815 811.292C139.95 809.784 139.523 808.065 139.583 806.328C139.643 804.59 140.188 802.905 141.156 801.461C142.234 799.815 143.213 798.113 144.092 796.354C144.882 794.778 146.098 793.455 147.603 792.537C149.108 791.619 150.841 791.143 152.604 791.162H164.69V751.668H152.604C150.841 751.688 149.108 751.211 147.603 750.293C146.098 749.375 144.882 748.053 144.092 746.476C143.213 744.717 142.234 743.015 141.156 741.37C140.188 739.926 139.643 738.24 139.583 736.503C139.523 734.765 139.95 733.046 140.815 731.539L146.858 721.07L112.812 701.323L106.769 711.835C105.914 713.313 104.666 714.525 103.163 715.336C101.661 716.148 99.9625 716.526 98.2576 716.431H92.2569C90.5577 716.521 88.8661 716.144 87.3657 715.342C85.8653 714.539 84.6133 713.341 83.7454 711.877L77.6597 701.323L43.6136 721.07L49.6568 731.581C50.5224 733.089 50.9493 734.808 50.8891 736.545C50.8289 738.282 50.2842 739.968 49.3163 741.412C48.2468 743.046 47.2665 744.737 46.3798 746.476C45.5903 748.053 44.3736 749.375 42.8687 750.293C41.3637 751.211 39.6311 751.688 37.8683 751.668H25.6543V791.162H37.7407C39.5034 791.143 41.236 791.619 42.741 792.537C44.2459 793.455 45.4626 794.778 46.2522 796.354C47.1389 798.094 48.1191 799.784 49.1886 801.418C50.1556 802.87 50.6995 804.563 50.7596 806.307C50.8197 808.05 50.3937 809.776 49.5291 811.292L43.4859 821.761L77.532 841.507L83.6177 830.996C84.4836 829.527 85.734 828.323 87.234 827.513C88.7339 826.703 90.4265 826.318 92.1293 826.4C93.0655 826.4 94.0444 826.4 95.0232 826.4C96.002 826.4 96.9808 826.4 97.9597 826.4C99.6617 826.323 101.352 826.71 102.852 827.52C104.351 828.329 105.602 829.531 106.471 830.996L112.812 841.507ZM95.0232 803.759C88.628 803.751 82.3789 801.846 77.0656 798.287C71.7522 794.728 67.6133 789.674 65.1718 783.763C62.7303 777.852 62.0958 771.35 63.3486 765.079C64.6014 758.808 67.6852 753.049 72.2103 748.53C76.7353 744.011 82.4985 740.934 88.7714 739.69C95.0443 738.445 101.545 739.088 107.453 741.538C113.361 743.987 118.409 748.132 121.962 753.45C125.514 758.768 127.41 765.02 127.41 771.415C127.415 775.668 126.581 779.88 124.955 783.809C123.329 787.739 120.943 791.308 117.934 794.313C114.925 797.318 111.352 799.7 107.42 801.321C103.489 802.942 99.2758 803.77 95.0232 803.759Z" fill="#EBEBEB"/>
<path d="M2529.66 450.531L2509.95 416.485L2499.53 422.4C2498.01 423.265 2496.29 423.691 2494.54 423.631C2492.8 423.571 2491.11 423.027 2489.65 422.06C2488.01 420.981 2486.31 420.001 2484.55 419.124C2482.97 418.334 2481.65 417.117 2480.73 415.612C2479.81 414.107 2479.34 412.375 2479.36 410.612V398.526H2439.95V410.612C2439.97 412.375 2439.49 414.107 2438.57 415.612C2437.65 417.117 2436.33 418.334 2434.76 419.124C2432.99 420.01 2431.27 420.99 2429.61 422.06C2428.16 423.028 2426.48 423.573 2424.74 423.633C2423 423.693 2421.28 423.266 2419.78 422.4L2409.31 416.357L2389.6 450.403L2400.11 456.447C2401.61 457.34 2402.82 458.626 2403.63 460.165C2404.44 461.703 2404.82 463.435 2404.71 465.171C2404.71 466.15 2404.71 467.128 2404.71 468.065C2404.71 469.001 2404.71 470.022 2404.71 471.001C2404.8 472.705 2404.41 474.399 2403.6 475.9C2402.79 477.401 2401.59 478.65 2400.11 479.513L2389.6 485.599L2409.31 519.645L2419.82 513.601C2421.32 512.736 2423.04 512.309 2424.78 512.369C2426.52 512.429 2428.2 512.974 2429.65 513.942C2431.32 515.02 2433.02 515.999 2434.76 516.878C2436.33 517.668 2437.65 518.885 2438.57 520.389C2439.49 521.894 2439.97 523.627 2439.95 525.39V537.476H2479.4V525.39C2479.38 523.627 2479.86 521.894 2480.77 520.389C2481.69 518.885 2483.01 517.668 2484.59 516.878C2486.35 515.97 2488.05 514.992 2489.7 513.942C2491.14 512.974 2492.83 512.429 2494.56 512.369C2496.3 512.309 2498.02 512.736 2499.53 513.601L2510.04 519.645L2529.74 485.599L2519.23 479.555C2517.77 478.684 2516.58 477.431 2515.77 475.932C2514.97 474.432 2514.59 472.742 2514.68 471.044C2514.68 470.065 2514.68 469.086 2514.68 468.107C2514.68 467.129 2514.68 466.192 2514.68 465.213C2514.57 463.477 2514.94 461.743 2515.75 460.204C2516.56 458.665 2517.78 457.379 2519.27 456.489L2529.66 450.531ZM2491.91 468.022C2491.91 474.421 2490.01 480.676 2486.46 485.996C2482.9 491.316 2477.85 495.461 2471.93 497.908C2466.02 500.355 2459.52 500.993 2453.24 499.741C2446.97 498.49 2441.2 495.405 2436.68 490.878C2432.16 486.35 2429.08 480.583 2427.84 474.306C2426.6 468.029 2427.24 461.525 2429.7 455.615C2432.15 449.706 2436.3 444.658 2441.63 441.109C2446.95 437.56 2453.21 435.67 2459.61 435.678C2463.85 435.678 2468.06 436.515 2471.98 438.141C2475.9 439.767 2479.46 442.15 2482.46 445.154C2485.46 448.158 2487.84 451.724 2489.46 455.648C2491.08 459.572 2491.92 463.777 2491.91 468.022Z" fill="#EBEBEB"/>
<path d="M203.545 1144.99C176.351 1089.11 128.772 1060.42 75.1492 1076.3C21.5266 1092.17 13.2279 1166.9 53.232 1185.8C93.2362 1204.69 133.325 1149.54 154.604 1138.22C175.883 1126.9 203.545 1144.99 203.545 1144.99Z" fill="#047857"/>
<path d="M229.847 1293.64C229.847 1286.92 229.464 1280.15 229.209 1273.42C228.755 1259.98 228.272 1246.53 227.762 1233.08C226.953 1208.52 224.229 1184.44 214.186 1161.71C205.188 1141.15 190.153 1123.82 171.075 1112C163.957 1107.66 156.264 1104.33 148.222 1102.13C141.005 1094.8 131.804 1089.74 121.751 1087.58C109.335 1085.05 96.5708 1084.73 84.0447 1086.64C83.9696 1086.67 83.9044 1086.71 83.8584 1086.78C83.8123 1086.84 83.7875 1086.92 83.7875 1087C83.7875 1087.08 83.8123 1087.16 83.8584 1087.22C83.9044 1087.29 83.9696 1087.34 84.0447 1087.36C95.9808 1085.81 108.107 1086.66 119.708 1089.87C124.681 1091.25 129.501 1093.13 134.092 1095.49C137.058 1097.03 139.903 1098.8 142.604 1100.77C127.83 1097.5 112.405 1098.91 98.4717 1104.81C95.5374 1104.18 92.5341 1103.92 89.5346 1104.05C85.6127 1104.17 81.7165 1104.73 77.9164 1105.7C70.1589 1107.9 62.7407 1111.15 55.8715 1115.37C55.4885 1115.58 55.8715 1116.17 56.2546 1115.96C63.0078 1112.27 70.2407 1109.53 77.7462 1107.83C81.3894 1107.02 85.0879 1106.48 88.8111 1106.22C90.8838 1106.16 92.9578 1106.22 95.0245 1106.39C79.7595 1113.45 67.488 1125.69 60.3827 1140.94C60.3827 1141.37 60.8082 1141.71 60.9785 1141.28C65.2091 1132.44 71.3774 1124.67 79.025 1118.54C86.6727 1112.41 95.6032 1108.08 105.153 1105.88C106.345 1105.58 107.536 1105.41 108.771 1105.19C108.337 1106.99 108.01 1108.81 107.792 1110.64C107.451 1113.37 106.983 1116.05 106.43 1118.73C105.351 1124.27 103.93 1129.74 102.174 1135.11C100.35 1140.53 98.1747 1145.81 95.6629 1150.94C93.2611 1156.39 90.218 1161.54 86.5981 1166.26C86.2577 1166.65 86.896 1167.12 87.1514 1166.69C90.3858 1161.63 94.1308 1156.99 97.0673 1151.75C99.9226 1146.76 102.384 1141.55 104.43 1136.18C106.483 1130.74 108.077 1125.15 109.196 1119.45C109.792 1116.43 110.26 1113.41 110.601 1110.34C110.968 1108.52 111.083 1106.66 110.941 1104.81C117.251 1103.84 123.66 1103.7 130.007 1104.39C127.624 1117.75 125.07 1131.62 117.58 1143.2C117.325 1143.58 118.006 1143.96 118.218 1143.54C121.708 1137.4 124.779 1131.03 127.411 1124.47C129.891 1118.12 131.439 1111.44 132.007 1104.64C143.084 1106.11 153.775 1109.69 163.5 1115.2C181.813 1125.85 196.438 1141.84 205.419 1161.03C214.851 1181.7 220.129 1204.03 220.952 1226.74C222.74 1255.34 223.123 1284.06 225.974 1312.53C225.974 1314.41 229.081 1315.05 229.464 1312.92C230.199 1306.52 230.328 1300.06 229.847 1293.64Z" fill="#263238"/>
<path d="M167.032 1107.58C165.223 1105.41 163.134 1103.49 160.818 1101.87C158.605 1100.04 156.307 1098.26 153.924 1096.64C149.224 1093.36 144 1090.9 138.475 1089.36C138.05 1089.36 137.88 1089.96 138.475 1090.04C143.997 1091.55 149.134 1094.22 153.541 1097.87C155.839 1099.53 157.797 1101.32 160.137 1103.19C162.021 1105.18 164.119 1106.95 166.393 1108.47C166.512 1108.56 166.659 1108.59 166.803 1108.57C166.946 1108.54 167.075 1108.46 167.159 1108.34C167.244 1108.22 167.278 1108.08 167.254 1107.93C167.23 1107.79 167.15 1107.66 167.032 1107.58Z" fill="#263238"/>
<path d="M80.2567 1127.66C75.7514 1132.9 71.5864 1138.41 67.7873 1144.18C64.0494 1149.96 60.9393 1156.12 58.5098 1162.56C58.5098 1162.77 58.5098 1162.86 58.8077 1162.56C65.0262 1150.39 72.3787 1138.84 80.7674 1128.05C81.0653 1128.01 80.512 1127.66 80.2567 1127.66Z" fill="#263238"/>
<path d="M138.731 1122.3C138.159 1125.8 137.128 1129.2 135.667 1132.43C134.169 1135.54 132.433 1138.53 130.475 1141.37C130.475 1141.37 130.475 1141.75 130.815 1141.62C135.48 1136.22 138.441 1129.56 139.327 1122.47C139.497 1122.05 138.816 1121.88 138.731 1122.3Z" fill="#263238"/>
<path d="M226.059 1146.39C226.059 1146.39 264.36 1098 338.879 1115.15C409.482 1131.45 442.081 1260.95 370.712 1276.45C299.343 1291.94 311.94 1172.09 285.937 1151.75C266.829 1136.86 239.379 1140.05 226.059 1146.39Z" fill="#047857"/>
<path d="M396.247 1185.88C391.416 1181.62 386.297 1177.7 380.926 1174.14C375.902 1170.68 370.415 1167.94 364.627 1166.01C361.734 1161.6 358.489 1157.43 354.924 1153.54C348.387 1146.49 340.826 1140.46 332.496 1135.67H334.709C338.636 1135.45 342.571 1135.45 346.497 1135.67C354.426 1136.16 362.198 1138.1 369.436 1141.37C369.861 1141.37 370.159 1140.9 369.734 1140.73C362.389 1137.57 354.707 1135.26 346.838 1133.84C343.003 1133.15 339.115 1132.81 335.22 1132.81C333.134 1132.81 330.964 1132.81 329.006 1133.2H327.815C321.042 1129.78 313.903 1127.14 306.536 1125.32L308.621 1124.77C312.261 1123.97 315.94 1123.36 319.643 1122.94C327.039 1122.16 334.503 1122.32 341.859 1123.41C342.327 1123.41 342.454 1122.77 341.859 1122.73C334.404 1121.83 326.89 1121.54 319.388 1121.83C313.093 1121.99 306.831 1122.8 300.705 1124.26C296.234 1123.44 291.713 1122.91 287.172 1122.69C261.254 1121.62 232.996 1131.2 217.037 1152.48C201.078 1173.75 197.971 1202.23 195.163 1227.97C190.81 1263.79 189.855 1299.94 192.311 1335.94C192.311 1338.07 195.46 1337.69 195.546 1335.69C196.524 1305.13 197.588 1274.62 200.525 1244.19C201.844 1230.06 203.376 1215.93 205.717 1201.97C207.418 1189.96 210.858 1178.26 215.931 1167.24C221.436 1155.96 230.177 1146.56 241.04 1140.26C251.921 1134.05 264.041 1130.31 276.533 1129.32C287.753 1128.4 299.048 1129.47 309.898 1132.47C309.559 1134.65 309.559 1136.86 309.898 1139.03C310.157 1141.79 310.699 1144.51 311.515 1147.16C312.338 1149.64 313.378 1152.05 314.622 1154.35C316.026 1156.9 317.728 1159.2 319.303 1161.63C319.303 1162.01 320.154 1161.63 319.856 1161.2C316.806 1156.85 314.837 1151.83 314.111 1146.56C313.641 1144.06 313.342 1141.53 313.217 1138.98C313.217 1137.07 313.217 1135.15 313.217 1133.24C325.011 1136.83 336.026 1142.61 345.689 1150.26C347.476 1151.71 349.221 1153.24 350.923 1154.82C348.465 1157.07 346.344 1159.66 344.625 1162.52C341.917 1166.28 339.566 1170.28 337.603 1174.48C334.163 1182.74 331.844 1191.43 330.709 1200.31C330.735 1200.39 330.783 1200.45 330.848 1200.5C330.913 1200.54 330.991 1200.57 331.07 1200.57C331.15 1200.57 331.227 1200.54 331.292 1200.5C331.357 1200.45 331.406 1200.39 331.432 1200.31C332.828 1191.72 335.708 1183.44 339.943 1175.84C341.919 1172.08 344.121 1168.44 346.54 1164.95C347.817 1163.16 349.093 1161.37 350.455 1159.67C351.179 1158.77 351.987 1157.84 352.668 1156.82C361.407 1165.41 368.54 1175.5 373.734 1186.61C370.208 1190.31 367.266 1194.53 365.01 1199.12C362.338 1203.91 360.02 1208.89 358.073 1214.01C354.466 1223.9 351.495 1234.01 349.178 1244.27C349.205 1244.35 349.253 1244.41 349.318 1244.46C349.383 1244.5 349.461 1244.53 349.54 1244.53C349.62 1244.53 349.697 1244.5 349.762 1244.46C349.827 1244.41 349.876 1244.35 349.902 1244.27C352.171 1233.95 355.702 1223.94 360.414 1214.48C362.627 1209.84 365.01 1205.25 367.478 1200.74C370.038 1196.54 372.368 1192.21 374.458 1187.76C379.415 1198.59 382.302 1210.25 382.969 1222.14C382.969 1222.61 383.693 1222.57 383.693 1222.14C382.321 1203.48 376.608 1185.39 367.01 1169.33C371.521 1171.24 376.075 1173.12 380.458 1175.46C386.033 1178.43 391.222 1182.07 395.907 1186.31C396.12 1186.73 396.588 1186.18 396.247 1185.88Z" fill="#263238"/>
<path d="M388.671 1170.43C385.744 1167.61 382.417 1165.23 378.797 1163.37C375.128 1161.72 371.327 1160.38 367.434 1159.37C367.009 1159.37 366.839 1159.97 367.434 1160.05C371.264 1161.06 374.943 1162.58 378.372 1164.56C381.898 1166.38 385.284 1168.46 388.501 1170.78C388.671 1170.95 389.054 1170.61 388.671 1170.43Z" fill="#263238"/>
<path d="M262.658 1081.74C262.658 1081.74 269.765 994.842 334.368 966.839C388.331 943.305 419.228 1003.95 381.181 1041.06C350.369 1070.94 300.747 1057.36 262.658 1081.74Z" fill="#047857"/>
<path d="M369.138 983.48C359.306 987.456 349.714 992.004 340.412 997.098C332.659 1001.56 325.196 1006.5 318.069 1011.91C319.133 1009.74 320.069 1007.4 321.176 1005.27C322.838 1001.9 324.671 998.62 326.666 995.438C330.626 988.862 335.402 982.814 340.88 977.436C341.22 977.096 340.88 976.628 340.369 976.926C334.925 982.339 329.916 988.173 325.389 994.374C323.153 997.527 321.106 1000.81 319.261 1004.21C317.369 1007.32 315.936 1010.69 315.005 1014.21C314.749 1014.42 314.494 1014.55 314.281 1014.76C303.002 1023.75 292.665 1033.86 283.427 1044.93C283.427 1044.08 283.767 1043.23 283.98 1042.46C285.214 1038.21 286.534 1033.95 287.896 1029.7C290.659 1020.71 294.594 1012.12 299.599 1004.16C299.854 1003.78 299.216 1003.44 298.961 1003.82C293.878 1011.74 289.356 1020 285.427 1028.55C283.717 1032.7 282.295 1036.97 281.171 1041.32C280.253 1044.17 279.556 1047.08 279.086 1050.04C276.277 1053.61 273.511 1057.23 270.873 1060.93C243.168 1100.43 229.209 1148.18 225.889 1195.97C224.903 1210.23 224.662 1224.54 225.166 1238.82C225.255 1253.22 226.522 1267.58 228.953 1281.77C228.953 1282.66 230.528 1282.4 230.528 1281.51C230.187 1268.96 228.911 1256.44 228.655 1243.89C228.4 1231.33 228.655 1218.7 229.847 1206.14C231.887 1181.05 236.624 1156.25 243.976 1132.18C251.487 1107.53 262.555 1084.12 276.831 1062.68C279.554 1062.13 282.235 1061.4 284.917 1060.68C287.598 1059.96 291.385 1059.02 294.577 1058.13C300.789 1056.55 306.821 1054.34 312.579 1051.53C312.618 1051.51 312.652 1051.48 312.68 1051.44C312.708 1051.41 312.728 1051.36 312.74 1051.32C312.752 1051.28 312.755 1051.23 312.749 1051.19C312.743 1051.14 312.729 1051.1 312.707 1051.06C312.684 1051.02 312.654 1050.99 312.619 1050.96C312.583 1050.93 312.542 1050.91 312.499 1050.9C312.456 1050.89 312.41 1050.89 312.365 1050.89C312.321 1050.9 312.278 1050.91 312.239 1050.93C306.526 1054.02 300.343 1056.15 293.939 1057.23C288.917 1058.25 283.64 1058.89 278.575 1060.04C283.257 1053.23 288.236 1046.63 293.598 1040.29C305.921 1041.42 318.345 1040.5 330.368 1037.57C336.758 1036.02 343.041 1034.06 349.179 1031.7C355.647 1029.23 361.946 1025.99 368.159 1023.19C368.67 1022.97 368.159 1022.25 367.904 1022.5C356.33 1028.82 343.693 1032.96 330.623 1034.72C319.094 1036.55 307.443 1037.52 295.769 1037.61C300.365 1032.34 305.089 1027.19 310.153 1022.38C327.176 1006.21 347.263 991.353 369.734 983.607C369.776 984.033 369.564 983.309 369.138 983.48Z" fill="#263238"/>
<path d="M316.536 983.778C313.624 987.441 310.978 991.31 308.621 995.353C306.216 999.62 304.303 1004.15 302.918 1008.84H303.173C305.344 1004.59 307.174 1000.33 309.344 996.077C311.49 991.9 314.072 987.963 317.047 984.331C317.345 983.905 316.834 983.395 316.536 983.778Z" fill="#263238"/>
<path d="M212.397 1066.13C212.014 1069.87 202.652 1034.55 148.008 1003.23C98.3856 974.755 39.1454 900.663 87.7887 853.892C127.069 816.143 230.527 898.45 212.397 1066.13Z" fill="#047857"/>
<path d="M250.019 1268.57C249.267 1231.81 246.426 1195.13 241.507 1158.69C237.199 1125.22 229.47 1092.28 218.441 1060.38C214.185 1048.89 209.929 1037.57 204.695 1026.34C205.037 1022 205.037 1017.65 204.695 1013.31C204.397 1007.74 203.886 1002.2 203.375 996.672C202.865 991.14 202.311 985.565 201.673 980.032C201.035 974.5 199.801 968.967 199.588 963.435C199.588 962.967 198.779 963.052 198.907 963.435C199.986 969.238 200.64 975.113 200.865 981.011C201.29 986.374 201.588 991.736 201.758 997.14C201.928 1002.55 201.758 1007.87 201.758 1013.27C201.758 1015.18 201.758 1017.27 201.758 1019.31C196.609 1008.46 191.119 997.779 185.161 987.352C188.863 964.712 184.054 941.05 179.416 918.877C179.416 918.452 178.649 918.664 178.735 919.09C181.004 930.659 182.214 942.411 182.352 954.2C182.352 963.52 182.097 972.798 182.097 982.118C180.777 979.862 179.458 977.649 178.096 975.436C171.032 963.861 163.471 952.512 155.413 941.39C156.073 936.019 155.901 930.579 154.902 925.261C153.992 919.303 152.67 913.416 150.944 907.642C149.216 901.87 147.199 896.189 144.901 890.619C142.518 884.874 139.369 879.426 137.071 873.596C137.071 873.128 136.177 873.596 136.432 873.894C139.346 879.294 141.644 885.004 143.284 890.917C145.088 896.504 146.58 902.187 147.753 907.94C148.902 913.728 149.838 919.473 150.647 925.303C151.2 929.134 151.54 933.134 152.179 937.007C140.478 921.283 127.679 906.407 113.877 892.491C113.579 892.151 113.111 892.491 113.409 893.002C134.149 916.415 152.671 941.703 168.734 968.542C169.329 969.563 169.925 970.585 170.478 971.606C167.499 969.733 164.052 968.201 161.201 966.627C155.924 963.69 150.604 960.796 145.284 958.115L129.793 949.604C127.155 948.114 124.516 946.582 121.835 945.348C118.554 943.969 115.393 942.317 112.387 940.411C112.004 940.113 111.536 940.752 111.962 941.007C117.239 943.901 121.878 948.199 126.985 951.434C132.091 954.668 137.283 957.817 142.561 960.754C152.264 966.201 162.818 970.074 172.351 975.692C178.99 987.31 185.118 999.226 190.736 1011.35C184.948 1007.61 178.99 1004.12 172.989 1000.72C169.117 998.545 165.244 996.46 161.329 994.374C157.425 992.557 153.742 990.301 150.349 987.65C150.008 987.352 149.54 987.65 149.838 988.161C156.208 993.899 163.27 998.817 170.861 1002.8C177.883 1007.06 184.948 1010.84 192.14 1014.42C197.985 1027.21 203.248 1040.25 207.929 1053.53C230.953 1118.64 239.379 1187.76 243.422 1256.44C244.656 1276.91 245.252 1297.34 245.507 1317.85C245.763 1338.37 244.699 1358.79 244.741 1379.22C244.741 1379.86 245.72 1379.99 245.805 1379.22C248.274 1361.09 248.699 1342.62 249.508 1324.32C250.316 1306.02 250.444 1287.17 250.019 1268.57Z" fill="#263238"/>
<path d="M150.732 973.776C140.764 969.356 131.072 964.34 121.708 958.754C112.215 953.411 103.01 947.572 94.1304 941.262C94.1304 941.262 93.8325 941.262 94.1304 941.518C102.511 948.28 111.34 954.465 120.559 960.03C130.174 965.464 140.124 970.283 150.349 974.457C150.817 974.457 151.158 973.947 150.732 973.776Z" fill="#263238"/>
<path d="M166.563 900.152C165.755 896.96 164.776 893.853 163.712 890.747C163.742 890.695 163.757 890.636 163.757 890.576C163.757 890.517 163.742 890.458 163.712 890.406C163.031 888.619 162.307 886.874 161.584 885.129L161.329 884.491C161.329 884.15 161.031 883.852 160.903 883.512C160.775 883.171 160.69 883.512 160.903 883.512C161.116 883.512 161.243 884.703 161.456 885.342C161.522 885.673 161.607 886 161.712 886.321C165.319 898.46 168.021 910.85 169.798 923.388C169.798 923.771 170.436 923.771 170.436 923.388C169.889 915.537 168.592 907.756 166.563 900.152Z" fill="#263238"/>
<path d="M307.769 1281.77L303.854 1327.98L291.938 1468.93H164.052L152.136 1327.98L148.221 1281.77H307.769Z" fill="#37474F"/>
<path d="M307.769 1281.77L303.854 1327.98H152.136L148.221 1281.77H307.769Z" fill="#263238"/>
<path d="M320.324 1263.25H135.709V1307.6H320.324V1263.25Z" fill="#37474F"/>
<path d="M0.205078 1468.93L345.219 1467.91L690.234 1467.53L1380.26 1466.81L2070.29 1467.53L2415.31 1467.91L2760.32 1468.93L2415.31 1470L2070.29 1470.34L1380.26 1471.06L690.234 1470.34L345.219 1469.96L0.205078 1468.93Z" fill="#263238"/>
<path d="M2380.15 230.04H373.18V1572.56H2380.15V230.04Z" fill="#EBEBEB"/>
<path d="M2365.56 246.425H387.777V1556.18H2365.56V246.425Z" fill="#263238"/>
<path d="M2641.54 1673.21H111.791V1765.35H2641.54V1673.21Z" fill="#DBDBDB"/>
<path d="M111.791 1673.21L373.222 1572.56H2380.15L2641.58 1673.21H111.791Z" fill="#EBEBEB"/>
<path d="M396.543 1637.5L565.241 1572.56H2188.13L2356.83 1637.5H396.543Z" fill="#263238"/>
<path d="M2253.84 345.924H499.576V1456.68H2253.84V345.924Z" fill="white"/>
<path d="M2253.84 345.924H498.086V388.652H2253.84V345.924Z" fill="#455A64"/>
<path d="M532.047 367.288C532.047 369.384 531.426 371.433 530.261 373.176C529.097 374.918 527.442 376.277 525.506 377.079C523.569 377.881 521.439 378.09 519.383 377.682C517.327 377.273 515.439 376.263 513.957 374.781C512.475 373.299 511.466 371.411 511.057 369.356C510.648 367.3 510.858 365.169 511.66 363.233C512.462 361.297 513.82 359.642 515.563 358.477C517.306 357.313 519.355 356.692 521.45 356.692C524.261 356.692 526.956 357.808 528.943 359.795C530.931 361.783 532.047 364.478 532.047 367.288Z" fill="#C7C7C7"/>
<path d="M575.328 367.288C575.328 369.384 574.707 371.433 573.543 373.176C572.378 374.918 570.723 376.277 568.787 377.079C566.851 377.881 564.72 378.09 562.664 377.682C560.609 377.273 558.721 376.263 557.239 374.781C555.757 373.299 554.747 371.411 554.338 369.356C553.93 367.3 554.139 365.169 554.941 363.233C555.743 361.297 557.102 359.642 558.844 358.477C560.587 357.313 562.636 356.691 564.732 356.691C566.125 356.686 567.505 356.956 568.794 357.487C570.082 358.017 571.252 358.798 572.237 359.783C573.222 360.768 574.003 361.938 574.533 363.226C575.064 364.515 575.334 365.895 575.328 367.288Z" fill="white"/>
<path d="M618.481 367.288C618.481 369.384 617.859 371.433 616.695 373.176C615.531 374.918 613.876 376.277 611.939 377.079C610.003 377.881 607.872 378.09 605.817 377.682C603.761 377.273 601.873 376.263 600.391 374.781C598.909 373.299 597.9 371.411 597.491 369.356C597.082 367.3 597.292 365.169 598.094 363.233C598.896 361.297 600.254 359.642 601.997 358.477C603.739 357.313 605.788 356.691 607.884 356.691C609.277 356.686 610.658 356.956 611.946 357.487C613.234 358.017 614.405 358.798 615.39 359.783C616.375 360.768 617.155 361.938 617.686 363.226C618.216 364.515 618.486 365.895 618.481 367.288Z" fill="#047857"/>
<path d="M2253.84 388.652H2222.69V1456.63H2253.84V388.652Z" fill="#DBDBDB"/>
<path d="M2238.22 758.903C2236.09 758.903 2234.04 758.056 2232.54 756.547C2231.03 755.039 2230.18 752.993 2230.18 750.86V402.952C2230.18 400.818 2231.03 398.773 2232.54 397.264C2234.04 395.756 2236.09 394.908 2238.22 394.908C2240.36 394.908 2242.4 395.756 2243.91 397.264C2245.42 398.773 2246.27 400.818 2246.27 402.952V750.86C2246.27 752.993 2245.42 755.039 2243.91 756.547C2242.4 758.056 2240.36 758.903 2238.22 758.903Z" fill="#A6A6A6"/>
<path d="M2008.33 665.66H752.197V856.062H2008.33V665.66Z" fill="white"/>
<path d="M2010.46 858.147H750.07V663.532H2010.46V858.147ZM754.326 853.892H2006.2V667.787H754.326V853.892Z" fill="#DBDBDB"/>
<path d="M863.104 717.239C865.548 724.301 867.217 731.607 868.083 739.029C869.927 753.511 869.927 768.168 868.083 782.65C867.198 790.073 865.514 797.378 863.061 804.44C860.589 797.384 858.905 790.077 858.04 782.65C856.224 768.167 856.224 753.513 858.04 739.029C858.955 731.607 860.652 724.304 863.104 717.239Z" fill="#37474F"/>
<path d="M906.683 760.818C899.633 763.329 892.325 765.042 884.893 765.925C877.667 766.845 870.389 767.3 863.104 767.287C855.818 767.323 848.539 766.868 841.314 765.925C833.874 765.065 826.551 763.381 819.482 760.903C826.563 758.466 833.881 756.783 841.314 755.882C848.541 754.961 855.819 754.506 863.104 754.52C870.389 754.543 877.666 755.011 884.893 755.924C892.313 756.758 899.619 758.399 906.683 760.818Z" fill="#37474F"/>
<path d="M893.914 730.007C890.648 736.728 886.667 743.077 882.04 748.945C877.596 754.717 872.777 760.19 867.613 765.329C862.466 770.497 856.993 775.33 851.229 779.799C845.346 784.426 838.983 788.407 832.248 791.673C835.513 784.938 839.494 778.574 844.122 772.692C848.59 766.927 853.423 761.454 858.591 756.307C863.75 751.165 869.222 746.347 874.976 741.88C880.85 737.262 887.198 733.282 893.914 730.007Z" fill="#37474F"/>
<path d="M893.915 791.673C887.199 788.397 880.851 784.417 874.977 779.799C869.212 775.33 863.74 770.497 858.592 765.329C853.382 760.182 848.52 754.694 844.038 748.902C839.41 743.02 835.429 736.656 832.164 729.922C838.907 733.172 845.272 737.154 851.145 741.795C862.693 750.719 873.049 761.088 881.956 772.649C886.618 778.54 890.628 784.918 893.915 791.673Z" fill="#37474F"/>
<path d="M1033.08 717.239C1035.52 724.301 1037.19 731.607 1038.06 739.029C1038.97 746.257 1039.44 753.533 1039.46 760.818C1039.48 768.117 1039.02 775.41 1038.1 782.65C1037.19 790.069 1035.51 797.373 1033.08 804.44C1030.61 797.384 1028.92 790.077 1028.06 782.65C1027.12 775.412 1026.66 768.118 1026.7 760.818C1026.68 753.534 1027.14 746.255 1028.06 739.029C1028.94 731.605 1030.62 724.299 1033.08 717.239Z" fill="#37474F"/>
<path d="M1076.66 760.818C1069.6 763.295 1062.29 764.98 1054.87 765.84C1047.64 766.759 1040.36 767.213 1033.08 767.202C1025.78 767.236 1018.49 766.781 1011.25 765.84C1003.82 764.975 996.513 763.291 989.457 760.818C996.524 758.386 1003.83 756.703 1011.25 755.797C1018.49 754.877 1025.78 754.422 1033.08 754.435C1040.36 754.458 1047.64 754.927 1054.87 755.839C1062.29 756.705 1069.6 758.375 1076.66 760.818Z" fill="#37474F"/>
<path d="M1063.89 730.007C1060.62 736.728 1056.64 743.077 1052.02 748.945C1047.57 754.717 1042.75 760.19 1037.59 765.329C1032.44 770.497 1026.97 775.33 1021.21 779.799C1015.32 784.426 1008.96 788.407 1002.22 791.673C1005.49 784.938 1009.47 778.574 1014.1 772.692C1018.57 766.927 1023.4 761.454 1028.57 756.307C1033.71 751.144 1039.18 746.324 1044.95 741.88C1050.82 737.253 1057.17 733.272 1063.89 730.007Z" fill="#37474F"/>
<path d="M1063.89 791.673C1057.17 788.407 1050.82 784.426 1044.95 779.799C1039.17 775.352 1033.7 770.518 1028.57 765.329C1023.45 760.174 1018.67 754.686 1014.27 748.902C1009.64 743.02 1005.66 736.656 1002.39 729.922C1009.14 733.172 1015.5 737.154 1021.38 741.795C1032.92 750.719 1043.28 761.088 1052.19 772.649C1056.76 778.552 1060.68 784.93 1063.89 791.673Z" fill="#37474F"/>
<path d="M1203.01 717.239C1205.49 724.294 1207.17 731.602 1208.03 739.029C1208.95 746.255 1209.41 753.534 1209.39 760.818C1209.43 768.118 1208.97 775.412 1208.03 782.65C1207.17 790.077 1205.48 797.384 1203.01 804.44C1200.57 797.377 1198.9 790.072 1198.03 782.65C1197.1 775.41 1196.63 768.118 1196.63 760.818C1196.65 753.533 1197.12 746.257 1198.03 739.029C1198.9 731.607 1200.57 724.301 1203.01 717.239Z" fill="#37474F"/>
<path d="M1246.63 760.818C1239.58 763.291 1232.27 764.975 1224.84 765.84C1217.6 766.76 1210.31 767.215 1203.01 767.202C1195.73 767.235 1188.45 766.78 1181.22 765.84C1173.79 764.98 1166.49 763.295 1159.43 760.818C1166.5 758.381 1173.8 756.698 1181.22 755.797C1188.45 754.878 1195.73 754.423 1203.01 754.435C1210.31 754.457 1217.6 754.926 1224.84 755.839C1232.26 756.71 1239.57 758.379 1246.63 760.818Z" fill="#37474F"/>
<path d="M1233.87 730.007C1230.6 736.728 1226.62 743.077 1221.99 748.945C1217.55 754.717 1212.73 760.19 1207.56 765.329C1202.42 770.497 1196.94 775.33 1191.18 779.799C1185.3 784.426 1178.93 788.407 1172.2 791.673C1175.45 784.93 1179.43 778.565 1184.07 772.692C1188.54 766.938 1193.36 761.466 1198.5 756.307C1203.66 751.154 1209.15 746.335 1214.93 741.88C1220.79 737.253 1227.14 733.272 1233.87 730.007Z" fill="#37474F"/>
<path d="M1233.87 791.673C1227.14 788.407 1220.79 784.426 1214.93 779.799C1209.14 775.342 1203.65 770.508 1198.5 765.329C1193.34 760.168 1188.53 754.681 1184.07 748.902C1179.43 743.03 1175.45 736.664 1172.2 729.922C1178.94 733.172 1185.31 737.154 1191.18 741.795C1202.73 750.719 1213.08 761.088 1221.99 772.649C1226.62 778.544 1230.6 784.922 1233.87 791.673Z" fill="#37474F"/>
<path d="M1372.99 717.239C1375.44 724.299 1377.13 731.605 1378.01 739.029C1379.82 753.513 1379.82 768.167 1378.01 782.65C1377.14 790.077 1375.46 797.384 1372.99 804.44C1370.53 797.378 1368.85 790.073 1367.96 782.65C1367.04 775.41 1366.59 768.117 1366.6 760.818C1366.63 753.533 1367.09 746.257 1368.01 739.029C1368.87 731.607 1370.54 724.301 1372.99 717.239Z" fill="#37474F"/>
<path d="M1416.61 760.818C1409.55 763.291 1402.24 764.975 1394.82 765.84C1387.58 766.76 1380.28 767.215 1372.99 767.202C1365.7 767.235 1358.42 766.78 1351.2 765.84C1343.77 764.98 1336.46 763.295 1329.41 760.818C1336.47 758.381 1343.78 756.698 1351.2 755.797C1358.42 754.878 1365.7 754.423 1372.99 754.435C1380.28 754.457 1387.58 754.926 1394.82 755.839C1402.24 756.71 1409.54 758.379 1416.61 760.818Z" fill="#37474F"/>
<path d="M1403.84 730.007C1400.57 736.728 1396.59 743.077 1391.97 748.945C1387.51 754.717 1382.67 760.191 1377.5 765.329C1372.37 770.518 1366.89 775.352 1361.11 779.799C1355.24 784.426 1348.89 788.407 1342.17 791.673C1345.41 784.921 1349.39 778.554 1354.05 772.692C1358.5 766.928 1363.32 761.455 1368.47 756.307C1373.63 751.165 1379.11 746.347 1384.86 741.88C1390.75 737.262 1397.11 733.282 1403.84 730.007Z" fill="#37474F"/>
<path d="M1403.84 791.673C1397.11 788.397 1390.75 784.417 1384.86 779.799C1379.09 775.33 1373.62 770.497 1368.47 765.329C1363.31 760.206 1358.49 754.747 1354.05 748.987C1349.39 743.126 1345.41 736.759 1342.17 730.007C1348.9 733.256 1355.25 737.238 1361.11 741.88C1366.89 746.312 1372.37 751.133 1377.5 756.307C1382.66 761.47 1387.5 766.957 1391.97 772.734C1396.59 778.602 1400.57 784.952 1403.84 791.673Z" fill="#37474F"/>
<path d="M1542.96 717.239C1545.4 724.305 1547.08 731.609 1547.98 739.029C1549.8 753.513 1549.8 768.167 1547.98 782.65C1547.12 790.077 1545.43 797.384 1542.96 804.44C1540.51 797.378 1538.83 790.073 1537.94 782.65C1536.1 768.168 1536.1 753.511 1537.94 739.029C1538.82 731.605 1540.5 724.299 1542.96 717.239Z" fill="#37474F"/>
<path d="M1586.58 760.818C1579.51 763.296 1572.19 764.98 1564.75 765.84C1557.52 766.761 1550.25 767.216 1542.96 767.202C1535.67 767.236 1528.4 766.781 1521.17 765.84C1513.76 764.981 1506.46 763.297 1499.42 760.818C1506.49 758.377 1513.79 756.693 1521.21 755.797C1528.44 754.877 1535.72 754.422 1543 754.435C1550.29 754.456 1557.56 754.925 1564.79 755.839C1572.21 756.708 1579.52 758.378 1586.58 760.818Z" fill="#37474F"/>
<path d="M1573.81 730.007C1570.55 736.738 1566.55 743.089 1561.9 748.945C1552.96 760.479 1542.61 770.845 1531.09 779.799C1525.22 784.426 1518.87 788.407 1512.15 791.673C1515.38 784.921 1519.37 778.554 1524.02 772.692C1528.48 766.928 1533.3 761.455 1538.45 756.307C1543.61 751.165 1549.08 746.347 1554.83 741.88C1560.72 737.253 1567.08 733.272 1573.81 730.007Z" fill="#37474F"/>
<path d="M1573.81 791.673C1567.08 788.407 1560.72 784.426 1554.83 779.799C1549.07 775.33 1543.6 770.497 1538.45 765.329C1533.29 760.206 1528.47 754.747 1524.02 748.987C1519.37 743.126 1515.38 736.759 1512.15 730.007C1518.88 733.256 1525.23 737.238 1531.09 741.88C1536.87 746.312 1542.34 751.133 1547.47 756.307C1552.64 761.46 1557.46 766.948 1561.9 772.734C1566.55 778.59 1570.55 784.941 1573.81 791.673Z" fill="#37474F"/>
<path d="M1712.94 717.239C1715.38 724.301 1717.05 731.607 1717.92 739.029C1719.76 753.511 1719.76 768.168 1717.92 782.65C1717.03 790.073 1715.35 797.378 1712.89 804.44C1710.42 797.384 1708.74 790.077 1707.87 782.65C1706.06 768.167 1706.06 753.513 1707.87 739.029C1708.79 731.607 1710.48 724.304 1712.94 717.239Z" fill="#37474F"/>
<path d="M1756.51 760.818C1749.46 763.3 1742.15 764.985 1734.73 765.84C1727.5 766.76 1720.22 767.215 1712.94 767.202C1705.65 767.237 1698.37 766.782 1691.15 765.84C1683.71 764.98 1676.38 763.296 1669.31 760.818C1676.39 758.381 1683.71 756.697 1691.15 755.797C1698.37 754.875 1705.65 754.421 1712.94 754.435C1720.22 754.457 1727.5 754.926 1734.73 755.839C1742.15 756.7 1749.45 758.37 1756.51 760.818Z" fill="#37474F"/>
<path d="M1743.75 730.007C1740.51 736.745 1736.53 743.098 1731.87 748.945C1727.44 754.727 1722.62 760.201 1717.45 765.329C1712.3 770.497 1706.83 775.33 1701.06 779.799C1695.19 784.417 1688.84 788.397 1682.12 791.673C1685.36 784.931 1689.33 778.565 1693.96 772.692C1702.91 761.17 1713.28 750.819 1724.81 741.88C1730.68 737.262 1737.03 733.282 1743.75 730.007Z" fill="#37474F"/>
<path d="M1743.75 791.673C1737.03 788.397 1730.68 784.417 1724.81 779.799C1713.3 770.831 1702.94 760.483 1693.96 748.987C1689.33 743.114 1685.36 736.749 1682.12 730.007C1688.85 733.267 1695.2 737.248 1701.06 741.88C1706.83 746.334 1712.3 751.153 1717.45 756.307C1722.61 761.46 1727.43 766.948 1731.87 772.734C1736.53 778.581 1740.51 784.934 1743.75 791.673Z" fill="#37474F"/>
<path d="M1595.05 722.346V954.115H1529.55V722.346C1529.55 634.21 1462.61 562.543 1380.26 562.543C1297.91 562.543 1230.97 634.21 1230.97 722.346V954.115H1165.47V722.346C1165.47 596.121 1261.83 493.557 1380.26 493.557C1498.7 493.557 1595.05 596.121 1595.05 722.346Z" fill="#455A64"/>
<path d="M1165.47 782.608L1230.97 785.246V954.115H1165.47V782.608Z" fill="#263238"/>
<path d="M1595.05 800.099V954.115H1529.55V797.418L1595.05 800.099Z" fill="#263238"/>
<path d="M1679.02 822.144H1081.55V1364.2H1679.02V822.144Z" fill="#047857"/>
<path opacity="0.1" d="M1678.97 822.144H1380.26V1364.2H1678.97V822.144Z" fill="black"/>
<path d="M1405.54 1113.02L1430.52 1231.63H1324.38L1349.41 1113.02C1339.62 1106.93 1332.09 1097.81 1327.95 1087.05C1323.81 1076.29 1323.28 1064.47 1326.45 1053.39C1329.62 1042.3 1336.32 1032.55 1345.52 1025.61C1354.73 1018.67 1365.95 1014.92 1377.48 1014.92C1389 1014.92 1400.22 1018.67 1409.43 1025.61C1418.63 1032.55 1425.33 1042.3 1428.5 1053.39C1431.67 1064.47 1431.14 1076.29 1427 1087.05C1422.86 1097.81 1415.33 1106.93 1405.54 1113.02Z" fill="#263238"/>
<path d="M1206.71 1112.81C1206.71 1112.81 1175.48 1362.88 1124.15 1419.23C1062.53 1486.72 1017.76 1476.85 992.903 1511.66C968.05 1476.81 923.321 1486.72 861.613 1419.18C810.288 1362.88 779.094 1112.77 779.094 1112.77C914.342 1047.15 992.988 973.564 992.988 973.564C995.329 975.862 1073.55 1048.21 1206.71 1112.81Z" fill="#EBEBEB"/>
<path d="M992.989 973.606V1511.62C968.135 1476.76 923.407 1486.68 861.699 1419.14C810.374 1362.84 779.18 1112.73 779.18 1112.73C914.343 1047.15 992.989 973.564 992.989 973.564V973.606Z" fill="#DBDBDB"/>
<path d="M1173.56 1132.98C1173.56 1132.98 1147.17 1344.2 1103.81 1391.78C1051.68 1448.89 1013.88 1440.51 992.861 1469.91C971.837 1440.51 934.046 1448.89 881.955 1391.78C838.589 1344.2 812.246 1132.98 812.246 1132.98C926.513 1077.66 992.861 1015.31 992.861 1015.31C992.861 1015.31 1059.29 1077.49 1173.56 1132.98Z" fill="#DBDBDB"/>
<path d="M812.289 1132.98C812.289 1132.98 838.675 1344.2 882.041 1391.78C934.089 1448.85 971.71 1440.51 992.989 1469.83V1015.4C990.903 1017.27 924.896 1078.34 812.289 1132.98Z" fill="#C7C7C7"/>
<path d="M1052.12 1301.84C1084.83 1269.13 1084.83 1216.1 1052.12 1183.4C1019.42 1150.69 966.387 1150.69 933.68 1183.4C900.972 1216.1 900.972 1269.13 933.68 1301.84C966.387 1334.55 1019.42 1334.55 1052.12 1301.84Z" fill="#047857"/>
<path d="M983.37 1297.04L946.047 1258.23L959.878 1244.91L980.433 1266.32L1024.78 1198.31L1040.87 1208.78L983.37 1297.04Z" fill="white"/>
<path d="M703.967 1531.75L713.902 1480.88L1308.19 1596.94C1313.61 1598 1318.4 1601.17 1321.49 1605.76C1324.58 1610.34 1325.72 1615.97 1324.66 1621.4L1322.71 1631.34C1321.65 1636.77 1318.48 1641.55 1313.89 1644.64C1309.31 1647.73 1303.68 1648.87 1298.25 1647.81L703.967 1531.75Z" fill="#047857"/>
<path opacity="0.1" d="M713.857 1480.83L703.914 1531.74L775.672 1545.76L785.616 1494.84L713.857 1480.83Z" fill="black"/>
<path d="M486.554 1415.95L469.062 1506.43C466.103 1521.59 466.16 1537.2 469.231 1552.34C472.301 1567.49 478.325 1581.88 486.958 1594.7C495.591 1607.52 506.664 1618.51 519.544 1627.05C532.425 1635.59 546.862 1641.5 562.03 1644.46C577.197 1647.42 592.8 1647.36 607.945 1644.29C623.091 1641.22 637.484 1635.2 650.301 1626.57C663.119 1617.93 674.111 1606.86 682.65 1593.98C691.188 1581.1 697.106 1566.66 700.065 1551.5L717.684 1461.23C723.689 1430.58 717.272 1398.8 699.845 1372.88C682.418 1346.96 655.409 1329.03 624.759 1323.03C594.11 1317.02 562.33 1323.44 536.411 1340.86C510.493 1358.29 492.558 1385.3 486.554 1415.95ZM680.574 1438.55C675.339 1465.4 651.89 1484.77 622.908 1489.4C648.017 1504.68 662.487 1531.37 657.21 1558.22C650.23 1594.14 610.609 1616.69 568.775 1608.52C526.941 1600.35 498.81 1564.56 505.832 1528.68C511.067 1501.83 534.516 1482.47 563.54 1477.62C538.389 1462.42 523.962 1435.65 529.196 1408.8C536.218 1372.84 575.754 1350.37 617.546 1358.54C659.337 1366.71 687.766 1402.63 680.744 1438.55H680.574Z" fill="#047857"/>
<path d="M718.321 1457.9L699.422 1554.67C698.403 1559.89 701.804 1564.94 707.018 1565.96L711.612 1566.85C716.826 1567.87 721.877 1564.47 722.896 1559.26L741.795 1462.48C742.813 1457.27 739.412 1452.22 734.199 1451.2L729.604 1450.3C724.391 1449.28 719.339 1452.68 718.321 1457.9Z" fill="#047857"/>
<path d="M741.797 1462.49L722.898 1559.27C721.88 1564.48 725.281 1569.53 730.494 1570.55L735.089 1571.45C740.302 1572.46 745.354 1569.06 746.372 1563.85L765.271 1467.07C766.29 1461.86 762.889 1456.81 757.675 1455.79L753.081 1454.89C747.867 1453.87 742.816 1457.28 741.797 1462.49Z" fill="#047857"/>
<path d="M1166.16 1547.37L1183.86 1550.81L1193.86 1499.41L1209.01 1502.34L1203.78 1529.15L1221.44 1532.6L1226.67 1505.79L1240.08 1508.38L1231.78 1550.77L1249.48 1554.26L1257.78 1511.87L1276.76 1515.58L1265.74 1572.18L1283.44 1575.63L1294.51 1519.02L1312.47 1522.56L1298.34 1594.9L1140.2 1564.01L1154.28 1491.66L1176.16 1495.92L1166.16 1547.37Z" fill="#047857"/>
<path d="M1776.05 1282.36L1660.08 1375.99C1637.82 1393.78 1618.63 1409.78 1609.48 1419.01C1607.11 1420.96 1605.21 1423.4 1603.9 1426.16C1603.9 1426.16 1603.9 1426.16 1603.9 1426.42C1604.71 1436.59 1741.75 1618.61 1748.6 1623.33C1755.45 1628.06 1769.58 1608.74 1769.88 1597.46C1770.17 1586.18 1748.9 1492.98 1748.9 1492.98L1863.8 1398.25L1776.05 1282.36Z" fill="#C95F50"/>
<path d="M1683.74 1356.88L1659.95 1376.07C1637.69 1393.86 1618.5 1409.86 1609.35 1419.1C1607.22 1421.25 1605.34 1423.65 1603.78 1426.25C1603.78 1426.25 1603.78 1426.25 1603.78 1426.5C1604.58 1436.68 1741.62 1618.69 1748.47 1623.42C1755.32 1628.14 1769.45 1608.82 1769.75 1597.54C1770.05 1586.27 1748.77 1493.06 1748.77 1493.06L1773.2 1473.87L1683.74 1356.88Z" fill="#EBEBEB"/>
<path d="M1748.34 1623.55C1741.41 1618.82 1604.41 1436.85 1603.65 1426.59C1603.26 1422.72 1628.63 1401.05 1659.99 1376.12L1661.01 1375.31L1750.51 1491.74L1748.51 1493.19C1748.51 1493.19 1769.79 1586.31 1769.49 1597.67C1769.2 1609.03 1755.24 1628.31 1748.34 1623.55Z" fill="#047857"/>
<path d="M1753.83 1616.18C1731.49 1584.95 1638.46 1461.06 1613.99 1431.87C1613.99 1431.61 1613.65 1431.87 1613.99 1431.87C1635.27 1463.32 1729.49 1586.48 1753.54 1616.44C1753.88 1617.08 1754.34 1617.08 1753.83 1616.18Z" fill="#263238"/>
<path d="M1755.7 1503.32C1748.85 1489.57 1735.92 1476.17 1720.34 1473.53C1719.74 1473.53 1719.62 1474.25 1720.04 1474.59C1732.42 1483.28 1743.84 1493.26 1754.09 1504.38C1754.24 1504.56 1754.46 1504.67 1754.69 1504.7C1754.92 1504.73 1755.16 1504.68 1755.35 1504.55C1755.55 1504.42 1755.69 1504.22 1755.76 1504C1755.82 1503.77 1755.8 1503.53 1755.7 1503.32Z" fill="#263238"/>
<path d="M1757.03 1516C1750.17 1502.21 1737.19 1488.85 1721.66 1486.21C1721.06 1486.21 1720.94 1486.98 1721.32 1487.28C1733.7 1495.96 1745.11 1505.95 1755.37 1517.07C1755.44 1517.18 1755.53 1517.27 1755.63 1517.34C1755.74 1517.42 1755.86 1517.47 1755.98 1517.5C1756.11 1517.53 1756.24 1517.53 1756.37 1517.5C1756.5 1517.48 1756.62 1517.43 1756.73 1517.36C1756.84 1517.29 1756.93 1517.2 1757 1517.1C1757.08 1516.99 1757.13 1516.87 1757.16 1516.75C1757.19 1516.62 1757.19 1516.49 1757.17 1516.36C1757.14 1516.23 1757.09 1516.11 1757.03 1516Z" fill="#263238"/>
<path d="M1758.3 1528.64C1751.49 1514.9 1738.51 1501.53 1722.98 1498.85C1722.38 1498.85 1722.21 1499.62 1722.64 1499.92C1735.01 1508.61 1746.43 1518.6 1756.68 1529.71C1756.75 1529.81 1756.84 1529.9 1756.95 1529.97C1757.06 1530.05 1757.17 1530.1 1757.3 1530.12C1757.42 1530.15 1757.55 1530.15 1757.68 1530.12C1757.8 1530.1 1757.92 1530.05 1758.03 1529.98C1758.13 1529.91 1758.22 1529.82 1758.29 1529.72C1758.37 1529.61 1758.42 1529.49 1758.44 1529.37C1758.47 1529.25 1758.47 1529.12 1758.44 1528.99C1758.42 1528.87 1758.37 1528.75 1758.3 1528.64Z" fill="#263238"/>
<path d="M1838.61 1170.78C1830.39 1211.33 1662.16 1373.09 1662.16 1373.09L1779.45 1508.47C1779.45 1508.47 2018.29 1270.15 2005.82 1180.48C1994.96 1102.56 1878.14 789.204 1878.14 789.204H1743.75C1743.75 789.204 1846.65 1130.9 1838.61 1170.78Z" fill="#37474F"/>
<path d="M1838.61 1170.78C1830.39 1211.33 1662.16 1373.09 1662.16 1373.09L1779.45 1508.47C1779.45 1508.47 2018.29 1270.15 2005.82 1180.48C1994.96 1102.56 1878.14 789.204 1878.14 789.204H1743.75C1743.75 789.204 1846.65 1130.9 1838.61 1170.78Z" fill="#37474F"/>
<path d="M1792.77 1476.3C1777.2 1456.89 1781.96 1462.25 1766.17 1443.02C1758.43 1433.61 1707.57 1371.86 1698.81 1364.33C1698.81 1364.33 1698.3 1364.33 1698.42 1364.67C1704.3 1374.58 1756.22 1435.44 1764.13 1444.72C1780.3 1463.61 1775.88 1458.04 1792.22 1476.76C1792.56 1477.1 1793.07 1476.64 1792.77 1476.3Z" fill="#263238"/>
<path d="M1855.33 1151.03C1853.37 1140.9 1851.08 1130.81 1849.08 1120.73C1844.68 1100.13 1840.04 1079.6 1835.16 1059.15C1825.46 1018.55 1814.92 978.174 1803.54 938.028C1792.09 897.769 1779.96 857.552 1765.96 818.058C1764.26 813.164 1762.47 808.313 1760.68 803.461C1760.68 803.382 1760.65 803.306 1760.6 803.25C1760.54 803.194 1760.47 803.163 1760.39 803.163C1760.31 803.163 1760.23 803.194 1760.18 803.25C1760.12 803.306 1760.09 803.382 1760.09 803.461C1772.22 843.04 1784.69 882.49 1796.01 922.239C1807.33 961.988 1817.75 1001.74 1827.63 1041.74C1832.56 1061.83 1837.16 1082 1841.67 1102.17C1843.88 1112.09 1845.93 1122.05 1848.14 1131.96C1850.77 1142.05 1852.66 1152.32 1853.8 1162.69C1854.11 1172.51 1851.34 1182.18 1845.88 1190.35C1840.82 1198.61 1834.9 1206.35 1829.16 1214.14C1817.67 1229.72 1708.13 1351.82 1704.59 1355.13C1704.3 1355.39 1704.59 1355.77 1705.02 1355.52C1719.7 1342.33 1812.65 1241.72 1824.44 1226.14C1830.31 1218.44 1835.97 1210.65 1841.46 1202.74C1847.05 1195.59 1851.55 1187.66 1854.82 1179.2C1857.41 1170.01 1857.58 1160.31 1855.33 1151.03Z" fill="#263238"/>
<path d="M1855.03 789.204L1830.61 1109.88C1807.28 1000.12 1743.75 789.204 1743.75 789.204H1855.03Z" fill="#263238"/>
<path d="M1797.33 1449.44C1797.33 1449.44 1826.39 1590.9 1826.39 1591.03C1826.78 1619.5 1827.63 1644.48 1829.24 1657.38C1829.28 1660.43 1830.04 1663.44 1831.46 1666.15C1839.97 1671.76 2067.78 1675.3 2075.78 1672.74C2083.78 1670.19 2077.14 1647.21 2068.38 1640.06C2059.61 1632.91 1973.05 1592.52 1973.05 1592.52L1942.58 1451.14L1797.33 1449.44Z" fill="#C95F50"/>
<path d="M2075.99 1673.13C2068.03 1675.68 1840.22 1672.15 1831.67 1666.53C1830.28 1663.81 1829.52 1660.81 1829.46 1657.76C1829.44 1657.68 1829.44 1657.59 1829.46 1657.51C1827.8 1644.74 1826.99 1619.72 1826.56 1591.2L1821.54 1566.56H1967.56L1973.26 1593.03C1973.26 1593.03 2059.86 1633.42 2068.67 1640.61C2077.48 1647.8 2084.04 1670.61 2075.99 1673.13Z" fill="#EBEBEB"/>
<path d="M2075.99 1673.13C2067.99 1675.68 1840.22 1672.15 1831.67 1666.53C1828.35 1664.44 1826.95 1631.21 1826.39 1591.03V1589.75L1973.34 1590.39V1592.9C1973.34 1592.9 2059.91 1633.25 2068.67 1640.44C2077.44 1647.63 2083.99 1670.61 2075.99 1673.13Z" fill="#047857"/>
<path d="M2073.57 1664.27C2035.27 1662.74 1880.23 1660.02 1842.18 1661.55C1841.88 1661.55 1841.88 1661.76 1842.18 1661.8C1880.19 1664.15 2035.14 1665.46 2073.57 1664.91C2074.38 1664.87 2074.38 1664.32 2073.57 1664.27Z" fill="#263238"/>
<path d="M1985.6 1593.54C1970.54 1590.48 1952.02 1592.52 1940.28 1603.12C1939.85 1603.5 1940.28 1604.14 1940.92 1604.01C1955.43 1599.58 1970.39 1596.73 1985.52 1595.5C1985.64 1595.51 1985.77 1595.49 1985.89 1595.44C1986.01 1595.4 1986.13 1595.33 1986.22 1595.24C1986.31 1595.16 1986.39 1595.05 1986.45 1594.94C1986.5 1594.82 1986.53 1594.69 1986.54 1594.56C1986.54 1594.44 1986.52 1594.31 1986.48 1594.19C1986.43 1594.07 1986.37 1593.95 1986.28 1593.86C1986.19 1593.76 1986.09 1593.69 1985.97 1593.63C1985.86 1593.58 1985.73 1593.55 1985.6 1593.54Z" fill="#263238"/>
<path d="M1996.37 1600.27C1981.35 1597.2 1962.79 1599.25 1951.09 1609.84C1950.66 1610.27 1951.09 1610.91 1951.73 1610.74C1966.23 1606.31 1981.17 1603.46 1996.28 1602.22C1996.54 1602.24 1996.8 1602.14 1996.99 1601.97C1997.18 1601.79 1997.29 1601.55 1997.3 1601.29C1997.32 1601.03 1997.22 1600.77 1997.05 1600.58C1996.87 1600.39 1996.63 1600.28 1996.37 1600.27Z" fill="#263238"/>
<path d="M2007.18 1607.03C1992.11 1603.97 1973.6 1606.01 1961.9 1616.57C1961.43 1616.99 1961.9 1617.63 1962.54 1617.5C1977.04 1613.1 1991.98 1610.24 2007.09 1608.99C2007.22 1609 2007.35 1608.98 2007.47 1608.93C2007.59 1608.89 2007.7 1608.82 2007.8 1608.73C2007.89 1608.65 2007.97 1608.54 2008.02 1608.43C2008.08 1608.31 2008.11 1608.18 2008.11 1608.05C2008.12 1607.93 2008.1 1607.8 2008.06 1607.68C2008.01 1607.56 2007.94 1607.44 2007.86 1607.35C2007.77 1607.26 2007.67 1607.18 2007.55 1607.12C2007.43 1607.07 2007.31 1607.04 2007.18 1607.03Z" fill="#263238"/>
<path d="M1865.42 789.204C1860.18 811.329 1856.31 833.757 1853.84 856.36C1851.08 884.533 1847.54 909.472 1843.8 912.579C1840.05 915.685 1818.26 929.602 1811.11 933.857C1811.11 933.857 1877.42 1134.9 1894.53 1201.97C1919.34 1299.09 1978.75 1590.56 1978.75 1590.56H1820.43C1820.43 1590.56 1772.3 1313.13 1751.24 1220.61C1733.19 1141.33 1664.08 903.471 1664.08 903.471C1656.79 885.133 1653.51 865.444 1654.47 845.733C1655.43 826.022 1660.61 806.746 1669.65 789.204C1669.65 789.204 1865.42 789.119 1865.42 789.204Z" fill="#37474F"/>
<path d="M1972.96 1559.92C1948.07 1559.92 1955.21 1559.5 1930.4 1559.62C1918.23 1559.62 1838.22 1560.22 1826.9 1562.31C1826.84 1562.31 1826.77 1562.33 1826.72 1562.38C1826.68 1562.43 1826.65 1562.49 1826.65 1562.56C1826.65 1562.63 1826.68 1562.69 1826.72 1562.74C1826.77 1562.79 1826.84 1562.82 1826.9 1562.82C1838.31 1564.52 1918.27 1562.56 1930.45 1562.26C1955.34 1561.62 1948.19 1561.54 1973 1560.65C1973.08 1560.62 1973.14 1560.56 1973.18 1560.49C1973.23 1560.43 1973.25 1560.35 1973.24 1560.27C1973.24 1560.19 1973.21 1560.11 1973.16 1560.05C1973.11 1559.99 1973.04 1559.94 1972.96 1559.92Z" fill="#263238"/>
<path d="M1854.91 904.62C1839.53 913.082 1824.92 922.865 1811.24 933.857C1811.16 933.949 1811.11 934.065 1811.1 934.188C1811.09 934.312 1811.12 934.435 1811.19 934.537C1811.26 934.64 1811.36 934.717 1811.48 934.756C1811.59 934.795 1811.72 934.793 1811.84 934.751C1826.65 925.474 1841.63 916.451 1856.06 906.365C1856.23 906.193 1856.34 905.964 1856.37 905.718C1856.4 905.472 1856.34 905.225 1856.2 905.019C1856.07 904.812 1855.86 904.66 1855.63 904.587C1855.39 904.514 1855.13 904.526 1854.91 904.62Z" fill="#263238"/>
<path d="M1842.82 795.247C1842.82 794.694 1841.71 794.737 1841.8 795.247C1844.55 812.945 1846.42 830.771 1847.37 848.657C1847.93 856.913 1848.35 903.088 1833.67 901.982C1831.2 901.982 1829.41 899.684 1828.69 896.151C1828.03 891.47 1827.94 886.725 1828.44 882.022C1828.44 872.319 1828.44 862.659 1827.67 852.955C1826.54 835.038 1823.57 817.283 1818.82 799.971C1818.82 799.847 1818.77 799.728 1818.68 799.64C1818.59 799.552 1818.47 799.503 1818.35 799.503C1818.22 799.503 1818.11 799.552 1818.02 799.64C1817.93 799.728 1817.88 799.847 1817.88 799.971C1822.13 824.553 1824.52 849.421 1825.03 874.362C1825.03 886.406 1821.92 905.003 1834.48 904.876C1847.03 904.748 1850.78 873.894 1851.03 865.595C1851.35 841.889 1848.59 818.242 1842.82 795.247Z" fill="#263238"/>
<path d="M1834.22 903.258C1833.44 906.495 1832.88 909.779 1832.52 913.089C1832.05 915.707 1832.05 918.387 1832.52 921.005C1832.56 921.106 1832.64 921.192 1832.73 921.253C1832.82 921.313 1832.92 921.345 1833.03 921.345C1833.14 921.345 1833.25 921.313 1833.34 921.253C1833.43 921.192 1833.5 921.106 1833.54 921.005C1834.68 918.472 1835.4 915.769 1835.67 913.004C1836.31 909.94 1836.99 906.918 1837.54 903.812C1837.62 903.372 1837.51 902.92 1837.25 902.557C1836.99 902.194 1836.6 901.949 1836.16 901.875C1835.72 901.802 1835.27 901.906 1834.91 902.166C1834.54 902.425 1834.3 902.818 1834.22 903.258Z" fill="#263238"/>
<path d="M1686.68 902.45C1700.31 901.691 1713.79 899.145 1726.77 894.875C1741.5 890.167 1754.85 881.927 1765.66 870.872C1771.78 864.797 1776.83 857.733 1780.6 849.976C1780.6 849.679 1781.2 849.976 1781.11 850.232C1778.8 857.743 1775.23 864.809 1770.56 871.128C1765.72 877.386 1759.99 882.893 1753.53 887.47C1740.77 896.83 1725.74 902.631 1710 904.28C1702.23 905.487 1694.32 905.371 1686.59 903.939C1685.36 903.769 1685.7 902.535 1686.68 902.45Z" fill="#263238"/>
<path d="M1801.92 1472.68C1801.54 1469.02 1801.03 1465.36 1800.52 1461.7C1799.54 1454.72 1798.35 1447.7 1797.24 1440.72C1795.11 1426.63 1792.69 1412.59 1790.18 1398.59C1785.24 1370.63 1779.49 1342.75 1773.45 1315C1770 1299.34 1766.05 1283.85 1761.83 1268.19C1761.58 1267.08 1760.05 1267.64 1760.22 1268.66C1762.77 1282.87 1765.24 1297.04 1768.13 1311.22C1771.03 1325.39 1773.92 1339.35 1776.64 1353.43C1782.18 1381.27 1787.33 1409.23 1792.86 1437.06C1794.39 1444.93 1795.84 1452.8 1797.37 1460.68C1798.14 1464.59 1798.9 1468.55 1799.75 1472.42C1800.6 1476.3 1801.8 1480.17 1802.43 1484.08C1802.43 1484.47 1803.07 1484.3 1803.03 1484.08C1802.43 1480.3 1802.39 1476.64 1801.92 1472.68Z" fill="#263238"/>
<path d="M1911.12 1262.32C1905.85 1236.06 1898.74 1210.14 1891.59 1184.31C1877.21 1132.39 1860.27 1081.19 1843.37 1029.99C1838.49 1015.27 1833.61 1000.53 1828.73 985.778C1826.31 978.415 1814.39 938.624 1812.9 934.708C1812.88 934.643 1812.83 934.587 1812.78 934.547C1812.72 934.508 1812.65 934.486 1812.58 934.486C1812.51 934.486 1812.45 934.508 1812.39 934.547C1812.33 934.587 1812.29 934.643 1812.26 934.708C1815.71 948.242 1820.39 967.988 1824.35 981.522C1828.31 995.055 1832.52 1007.95 1836.65 1021.1C1844.74 1047.02 1852.95 1072.94 1860.78 1098.9C1876.31 1150.26 1891.72 1201.63 1904.32 1253.81C1907.85 1268.45 1911.38 1283.04 1914.57 1297.72C1917.76 1312.41 1920.57 1327.13 1923.64 1341.81C1923.64 1342.24 1924.4 1342.11 1924.36 1341.81C1921.72 1315.17 1916.49 1288.7 1911.12 1262.32Z" fill="#263238"/>
<path d="M1812.69 1399.74C1803.97 1349.64 1793.54 1299.81 1781.96 1250.27C1770.39 1200.74 1757.41 1151.03 1743.15 1101.96C1728.89 1052.89 1713.11 1004.08 1696.34 955.987C1687.8 933.299 1680.62 910.12 1674.85 886.576C1669.61 863.169 1666.97 837.848 1672.42 814.228C1673.75 808.234 1675.56 802.357 1677.83 796.652C1677.83 796.269 1677.4 795.928 1677.23 796.311C1658.21 840.699 1670.55 889.214 1685.06 932.964C1692.98 956.924 1701.45 980.713 1709.32 1004.72C1717.19 1028.72 1725.02 1054.08 1732.43 1078.94C1747.02 1128.18 1760.6 1177.71 1772.73 1227.59C1784.86 1277.47 1795.71 1327.69 1805.24 1378.16C1814.78 1428.63 1822.82 1479.66 1830.99 1530.51C1832.05 1537.15 1832.86 1543.79 1833.76 1550.43C1833.76 1550.81 1834.35 1550.81 1834.31 1550.43C1828.01 1500 1821.37 1449.78 1812.69 1399.74Z" fill="#263238"/>
<path d="M1809.45 579.012C1828.1 647.104 1881.8 729.241 1907.34 740.731C1929.55 750.604 2032.63 712.473 2071.52 687.704C2082.59 680.64 2036.84 616.931 2023.52 621.357C1979.98 635.869 1932.62 657.318 1928.96 656.084C1921.55 653.573 1875.33 596.887 1841.67 558.755C1803.92 515.899 1802.05 551.903 1809.45 579.012Z" fill="#C95F50"/>
<path d="M2145.02 629.954C2153.79 626.294 2221.24 624.166 2221.24 609.526C2221.24 594.886 2135.36 598.972 2135.36 598.972L2145.02 629.954Z" fill="#C95F50"/>
<path d="M2015.65 631.656C2027.43 617.016 2037.82 601.227 2048.08 598.333C2055.14 596.333 2131.53 599.61 2143.45 598.887C2155.36 598.163 2197.96 599.27 2198.77 609.739C2200.18 624.506 2149.79 624.379 2144.43 631.954C2125.83 658.042 2055.05 696.641 2055.05 696.641L2015.65 631.656Z" fill="#C95F50"/>
<path d="M2200.09 609.952C2199.31 607.234 2197.57 604.891 2195.2 603.355C2189.62 600.304 2183.34 598.763 2176.98 598.887C2167.67 598.05 2158.3 597.979 2148.98 598.674C2148.98 598.674 2148.98 598.972 2148.98 599.014C2156 599.014 2162.94 599.014 2169.92 599.78C2176.32 600.019 2182.68 600.99 2188.86 602.674C2191.63 603.389 2194.15 604.863 2196.13 606.93C2196.82 607.708 2197.29 608.649 2197.51 609.663C2197.72 610.676 2197.68 611.728 2197.37 612.718C2195.37 619.144 2182.64 621.23 2176.77 622.379C2169.11 624.081 2161.15 625.57 2153.45 627.145C2153.11 627.145 2153.45 627.741 2153.45 627.656C2161.45 626.081 2169.88 625.485 2177.92 624.038C2184.64 623.382 2191.08 621.04 2196.65 617.229C2197.86 616.474 2198.83 615.387 2199.44 614.096C2200.05 612.806 2200.28 611.368 2200.09 609.952Z" fill="#263238"/>
<path d="M2012.71 622.634L2073.14 711.111C2073.14 711.111 1979.52 757.924 1943.68 757.201C1909.64 756.392 1897.25 751.371 1886.48 741.199C1879.8 734.901 1841.88 681.321 1810.94 592.248C1784.98 517.602 1823.41 528.411 1857.76 569.948C1874.78 590.545 1929.43 651.956 1932.15 651.743C1934.87 651.53 2012.71 622.634 2012.71 622.634Z" fill="#047857"/>
<path d="M1994.11 637.018C2003.18 650.126 2011.86 663.489 2020.41 676.937C2024.67 683.491 2040.33 710.302 2044.88 717.92C2044.88 718.218 2044.25 718.729 2044.03 718.431C2039.31 711.707 2022.24 684.938 2018.12 678.299C2009.6 664.723 2001.56 651.105 1993.73 637.274C1993.71 637.248 1993.7 637.22 1993.7 637.191C1993.69 637.161 1993.69 637.13 1993.7 637.101C1993.7 637.071 1993.71 637.043 1993.73 637.018C1993.75 636.993 1993.77 636.971 1993.79 636.954C1993.82 636.938 1993.85 636.926 1993.88 636.92C1993.91 636.914 1993.94 636.914 1993.97 636.92C1994 636.926 1994.02 636.938 1994.05 636.955C1994.07 636.972 1994.1 636.993 1994.11 637.018Z" fill="#263238"/>
<path opacity="0.1" d="M1961.81 754.945C1955.88 756.405 1949.79 757.162 1943.68 757.201C1909.64 756.392 1897.25 751.371 1886.49 741.199C1879.85 734.901 1841.88 681.363 1810.99 592.248C1806.13 579.91 1803.26 566.883 1802.48 553.648C1802.48 552.839 1802.48 551.988 1802.48 551.222C1802.43 550.471 1802.43 549.718 1802.48 548.967C1802.54 548.352 1802.64 547.741 1802.77 547.137C1803.21 544.359 1804.52 541.794 1806.52 539.817C1827.67 568.16 1926.83 702.089 1961.81 754.945Z" fill="black"/>
<path d="M2183.67 586.332H1954.54V598.631H2183.67V586.332Z" fill="#C7C7C7"/>
<path d="M2183.67 586.332V598.631H2044.5L2053.91 586.332H2183.67Z" fill="#A6A6A6"/>
<path d="M2064.04 598.631H2217.29L2297.04 463.213H2143.79L2064.04 598.631Z" fill="#C7C7C7"/>
<path d="M2174.81 530.837C2171.96 537.093 2174.05 543.604 2179.49 545.562C2182.54 546.266 2185.74 545.85 2188.51 544.389C2191.28 542.927 2193.42 540.519 2194.56 537.604C2197.41 531.348 2195.33 524.837 2189.88 522.879C2186.83 522.184 2183.63 522.604 2180.87 524.064C2178.11 525.525 2175.96 527.928 2174.81 530.837Z" fill="white"/>
<path d="M1654.89 835.847C1655.44 836.443 1894.78 834.741 1896.95 832.272C1899.93 828.783 1843.25 570.033 1818.35 538.242C1813.03 531.433 1795.67 529.731 1780.94 531.688C1777.1 532.165 1773.32 532.977 1769.62 534.114H1769.24C1766.25 535.048 1763.44 536.488 1760.94 538.37C1720.3 571.522 1686.97 686.257 1679.27 720.687C1666.5 777.458 1652.89 833.592 1654.89 835.847Z" fill="#EBEBEB"/>
<path d="M1766.68 534.71C1766.68 534.71 1782.3 641.104 1786.01 668.851C1789.71 696.599 1786.01 842.274 1786.01 842.274L1635.82 855.041C1635.82 855.041 1667.31 758.18 1667.61 752.051C1667.61 752.051 1692.51 635.657 1718.21 587.609C1729.69 566.201 1746.36 548.013 1766.68 534.71Z" fill="#047857"/>
<path d="M1816.69 536.582C1816.69 536.582 1836.99 644.338 1838.78 653.233C1840.56 662.127 1866.57 837.252 1866.57 837.252L1904.15 838.06L1883.76 758.052C1883.76 758.052 1840.14 553.137 1816.69 536.582Z" fill="#047857"/>
<path d="M1808.22 571.011C1796.82 572.331 1775.2 556.457 1769.15 539.647C1768.77 538.455 1772.17 527.518 1775.66 514.112C1777.75 505.898 1779.92 496.748 1781.24 488.237C1781.49 486.492 1832.56 509.516 1832.56 509.516C1827.82 519.662 1824.35 530.354 1822.22 541.349C1822.12 542.538 1822.12 543.734 1822.22 544.924V545.519C1822.05 552.371 1820.48 569.65 1808.22 571.011Z" fill="#C95F50"/>
<path d="M1822.05 545.009C1822.07 545.207 1822.07 545.407 1822.05 545.605C1820.21 545.538 1818.38 545.339 1816.56 545.009C1785.28 539.349 1783.2 498.706 1783.15 488.492C1792.43 491.344 1832.61 509.771 1832.61 509.771C1827.87 519.934 1824.4 530.639 1822.26 541.647C1822.12 542.761 1822.05 543.885 1822.05 545.009Z" fill="#263238"/>
<path d="M1781.84 420.358C1773.62 438.657 1776.77 494.834 1788.73 508.75C1806.09 528.965 1837.97 534.71 1856.01 513.006C1873.5 492.025 1868.14 418.868 1854.44 405.846C1834.27 386.695 1793.92 393.376 1781.84 420.358Z" fill="#C95F50"/>
<path d="M1823.2 460.149C1823.2 460.149 1822.9 460.149 1822.95 460.489C1823.24 464.277 1822.95 468.618 1819.63 470.065C1819.63 470.065 1819.63 470.32 1819.63 470.278C1823.8 469.469 1824.1 463.766 1823.2 460.149Z" fill="#263238"/>
<path d="M1819.63 456.361C1813.54 456.361 1813.67 468.448 1819.33 468.575C1824.99 468.703 1824.73 456.489 1819.63 456.361Z" fill="#263238"/>
<path d="M1846.52 459.936C1846.52 459.936 1846.82 460.149 1846.82 460.277C1846.82 464.064 1847.29 468.448 1850.74 469.639C1850.74 469.639 1850.74 469.895 1850.74 469.852C1846.52 469.341 1845.84 463.766 1846.52 459.936Z" fill="#263238"/>
<path d="M1849.84 455.978C1855.93 455.425 1856.57 467.639 1850.91 468.15C1845.25 468.66 1844.73 456.404 1849.84 455.978Z" fill="#263238"/>
<path d="M1814.73 450.999C1816.39 450.531 1817.84 449.85 1819.46 449.254C1821.2 448.887 1822.78 447.943 1823.93 446.573C1824.2 446.08 1824.31 445.509 1824.23 444.948C1824.16 444.388 1823.9 443.867 1823.5 443.466C1822.57 442.798 1821.47 442.39 1820.32 442.285C1819.18 442.181 1818.03 442.383 1816.99 442.871C1814.73 443.569 1812.82 445.087 1811.63 447.126C1811.41 447.595 1811.32 448.115 1811.38 448.628C1811.45 449.141 1811.65 449.627 1811.97 450.03C1812.3 450.433 1812.73 450.738 1813.21 450.909C1813.7 451.08 1814.23 451.112 1814.73 450.999Z" fill="#263238"/>
<path d="M1854.52 445.679C1852.87 445.368 1851.24 444.97 1849.63 444.488C1847.86 444.292 1846.21 443.531 1844.91 442.317C1844.56 441.858 1844.37 441.298 1844.37 440.722C1844.37 440.145 1844.56 439.585 1844.91 439.126C1845.76 438.371 1846.81 437.856 1847.93 437.632C1849.05 437.408 1850.21 437.483 1851.29 437.849C1853.59 438.277 1855.65 439.534 1857.08 441.381C1857.37 441.816 1857.53 442.324 1857.55 442.848C1857.56 443.371 1857.43 443.888 1857.16 444.338C1856.89 444.788 1856.5 445.153 1856.04 445.391C1855.57 445.628 1855.05 445.728 1854.52 445.679Z" fill="#263238"/>
<path d="M1821.97 495.174C1822.86 496.068 1823.8 497.259 1825.16 497.387C1826.64 497.365 1828.09 497.016 1829.42 496.366C1829.42 496.366 1829.63 496.366 1829.42 496.578C1828.87 497.325 1828.14 497.912 1827.3 498.279C1826.45 498.645 1825.52 498.778 1824.61 498.664C1823.83 498.479 1823.13 498.069 1822.6 497.485C1822.06 496.901 1821.71 496.171 1821.58 495.387C1821.54 495.131 1821.8 495.046 1821.97 495.174Z" fill="#263238"/>
<path d="M1825.8 483.811C1826.75 485.282 1828 486.54 1829.47 487.507C1830.93 488.473 1832.58 489.127 1834.31 489.429C1835.85 489.662 1837.41 489.662 1838.95 489.429C1839.24 489.473 1839.55 489.473 1839.84 489.429H1840.65C1840.85 489.392 1841.04 489.288 1841.18 489.134C1841.32 488.98 1841.4 488.784 1841.42 488.577C1841.44 488.451 1841.44 488.321 1841.42 488.194V487.854C1841.42 484.918 1841.12 480.491 1841.12 480.491C1842.18 481.002 1847.67 483.385 1847.55 481.853C1847.04 468.709 1845.22 455.649 1842.1 442.871C1842.1 442.78 1842.06 442.694 1842 442.63C1841.93 442.566 1841.85 442.53 1841.76 442.53C1841.67 442.53 1841.58 442.566 1841.52 442.63C1841.45 442.694 1841.42 442.78 1841.42 442.871C1841.8 455 1844.31 467.001 1844.91 479.215C1842.96 478.336 1840.89 477.735 1838.78 477.427C1838.35 477.427 1839.59 485.939 1839.46 487.301C1837.07 487.575 1834.66 487.367 1832.35 486.687C1830.05 486.007 1827.91 484.869 1826.05 483.343C1825.88 483.258 1825.59 483.513 1825.8 483.811Z" fill="#263238"/>
<path d="M1837.37 488.152C1835.79 490.236 1833.71 491.889 1831.33 492.961C1829.98 493.496 1828.49 493.6 1827.07 493.259C1824.05 492.493 1823.97 489.727 1824.48 487.343C1824.77 486.075 1825.21 484.847 1825.8 483.683C1829.08 486.367 1833.14 487.933 1837.37 488.152Z" fill="#263238"/>
<path d="M1831.37 492.961C1830.02 493.496 1828.53 493.6 1827.12 493.259C1824.1 492.493 1824.01 489.726 1824.52 487.343C1826.13 487.38 1827.67 487.954 1828.91 488.972C1830.16 489.99 1831.02 491.394 1831.37 492.961Z" fill="#FF9BBC"/>
<path d="M1777.16 468.916C1777.16 468.916 1763.58 435.21 1768.22 417.847C1770.3 409.974 1782.09 406.356 1782.09 406.356C1781.77 402.971 1782.4 399.564 1783.9 396.513C1785.41 393.463 1787.73 390.889 1790.6 389.078C1801.54 381.673 1824.18 387.418 1824.18 387.418C1824.18 387.418 1842.57 368.352 1862.23 380.311C1881.89 392.27 1864.27 413.889 1864.27 413.889C1864.27 413.889 1870.23 426.103 1849.93 431.593C1829.63 437.083 1794.01 422.613 1794.01 422.613C1793.63 435.823 1791.3 448.904 1787.07 461.426C1786.26 463.458 1784.9 465.229 1783.15 466.548C1781.41 467.868 1779.33 468.687 1777.16 468.916Z" fill="#263238"/>
<path d="M1827.93 388.227C1823.53 385.562 1818.63 383.81 1813.54 383.077C1809.02 382.333 1804.4 382.333 1799.88 383.077C1795.84 383.554 1792.01 385.115 1788.79 387.595C1785.56 390.076 1783.07 393.382 1781.58 397.164C1780.94 399.154 1780.7 401.253 1780.88 403.336C1781.06 405.42 1781.66 407.445 1782.64 409.293C1782.64 409.293 1782.94 409.293 1782.86 409.293C1778.98 402.441 1782.86 393.504 1788.9 389.291C1795.94 384.945 1804.32 383.311 1812.48 384.694C1817.71 385.489 1822.83 386.918 1827.71 388.95C1827.76 388.964 1827.81 388.969 1827.86 388.963C1827.91 388.958 1827.96 388.943 1828 388.919C1828.04 388.896 1828.08 388.864 1828.11 388.825C1828.14 388.787 1828.17 388.742 1828.18 388.695C1828.2 388.647 1828.2 388.598 1828.19 388.548C1828.19 388.499 1828.17 388.451 1828.15 388.408C1828.13 388.364 1828.09 388.326 1828.06 388.295C1828.02 388.264 1827.97 388.241 1827.93 388.227Z" fill="#263238"/>
<path d="M1875.76 392.823C1875.25 389.872 1874.02 387.093 1872.17 384.738C1870.32 382.383 1867.91 380.525 1865.16 379.332C1858.96 376.249 1851.9 375.349 1845.12 376.779C1838.3 378.233 1832 381.48 1826.86 386.184C1826.86 386.482 1826.86 386.184 1826.86 386.184C1831.47 382.051 1837.11 379.237 1843.18 378.038C1849.26 376.84 1855.54 377.302 1861.38 379.375C1864.09 380.105 1866.59 381.497 1868.63 383.426C1870.68 385.356 1872.22 387.762 1873.11 390.431C1873.99 393.099 1874.21 395.947 1873.73 398.718C1873.25 401.49 1872.09 404.1 1870.36 406.314C1866.28 411.506 1860.82 415.445 1854.61 417.677C1854.61 417.677 1854.61 417.974 1854.61 417.889C1860.42 416.13 1865.71 412.94 1869.97 408.612C1872 406.542 1873.57 404.063 1874.57 401.341C1875.56 398.618 1875.97 395.715 1875.76 392.823Z" fill="#263238"/>
<path d="M1790.01 467.469C1790.01 467.469 1779.45 448.361 1770.9 451.978C1762.34 455.595 1768.98 482.321 1778.09 486.875C1779.22 487.533 1780.47 487.956 1781.77 488.119C1783.07 488.282 1784.39 488.182 1785.65 487.824C1786.91 487.467 1788.08 486.859 1789.1 486.038C1790.12 485.217 1790.96 484.199 1791.58 483.045L1790.01 467.469Z" fill="#C95F50"/>
<path d="M1772.98 459.511C1772.98 459.511 1772.98 459.511 1772.98 459.766C1775.88 461.598 1778.35 464.02 1780.24 466.872C1782.13 469.725 1783.4 472.945 1783.96 476.321C1783.65 475.619 1783.18 474.993 1782.6 474.487C1782.02 473.981 1781.34 473.607 1780.6 473.388C1779.86 473.17 1779.08 473.114 1778.32 473.224C1777.55 473.333 1776.82 473.606 1776.18 474.023C1776.18 474.023 1776.18 474.448 1776.18 474.406C1777.39 474.156 1778.65 474.288 1779.79 474.783C1780.92 475.278 1781.88 476.113 1782.52 477.172C1783.54 478.962 1784.39 480.842 1785.07 482.79C1785.33 483.428 1786.43 483.215 1786.26 482.492C1787.33 473.98 1782.01 461.426 1772.98 459.511Z" fill="#263238"/>
<path d="M1736.51 559.223C1676.25 626.89 1630.93 722.176 1631.35 744.646C1631.95 769.33 1663.36 856.275 1693.27 897.13C1697.15 902.365 1720.47 900.152 1740.09 889.3C1760.9 877.852 1777.96 857.424 1773.88 851.338C1758.51 828.485 1722.13 739.965 1722.47 726.134C1722.77 713.367 1752.6 634.976 1763.96 589.652C1775.07 546.03 1764.56 527.603 1736.51 559.223Z" fill="#C95F50"/>
<path d="M1656.89 890.364L1769.11 835.549C1769.11 835.549 1724.98 737.071 1724.98 726.432C1724.98 715.792 1754 632.55 1764.94 594.078C1775.88 555.606 1771.66 512.367 1723.74 570.543C1675.82 628.72 1633.95 715.239 1629.18 738.22C1624.41 761.201 1656.89 890.364 1656.89 890.364Z" fill="#047857"/>
<path d="M1730.6 698.174C1732.89 690.882 1735.28 683.605 1737.75 676.342C1740.51 668.213 1743.36 660.127 1746.26 652.084C1749.15 644.04 1752.43 636.55 1755.58 628.805C1755.58 628.251 1756.77 628.805 1756.6 629.188C1752.85 639.529 1749.36 649.998 1745.87 660.468C1748.51 655.701 1751.15 650.977 1753.96 646.296C1754.02 646.242 1754.09 646.207 1754.17 646.197C1754.25 646.187 1754.33 646.202 1754.4 646.239C1754.47 646.277 1754.53 646.335 1754.56 646.406C1754.6 646.477 1754.61 646.558 1754.6 646.636C1751.45 652.424 1748.13 658.084 1744.77 663.659C1743.96 666.17 1743.11 668.724 1742.26 671.235C1737.53 685.279 1733.02 699.408 1728.98 713.792C1727.97 716.977 1727.3 720.257 1726.98 723.58C1726.81 727.369 1727.37 731.156 1728.64 734.731C1730.68 741.327 1732.89 747.838 1735.28 754.307C1739.96 767.372 1745.07 780.225 1750.38 792.992C1756.47 807.547 1763.41 821.888 1770.3 836.06C1770.3 836.06 1766.05 837.167 1766.05 837.252C1766.05 837.337 1765.71 837.252 1765.79 837.039C1765.88 836.826 1768.43 835.635 1768.51 835.635C1761.49 823.378 1754.81 811.334 1748.9 798.439C1742.98 785.544 1737.83 772.905 1733.11 759.542C1730.68 752.732 1728.34 745.923 1726.21 739.029C1723.8 732.638 1723.14 725.717 1724.3 718.984C1725.87 711.92 1728.43 705.025 1730.6 698.174Z" fill="#263238"/>
<path d="M1654.97 858.743C1658.95 856.592 1663.04 854.66 1667.23 852.955C1670.89 851.253 1674.51 849.508 1678.21 847.849C1686.21 844.231 1694.21 840.571 1702.25 836.996C1710.3 833.421 1718.3 829.804 1726.34 826.314C1734.38 822.825 1742.3 819.08 1750.47 816.058C1750.77 816.058 1750.98 816.398 1750.73 816.569C1743.28 821.165 1735.32 825.08 1727.49 828.868C1719.66 832.655 1711.96 836.315 1704.08 839.848C1696.21 843.38 1687.95 846.827 1679.83 850.104C1675.91 851.679 1671.95 853.126 1667.95 854.615C1663.8 856.409 1659.54 857.93 1655.19 859.169C1655.13 859.174 1655.08 859.163 1655.04 859.138C1654.99 859.113 1654.96 859.075 1654.93 859.029C1654.91 858.983 1654.9 858.931 1654.91 858.88C1654.92 858.829 1654.94 858.781 1654.97 858.743Z" fill="#263238"/>
</svg>
