<svg width="500" height="500" viewBox="0 0 500 500" fill="none" xmlns="http://www.w3.org/2000/svg">
<path d="M375 41.6665H125C108.424 41.6665 92.5269 48.2513 80.8058 59.9723C69.0848 71.6934 62.5 87.5905 62.5 104.167V333.333C62.5 349.909 69.0848 365.806 80.8058 377.527C92.5269 389.248 108.424 395.833 125 395.833H178.958L235.208 452.291C237.155 454.222 239.464 455.75 242.002 456.787C244.54 457.824 247.258 458.349 250 458.333C254.966 458.334 259.768 456.56 263.542 453.333L330.625 395.833H375C391.576 395.833 407.473 389.248 419.194 377.527C430.915 365.806 437.5 349.909 437.5 333.333V104.167C437.5 87.5905 430.915 71.6934 419.194 59.9723C407.473 48.2513 391.576 41.6665 375 41.6665ZM395.833 333.333C395.833 338.859 393.638 344.158 389.731 348.065C385.824 351.972 380.525 354.167 375 354.167H322.917C317.951 354.166 313.149 355.939 309.375 359.167L251.042 409.167L202.292 360.208C200.345 358.277 198.036 356.75 195.498 355.713C192.96 354.676 190.242 354.151 187.5 354.167H125C119.475 354.167 114.176 351.972 110.269 348.065C106.362 344.158 104.167 338.859 104.167 333.333V104.167C104.167 98.6412 106.362 93.3421 110.269 89.4351C114.176 85.5281 119.475 83.3332 125 83.3332H375C380.525 83.3332 385.824 85.5281 389.731 89.4351C393.638 93.3421 395.833 98.6412 395.833 104.167V333.333Z" fill="#121212"/>
<path d="M341.635 152.582V228.947C341.635 265.992 279.721 335.838 250.001 335.855C220.281 335.871 158.367 265.992 158.367 228.947V152.582C158.367 123.157 218.301 122.039 250.001 122.039C281.701 122.039 341.635 123.157 341.635 152.582Z" stroke="#121212" stroke-width="15" stroke-linecap="round" stroke-linejoin="round"/>
<path d="M275.455 195.855C281.712 192.071 288.616 189.482 295.817 188.218C303.019 189.482 309.923 192.071 316.179 195.855C309.923 199.639 303.019 202.228 295.817 203.492C288.616 202.228 281.712 199.639 275.455 195.855ZM224.545 195.855C218.289 192.071 211.385 189.482 204.184 188.218C196.982 189.482 190.078 192.071 183.822 195.855C190.078 199.639 196.982 202.228 204.184 203.492C211.385 202.228 218.289 199.639 224.545 195.855ZM260.181 290.038V312.944L250 323.136L239.82 312.949V290.044L260.181 290.038ZM316.179 234.04L295.817 272.22H260.181L250 262.039L239.82 272.22H204.184L183.822 234.04L209.271 256.946H229.639L244.907 241.672H255.099L270.368 256.946H290.735L316.179 234.04ZM318.729 178.037C302.764 169.939 290.17 166.963 272.912 187.204C271.493 188.419 269.686 189.087 267.818 189.087C265.95 189.087 264.144 188.419 262.725 187.204C261.503 185.789 260.83 183.983 260.83 182.113C260.83 180.244 261.503 178.437 262.725 177.023C283.449 155.915 308.038 157.927 318.729 178.037ZM181.272 178.037C197.237 169.939 209.83 166.963 227.089 187.204C228.508 188.419 230.314 189.087 232.182 189.087C234.05 189.087 235.857 188.419 237.276 187.204C238.498 185.789 239.171 183.983 239.171 182.113C239.171 180.244 238.498 178.437 237.276 177.023C216.552 155.915 191.963 157.927 181.272 178.037Z" stroke="#121212" stroke-width="5" stroke-linecap="round" stroke-linejoin="round"/>
</svg>
