<svg width="150" height="50" viewBox="0 0 150 50" fill="none" xmlns="http://www.w3.org/2000/svg">
<path d="M0 33.1H19.4V50H0V33.1Z" fill="#115A2A"/>
<path d="M0 11.2C0 5.01441 5.01441 0 11.2 0H38.8C44.9856 0 50 5.01441 50 11.2V38.8C50 44.9856 44.9856 50 38.8 50H11.2C5.01441 50 0 44.9856 0 38.8V11.2Z" fill="#115A2A"/>
<path d="M34.5 10.2666H15.5C14.2402 10.2666 13.032 10.767 12.1412 11.6578C11.2504 12.5486 10.75 13.7568 10.75 15.0166V32.4333C10.75 33.693 11.2504 34.9012 12.1412 35.792C13.032 36.6828 14.2402 37.1833 15.5 37.1833H19.6008L23.8758 41.4741C24.0238 41.6208 24.1992 41.7369 24.3921 41.8157C24.5851 41.8945 24.7916 41.9345 25 41.9333C25.3774 41.9333 25.7424 41.7985 26.0292 41.5533L31.1275 37.1833H34.5C35.7598 37.1833 36.968 36.6828 37.8588 35.792C38.7496 34.9012 39.25 33.693 39.25 32.4333V15.0166C39.25 13.7568 38.7496 12.5486 37.8588 11.6578C36.968 10.767 35.7598 10.2666 34.5 10.2666ZM36.0833 32.4333C36.0833 32.8532 35.9165 33.2559 35.6196 33.5529C35.3227 33.8498 34.9199 34.0166 34.5 34.0166H30.5417C30.1643 34.0166 29.7993 34.1513 29.5125 34.3966L25.0792 38.1966L21.3742 34.4758C21.2262 34.329 21.0508 34.2129 20.8579 34.1341C20.6649 34.0553 20.4584 34.0154 20.25 34.0166H15.5C15.0801 34.0166 14.6773 33.8498 14.3804 33.5529C14.0835 33.2559 13.9167 32.8532 13.9167 32.4333V15.0166C13.9167 14.5967 14.0835 14.1939 14.3804 13.897C14.6773 13.6001 15.0801 13.4333 15.5 13.4333H34.5C34.9199 13.4333 35.3227 13.6001 35.6196 13.897C35.9165 14.1939 36.0833 14.5967 36.0833 15.0166V32.4333Z" fill="#ADDEBE"/>
<path d="M31.9635 18.6962V24.5C31.9635 27.3154 27.2581 32.6238 24.9993 32.625C22.7406 32.6263 18.0352 27.3154 18.0352 24.5V18.6962C18.0352 16.46 22.5902 16.375 24.9993 16.375C27.4085 16.375 31.9635 16.46 31.9635 18.6962Z" stroke="#ADDEBE" stroke-width="1.1" stroke-linecap="round" stroke-linejoin="round"/>
<path d="M26.9339 21.985C27.4094 21.6974 27.9341 21.5006 28.4814 21.4046C29.0287 21.5006 29.5534 21.6974 30.0289 21.985C29.5534 22.2726 29.0287 22.4694 28.4814 22.5654C27.9341 22.4694 27.4094 22.2726 26.9339 21.985ZM23.0647 21.985C22.5893 21.6974 22.0645 21.5006 21.5172 21.4046C20.9699 21.5006 20.4452 21.6974 19.9697 21.985C20.4452 22.2726 20.9699 22.4694 21.5172 22.5654C22.0645 22.4694 22.5893 22.2726 23.0647 21.985ZM25.7731 29.1429V30.8837L24.9993 31.6583L24.2256 30.8842V29.1433L25.7731 29.1429ZM30.0289 24.8871L28.4814 27.7887H25.7731L24.9993 27.015L24.2256 27.7887H21.5172L19.9697 24.8871L21.9039 26.6279H23.4518L24.6122 25.4671H25.3868L26.5472 26.6279H28.0952L30.0289 24.8871ZM30.2227 20.6308C29.0093 20.0154 28.0522 19.7892 26.7406 21.3275C26.6328 21.4199 26.4955 21.4706 26.3535 21.4706C26.2115 21.4706 26.0742 21.4199 25.9664 21.3275C25.8735 21.22 25.8224 21.0827 25.8224 20.9406C25.8224 20.7986 25.8735 20.6612 25.9664 20.5537C27.5414 18.9496 29.4102 19.1025 30.2227 20.6308ZM19.776 20.6308C20.9893 20.0154 21.9464 19.7892 23.2581 21.3275C23.3659 21.4199 23.5032 21.4706 23.6452 21.4706C23.7871 21.4706 23.9244 21.4199 24.0322 21.3275C24.1251 21.22 24.1762 21.0827 24.1762 20.9406C24.1762 20.7986 24.1251 20.6612 24.0322 20.5537C22.4572 18.9496 20.5885 19.1025 19.776 20.6308Z" stroke="#ADDEBE" stroke-width="1.1" stroke-linecap="round" stroke-linejoin="round"/>
<path d="M66.872 15.484L72.892 30.324L70.54 29.848L76 15.484H80.816L71.408 37.044L62 15.484H66.872Z" fill="#ADDEBE"/>
<path d="M84.3812 15.484H97.2612V19.404H88.4412V24.08H96.0852V28H88.4412V36.092H84.3812V15.484Z" fill="#ADDEBE"/>
<path d="M101.674 18.48H105.594V23.8H108.562V26.852H105.594V36.092H101.674V26.852H99.7702V23.8H101.674V18.48Z" fill="#ADDEBE"/>
<path d="M116.698 36.428C115.559 36.428 114.523 36.204 113.59 35.756C112.675 35.2893 111.947 34.58 111.406 33.628C110.864 32.676 110.594 31.4627 110.594 29.988C110.594 28.6067 110.874 27.412 111.434 26.404C111.994 25.396 112.731 24.6213 113.646 24.08C114.56 23.52 115.531 23.24 116.558 23.24C117.771 23.24 118.686 23.4453 119.302 23.856C119.936 24.248 120.459 24.6867 120.87 25.172L120.702 25.648L121.066 23.856H124.706V36.092H120.786V33.432L121.094 34.272C121.056 34.272 120.944 34.384 120.758 34.608C120.571 34.8133 120.291 35.0653 119.918 35.364C119.563 35.644 119.115 35.8867 118.574 36.092C118.051 36.316 117.426 36.428 116.698 36.428ZM117.818 33.236C118.284 33.236 118.704 33.1707 119.078 33.04C119.451 32.8907 119.778 32.6853 120.058 32.424C120.338 32.144 120.58 31.7987 120.786 31.388V28.392C120.636 27.9813 120.412 27.636 120.114 27.356C119.815 27.0573 119.46 26.8333 119.05 26.684C118.639 26.516 118.182 26.432 117.678 26.432C117.118 26.432 116.595 26.5813 116.11 26.88C115.643 27.16 115.27 27.552 114.99 28.056C114.71 28.56 114.57 29.1387 114.57 29.792C114.57 30.4453 114.719 31.0333 115.018 31.556C115.316 32.0787 115.708 32.4893 116.194 32.788C116.698 33.0867 117.239 33.236 117.818 33.236Z" fill="#ADDEBE"/>
<path d="M128.745 14H132.665V36.092H128.745V14Z" fill="#ADDEBE"/>
<path d="M136.702 36.092V14H140.622V36.092H136.702ZM143.73 27.776L149.274 36.092H144.71L141.154 30.016L143.73 27.776ZM139.446 32.704L139.054 28.98L146.446 23.548L148.826 25.648L139.446 32.704Z" fill="#ADDEBE"/>
</svg>
