<svg width="500" height="500" viewBox="0 0 500 500" fill="none" xmlns="http://www.w3.org/2000/svg">
<rect y="331" width="194" height="169" fill="#047857"/>
<rect width="500" height="500" rx="112" fill="#047857"/>
<path d="M345 102.667H155C142.402 102.667 130.32 107.671 121.412 116.579C112.504 125.487 107.5 137.569 107.5 150.167V324.333C107.5 336.931 112.504 349.013 121.412 357.921C130.32 366.829 142.402 371.833 155 371.833H196.008L238.758 414.741C240.238 416.209 241.992 417.37 243.921 418.158C245.851 418.946 247.916 419.345 250 419.333C253.774 419.333 257.424 417.986 260.292 415.533L311.275 371.833H345C357.598 371.833 369.68 366.829 378.588 357.921C387.496 349.013 392.5 336.931 392.5 324.333V150.167C392.5 137.569 387.496 125.487 378.588 116.579C369.68 107.671 357.598 102.667 345 102.667ZM360.833 324.333C360.833 328.532 359.165 332.56 356.196 335.529C353.227 338.498 349.199 340.166 345 340.166H305.417C301.643 340.166 297.993 341.514 295.125 343.966L250.792 381.966L213.742 344.758C212.262 343.291 210.508 342.13 208.579 341.342C206.649 340.554 204.584 340.154 202.5 340.166H155C150.801 340.166 146.773 338.498 143.804 335.529C140.835 332.56 139.167 328.532 139.167 324.333V150.167C139.167 145.967 140.835 141.94 143.804 138.971C146.773 136.001 150.801 134.333 155 134.333H345C349.199 134.333 353.227 136.001 356.196 138.971C359.165 141.94 360.833 145.967 360.833 150.167V324.333Z" fill="#ADDEBE"/>
<path d="M319.643 186.962V245C319.643 273.154 272.588 326.237 250.001 326.25C227.413 326.262 180.359 273.154 180.359 245V186.962C180.359 164.6 225.909 163.75 250.001 163.75C274.093 163.75 319.643 164.6 319.643 186.962Z" stroke="#ADDEBE" stroke-width="15" stroke-linecap="round" stroke-linejoin="round"/>
<path d="M269.345 219.85C274.1 216.974 279.347 215.006 284.82 214.046C290.293 215.006 295.54 216.974 300.295 219.85C295.54 222.726 290.293 224.694 284.82 225.654C279.347 224.694 274.1 222.726 269.345 219.85ZM230.653 219.85C225.899 216.974 220.651 215.006 215.178 214.046C209.705 215.006 204.458 216.974 199.703 219.85C204.458 222.726 209.705 224.694 215.178 225.654C220.651 224.694 225.899 222.726 230.653 219.85ZM257.737 291.429V308.837L249.999 316.583L242.262 308.842V291.433L257.737 291.429ZM300.295 248.871L284.82 277.887H257.737L249.999 270.15L242.262 277.887H215.178L199.703 248.871L219.045 266.279H234.524L246.128 254.671H253.874L265.478 266.279H280.957L300.295 248.871ZM302.232 206.308C290.099 200.154 280.528 197.892 267.412 213.275C266.333 214.199 264.96 214.706 263.541 214.706C262.121 214.706 260.748 214.199 259.67 213.275C258.741 212.2 258.23 210.827 258.23 209.406C258.23 207.986 258.741 206.612 259.67 205.537C275.42 189.496 294.107 191.025 302.232 206.308ZM197.766 206.308C209.899 200.154 219.47 197.892 232.587 213.275C233.665 214.199 235.038 214.706 236.457 214.706C237.877 214.706 239.25 214.199 240.328 213.275C241.257 212.2 241.768 210.827 241.768 209.406C241.768 207.986 241.257 206.612 240.328 205.537C224.578 189.496 205.891 191.025 197.766 206.308Z" stroke="#ADDEBE" stroke-width="5" stroke-linecap="round" stroke-linejoin="round"/>
</svg>
